<mxfile host="app.diagrams.net" agent="Mozilla/5.0 (Macintosh; Intel Mac OS X 10_15_7) AppleWebKit/537.36 (KHTML, like Gecko) Chrome/131.0.0.0 Safari/537.36 Edg/131.0.0.0" version="26.0.2">
  <diagram id="WI9T0HZ2pTsCkuznbFz-" name="Page-1">
    <mxGraphModel dx="2841" dy="769" grid="1" gridSize="10" guides="1" tooltips="1" connect="1" arrows="1" fold="1" page="1" pageScale="1" pageWidth="827" pageHeight="1169" math="0" shadow="0">
      <root>
        <mxCell id="0" />
        <mxCell id="1" parent="0" />
        <mxCell id="yIlqXNv4PA9Dnh1hxRCn-52" value="" style="rounded=0;whiteSpace=wrap;html=1;fillColor=#f5f5f5;strokeColor=none;fontColor=#333333;" parent="1" vertex="1">
          <mxGeometry x="-903.5" y="420" width="1053.5" height="730" as="geometry" />
        </mxCell>
        <mxCell id="yIlqXNv4PA9Dnh1hxRCn-54" style="edgeStyle=elbowEdgeStyle;rounded=0;orthogonalLoop=1;jettySize=auto;elbow=vertical;html=1;exitX=1.026;exitY=0.463;exitDx=0;exitDy=0;exitPerimeter=0;strokeColor=#808080;" parent="1" source="yIlqXNv4PA9Dnh1hxRCn-26" target="yIlqXNv4PA9Dnh1hxRCn-52" edge="1">
          <mxGeometry relative="1" as="geometry" />
        </mxCell>
        <mxCell id="yIlqXNv4PA9Dnh1hxRCn-23" value="Express&lt;br&gt;Route" style="aspect=fixed;html=1;perimeter=none;align=center;shadow=0;dashed=0;image;fontSize=12;image=img/lib/mscae/Express_Route.svg;" parent="1" vertex="1">
          <mxGeometry x="-1030" y="465" width="115.57" height="70.5" as="geometry" />
        </mxCell>
        <mxCell id="yIlqXNv4PA9Dnh1hxRCn-24" value="Virtual Network" style="aspect=fixed;html=1;perimeter=none;align=center;shadow=0;dashed=0;image;fontSize=12;image=img/lib/mscae/Virtual_Network.svg;labelBackgroundColor=none;" parent="1" vertex="1">
          <mxGeometry x="-870" y="465" width="131.58" height="75" as="geometry" />
        </mxCell>
        <mxCell id="yIlqXNv4PA9Dnh1hxRCn-26" value="VPN Gateway" style="aspect=fixed;html=1;perimeter=none;align=center;shadow=0;dashed=0;image;fontSize=12;image=img/lib/mscae/VPN_Gateway.svg;" parent="1" vertex="1">
          <mxGeometry x="-1010" y="691.44" width="59" height="65.56" as="geometry" />
        </mxCell>
        <mxCell id="W8AcoZy5W2Z0syqtu2D5-1" value="" style="rounded=0;whiteSpace=wrap;html=1;fillColor=#f5f5f5;strokeColor=none;fontColor=#333333;" parent="1" vertex="1">
          <mxGeometry x="-1600" y="450" width="560" height="600" as="geometry" />
        </mxCell>
        <mxCell id="W8AcoZy5W2Z0syqtu2D5-27" value="" style="group" parent="1" vertex="1" connectable="0">
          <mxGeometry x="-1550" y="190" width="290" height="190" as="geometry" />
        </mxCell>
        <mxCell id="W8AcoZy5W2Z0syqtu2D5-10" value="" style="rounded=0;whiteSpace=wrap;html=1;align=left;" parent="W8AcoZy5W2Z0syqtu2D5-27" vertex="1">
          <mxGeometry width="290" height="190" as="geometry" />
        </mxCell>
        <mxCell id="W8AcoZy5W2Z0syqtu2D5-11" value="" style="shape=image;verticalLabelPosition=bottom;labelBackgroundColor=#ffffff;verticalAlign=top;aspect=fixed;imageAspect=0;image=data:image/svg+xml,PHN2ZyB4bWxuczpkYz0iaHR0cDovL3B1cmwub3JnL2RjL2VsZW1lbnRzLzEuMS8iIHhtbG5zOmNjPSJodHRwOi8vY3JlYXRpdmVjb21tb25zLm9yZy9ucyMiIHhtbG5zOnJkZj0iaHR0cDovL3d3dy53My5vcmcvMTk5OS8wMi8yMi1yZGYtc3ludGF4LW5zIyIgeG1sbnM6c3ZnPSJodHRwOi8vd3d3LnczLm9yZy8yMDAwL3N2ZyIgeG1sbnM9Imh0dHA6Ly93d3cudzMub3JnLzIwMDAvc3ZnIiB4bWxuczpzb2RpcG9kaT0iaHR0cDovL3NvZGlwb2RpLnNvdXJjZWZvcmdlLm5ldC9EVEQvc29kaXBvZGktMC5kdGQiIHhtbG5zOmlua3NjYXBlPSJodHRwOi8vd3d3Lmlua3NjYXBlLm9yZy9uYW1lc3BhY2VzL2lua3NjYXBlIiB2ZXJzaW9uPSIxLjEiIGlkPSJzdmcxNTU1MjEiIGlua3NjYXBlOnZlcnNpb249IjAuOTIuMyAoMjQwNTU0NiwgMjAxOC0wMy0xMSkiIHNvZGlwb2RpOmRvY25hbWU9ImF6dXJlX2FwcF9zZXJ2aWNlXzEuc3ZnIiB4PSIwcHgiIHk9IjBweCIgdmlld0JveD0iMCAwIDY2LjM3IDY2LjIxIiB4bWw6c3BhY2U9InByZXNlcnZlIiB3aWR0aD0iNjYuMzcwMDAzIiBoZWlnaHQ9IjY2LjIwOTk5OSI+PG1ldGFkYXRhIGlkPSJtZXRhZGF0YTE4NzY2Ij48cmRmOlJERj48Y2M6V29yayByZGY6YWJvdXQ9IiI+PGRjOmZvcm1hdD5pbWFnZS9zdmcreG1sPC9kYzpmb3JtYXQ+PGRjOnR5cGUgcmRmOnJlc291cmNlPSJodHRwOi8vcHVybC5vcmcvZGMvZGNtaXR5cGUvU3RpbGxJbWFnZSIvPjxkYzp0aXRsZS8+PC9jYzpXb3JrPjwvcmRmOlJERj48L21ldGFkYXRhPjxkZWZzIGlkPSJkZWZzMTg3NjQiLz4mI3hhOzxmaWx0ZXIgaWQ9ImZpbHRlcl8yIj4mI3hhOwk8ZmVHYXVzc2lhbkJsdXIgaWQ9ImZlR2F1c3NpYW5CbHVyMTU1NDY3IiBzdGREZXZpYXRpb249IjIiLz4mI3hhOzwvZmlsdGVyPiYjeGE7PHNvZGlwb2RpOm5hbWVkdmlldyBib3JkZXJjb2xvcj0iIzY2NjY2NiIgYm9yZGVyb3BhY2l0eT0iMSIgZml0LW1hcmdpbi1ib3R0b209IjAiIGZpdC1tYXJnaW4tbGVmdD0iMCIgZml0LW1hcmdpbi1yaWdodD0iMCIgZml0LW1hcmdpbi10b3A9IjAiIGdyaWR0b2xlcmFuY2U9IjEwIiBndWlkZXRvbGVyYW5jZT0iMTAiIGlkPSJuYW1lZHZpZXcxNTU1MjMiIGlua3NjYXBlOmN1cnJlbnQtbGF5ZXI9InN2ZzE1NTUyMSIgaW5rc2NhcGU6Y3g9IjE4LjQxNjAxNyIgaW5rc2NhcGU6Y3k9IjIzLjY2MTEzMSIgaW5rc2NhcGU6cGFnZW9wYWNpdHk9IjAiIGlua3NjYXBlOnBhZ2VzaGFkb3c9IjIiIGlua3NjYXBlOndpbmRvdy1oZWlnaHQ9IjEwMTciIGlua3NjYXBlOndpbmRvdy1tYXhpbWl6ZWQ9IjEiIGlua3NjYXBlOndpbmRvdy13aWR0aD0iMTkyMCIgaW5rc2NhcGU6d2luZG93LXg9Ii04IiBpbmtzY2FwZTp3aW5kb3cteT0iLTgiIGlua3NjYXBlOnpvb209IjYuODUwMDQ2MiIgb2JqZWN0dG9sZXJhbmNlPSIxMCIgcGFnZWNvbG9yPSIjZmZmZmZmIiBzaG93Z3JpZD0iZmFsc2UiPiYjeGE7CTwvc29kaXBvZGk6bmFtZWR2aWV3PiYjeGE7JiN4YTs8cGF0aCBpZD0icGF0aDE1NTQ4MiIgaW5rc2NhcGU6Y29ubmVjdG9yLWN1cnZhdHVyZT0iMCIgc3R5bGU9ImZpbGw6IzNmNTc2NSIgZD0iTSAyNi44MSw2MS42OCBIIDQuNjggViAzOS43MiBoIDQuMzYgYyAtMC40OCwtMS4yOSAtMC44LC0yLjc0IC0wLjgsLTQuMzYgMCwwIDAsLTAuMTYgMCwtMC4zMiBIIDAgViA2Ni4yMSBIIDMxLjMzIFYgNDcuOCBoIC00LjUyIHoiLz4mI3hhOyYjeGE7PHBhdGggaWQ9InBhdGgxNTU0OTAiIGlua3NjYXBlOmNvbm5lY3Rvci1jdXJ2YXR1cmU9IjAiIHN0eWxlPSJmaWxsOiMzZjU3NjUiIGQ9Im0gNTcuNjUsMzkuNzIgaCA0LjA0IFYgNjEuNjggSCAzOS41NiBWIDQ3LjggSCAzNS4wNCBWIDY2LjIxIEggNjYuMzcgViAzNS4wNCBoIC05Ljg1IGMgMC44MSwxLjI5IDEuMTMsMi43NCAxLjEzLDQuMzYgMCwwLjE2IDAsMC4xNiAwLDAuMzIgeiIvPiYjeGE7JiN4YTs8cGF0aCBpZD0icGF0aDE1NTQ5OCIgaW5rc2NhcGU6Y29ubmVjdG9yLWN1cnZhdHVyZT0iMCIgc3R5bGU9ImZpbGw6IzNmNTc2NSIgZD0iTSA0LjY4LDI2LjY0IFYgNC42OCBoIDIyLjEzIHYgMTIuNzYgYyAxLjQ1LC0wLjk3IDIuOSwtMS43OCA0LjUyLC0yLjI2IFYgMC4xNiBIIDAuMTYgViAzMS4zMyBIIDkuMiBjIDAuNjUsLTEuNzggMS42MiwtMy4yMyAyLjkxLC00LjUzIHoiLz4mI3hhOyYjeGE7PHBhdGggaWQ9InBhdGgxNTU1MDYiIGlua3NjYXBlOmNvbm5lY3Rvci1jdXJ2YXR1cmU9IjAiIHN0eWxlPSJmaWxsOiMzZjU3NjUiIGQ9Ik0gMzkuNTYsMTQuODYgViA0LjY4IGggMjIuMTMgdiAyMS45NiBoIC05LjUzIGMgMC4zMiwxLjQ2IDAuNjQsMi45MSAwLjY0LDQuMzYgdiAwLjE3IEggNjYuMzcgViAwIEggMzUuMDQgdiAxNC4zNyBjIDAuMzIsMCAwLjgxLDAgMS4xMywwIDEuMTMsMCAyLjI2LDAuMTYgMy4zOSwwLjQ5IHoiLz4mI3hhOyYjeGE7PHBhdGggaWQ9InBhdGgxNTU1MTUiIGlua3NjYXBlOmNvbm5lY3Rvci1jdXJ2YXR1cmU9IjAiIHN0eWxlPSJmaWxsOiMzZjU3NjUiIGQ9Im0gNTQuMjYsMzkuNCBjIDAsLTIuNzQgLTIuMjYsLTUgLTQuODUsLTUgLTAuMTYsMCAtMC4zMiwwIC0wLjY0LDAgMC4zMiwtMS4xMyAwLjQ4LC0yLjI3IDAuNDgsLTMuNTYgMCwtNy4yNiAtNS44MSwtMTMuMjQgLTEzLjA4LC0xMy4yNCAtNS44MSwwIC0xMC42NiwzLjcyIC0xMi40Myw5LjA0IC0wLjk3LC0wLjMyIC0xLjk0LC0wLjQ4IC0yLjkxLC0wLjQ4IC01LDAgLTguODgsNC4wNCAtOC44OCw5LjA0IDAsNS4wMSA0LjA0LDkuMDUgOC44OCw5LjA1IEggNDkuOSBjIDIuNDIsLTAuMTcgNC4zNiwtMi4yNiA0LjM2LC00Ljg1IHoiLz4mI3hhOzwvc3ZnPg==;" parent="W8AcoZy5W2Z0syqtu2D5-27" vertex="1">
          <mxGeometry x="30" y="114" width="50" height="50" as="geometry" />
        </mxCell>
        <mxCell id="W8AcoZy5W2Z0syqtu2D5-12" value="" style="image;aspect=fixed;html=1;points=[];align=center;fontSize=12;image=img/lib/azure2/preview/Static_Apps.svg;" parent="W8AcoZy5W2Z0syqtu2D5-27" vertex="1">
          <mxGeometry x="111.01999999999998" y="114" width="62.96" height="50" as="geometry" />
        </mxCell>
        <mxCell id="W8AcoZy5W2Z0syqtu2D5-13" value="" style="image;aspect=fixed;html=1;points=[];align=center;fontSize=12;image=img/lib/azure2/databases/Azure_Database_PostgreSQL_Server.svg;" parent="W8AcoZy5W2Z0syqtu2D5-27" vertex="1">
          <mxGeometry x="204.26" y="107" width="48" height="64" as="geometry" />
        </mxCell>
        <mxCell id="W8AcoZy5W2Z0syqtu2D5-15" value="Azure&lt;br&gt;App Service" style="text;html=1;align=center;verticalAlign=middle;whiteSpace=wrap;rounded=0;" parent="W8AcoZy5W2Z0syqtu2D5-27" vertex="1">
          <mxGeometry x="22.5" y="53" width="65" height="47" as="geometry" />
        </mxCell>
        <mxCell id="W8AcoZy5W2Z0syqtu2D5-16" value="Azure Static Web Apps" style="text;html=1;align=center;verticalAlign=middle;whiteSpace=wrap;rounded=0;" parent="W8AcoZy5W2Z0syqtu2D5-27" vertex="1">
          <mxGeometry x="108.98000000000002" y="51.5" width="65" height="47" as="geometry" />
        </mxCell>
        <mxCell id="W8AcoZy5W2Z0syqtu2D5-17" value="Storage: Postgresql or Cosmos" style="text;html=1;align=center;verticalAlign=middle;whiteSpace=wrap;rounded=0;" parent="W8AcoZy5W2Z0syqtu2D5-27" vertex="1">
          <mxGeometry x="186.1300000000001" y="50" width="84.25" height="47" as="geometry" />
        </mxCell>
        <mxCell id="W8AcoZy5W2Z0syqtu2D5-18" value="&lt;b&gt;Standard Cloud Application Architecture&lt;/b&gt;" style="text;html=1;align=center;verticalAlign=middle;whiteSpace=wrap;rounded=0;" parent="W8AcoZy5W2Z0syqtu2D5-27" vertex="1">
          <mxGeometry x="22.5" y="20" width="240" height="20" as="geometry" />
        </mxCell>
        <mxCell id="W8AcoZy5W2Z0syqtu2D5-34" value="" style="group" parent="1" vertex="1" connectable="0">
          <mxGeometry x="-160" y="770" width="290" height="220" as="geometry" />
        </mxCell>
        <mxCell id="W8AcoZy5W2Z0syqtu2D5-19" value="" style="rounded=0;whiteSpace=wrap;html=1;align=left;" parent="W8AcoZy5W2Z0syqtu2D5-34" vertex="1">
          <mxGeometry y="20" width="290" height="190" as="geometry" />
        </mxCell>
        <mxCell id="W8AcoZy5W2Z0syqtu2D5-20" value="" style="shape=image;verticalLabelPosition=bottom;labelBackgroundColor=#ffffff;verticalAlign=top;aspect=fixed;imageAspect=0;image=data:image/svg+xml,PHN2ZyB4bWxuczpkYz0iaHR0cDovL3B1cmwub3JnL2RjL2VsZW1lbnRzLzEuMS8iIHhtbG5zOmNjPSJodHRwOi8vY3JlYXRpdmVjb21tb25zLm9yZy9ucyMiIHhtbG5zOnJkZj0iaHR0cDovL3d3dy53My5vcmcvMTk5OS8wMi8yMi1yZGYtc3ludGF4LW5zIyIgeG1sbnM6c3ZnPSJodHRwOi8vd3d3LnczLm9yZy8yMDAwL3N2ZyIgeG1sbnM9Imh0dHA6Ly93d3cudzMub3JnLzIwMDAvc3ZnIiB4bWxuczpzb2RpcG9kaT0iaHR0cDovL3NvZGlwb2RpLnNvdXJjZWZvcmdlLm5ldC9EVEQvc29kaXBvZGktMC5kdGQiIHhtbG5zOmlua3NjYXBlPSJodHRwOi8vd3d3Lmlua3NjYXBlLm9yZy9uYW1lc3BhY2VzL2lua3NjYXBlIiB2ZXJzaW9uPSIxLjEiIGlkPSJzdmcxNTU1MjEiIGlua3NjYXBlOnZlcnNpb249IjAuOTIuMyAoMjQwNTU0NiwgMjAxOC0wMy0xMSkiIHNvZGlwb2RpOmRvY25hbWU9ImF6dXJlX2FwcF9zZXJ2aWNlXzEuc3ZnIiB4PSIwcHgiIHk9IjBweCIgdmlld0JveD0iMCAwIDY2LjM3IDY2LjIxIiB4bWw6c3BhY2U9InByZXNlcnZlIiB3aWR0aD0iNjYuMzcwMDAzIiBoZWlnaHQ9IjY2LjIwOTk5OSI+PG1ldGFkYXRhIGlkPSJtZXRhZGF0YTE4NzY2Ij48cmRmOlJERj48Y2M6V29yayByZGY6YWJvdXQ9IiI+PGRjOmZvcm1hdD5pbWFnZS9zdmcreG1sPC9kYzpmb3JtYXQ+PGRjOnR5cGUgcmRmOnJlc291cmNlPSJodHRwOi8vcHVybC5vcmcvZGMvZGNtaXR5cGUvU3RpbGxJbWFnZSIvPjxkYzp0aXRsZS8+PC9jYzpXb3JrPjwvcmRmOlJERj48L21ldGFkYXRhPjxkZWZzIGlkPSJkZWZzMTg3NjQiLz4mI3hhOzxmaWx0ZXIgaWQ9ImZpbHRlcl8yIj4mI3hhOwk8ZmVHYXVzc2lhbkJsdXIgaWQ9ImZlR2F1c3NpYW5CbHVyMTU1NDY3IiBzdGREZXZpYXRpb249IjIiLz4mI3hhOzwvZmlsdGVyPiYjeGE7PHNvZGlwb2RpOm5hbWVkdmlldyBib3JkZXJjb2xvcj0iIzY2NjY2NiIgYm9yZGVyb3BhY2l0eT0iMSIgZml0LW1hcmdpbi1ib3R0b209IjAiIGZpdC1tYXJnaW4tbGVmdD0iMCIgZml0LW1hcmdpbi1yaWdodD0iMCIgZml0LW1hcmdpbi10b3A9IjAiIGdyaWR0b2xlcmFuY2U9IjEwIiBndWlkZXRvbGVyYW5jZT0iMTAiIGlkPSJuYW1lZHZpZXcxNTU1MjMiIGlua3NjYXBlOmN1cnJlbnQtbGF5ZXI9InN2ZzE1NTUyMSIgaW5rc2NhcGU6Y3g9IjE4LjQxNjAxNyIgaW5rc2NhcGU6Y3k9IjIzLjY2MTEzMSIgaW5rc2NhcGU6cGFnZW9wYWNpdHk9IjAiIGlua3NjYXBlOnBhZ2VzaGFkb3c9IjIiIGlua3NjYXBlOndpbmRvdy1oZWlnaHQ9IjEwMTciIGlua3NjYXBlOndpbmRvdy1tYXhpbWl6ZWQ9IjEiIGlua3NjYXBlOndpbmRvdy13aWR0aD0iMTkyMCIgaW5rc2NhcGU6d2luZG93LXg9Ii04IiBpbmtzY2FwZTp3aW5kb3cteT0iLTgiIGlua3NjYXBlOnpvb209IjYuODUwMDQ2MiIgb2JqZWN0dG9sZXJhbmNlPSIxMCIgcGFnZWNvbG9yPSIjZmZmZmZmIiBzaG93Z3JpZD0iZmFsc2UiPiYjeGE7CTwvc29kaXBvZGk6bmFtZWR2aWV3PiYjeGE7JiN4YTs8cGF0aCBpZD0icGF0aDE1NTQ4MiIgaW5rc2NhcGU6Y29ubmVjdG9yLWN1cnZhdHVyZT0iMCIgc3R5bGU9ImZpbGw6IzNmNTc2NSIgZD0iTSAyNi44MSw2MS42OCBIIDQuNjggViAzOS43MiBoIDQuMzYgYyAtMC40OCwtMS4yOSAtMC44LC0yLjc0IC0wLjgsLTQuMzYgMCwwIDAsLTAuMTYgMCwtMC4zMiBIIDAgViA2Ni4yMSBIIDMxLjMzIFYgNDcuOCBoIC00LjUyIHoiLz4mI3hhOyYjeGE7PHBhdGggaWQ9InBhdGgxNTU0OTAiIGlua3NjYXBlOmNvbm5lY3Rvci1jdXJ2YXR1cmU9IjAiIHN0eWxlPSJmaWxsOiMzZjU3NjUiIGQ9Im0gNTcuNjUsMzkuNzIgaCA0LjA0IFYgNjEuNjggSCAzOS41NiBWIDQ3LjggSCAzNS4wNCBWIDY2LjIxIEggNjYuMzcgViAzNS4wNCBoIC05Ljg1IGMgMC44MSwxLjI5IDEuMTMsMi43NCAxLjEzLDQuMzYgMCwwLjE2IDAsMC4xNiAwLDAuMzIgeiIvPiYjeGE7JiN4YTs8cGF0aCBpZD0icGF0aDE1NTQ5OCIgaW5rc2NhcGU6Y29ubmVjdG9yLWN1cnZhdHVyZT0iMCIgc3R5bGU9ImZpbGw6IzNmNTc2NSIgZD0iTSA0LjY4LDI2LjY0IFYgNC42OCBoIDIyLjEzIHYgMTIuNzYgYyAxLjQ1LC0wLjk3IDIuOSwtMS43OCA0LjUyLC0yLjI2IFYgMC4xNiBIIDAuMTYgViAzMS4zMyBIIDkuMiBjIDAuNjUsLTEuNzggMS42MiwtMy4yMyAyLjkxLC00LjUzIHoiLz4mI3hhOyYjeGE7PHBhdGggaWQ9InBhdGgxNTU1MDYiIGlua3NjYXBlOmNvbm5lY3Rvci1jdXJ2YXR1cmU9IjAiIHN0eWxlPSJmaWxsOiMzZjU3NjUiIGQ9Ik0gMzkuNTYsMTQuODYgViA0LjY4IGggMjIuMTMgdiAyMS45NiBoIC05LjUzIGMgMC4zMiwxLjQ2IDAuNjQsMi45MSAwLjY0LDQuMzYgdiAwLjE3IEggNjYuMzcgViAwIEggMzUuMDQgdiAxNC4zNyBjIDAuMzIsMCAwLjgxLDAgMS4xMywwIDEuMTMsMCAyLjI2LDAuMTYgMy4zOSwwLjQ5IHoiLz4mI3hhOyYjeGE7PHBhdGggaWQ9InBhdGgxNTU1MTUiIGlua3NjYXBlOmNvbm5lY3Rvci1jdXJ2YXR1cmU9IjAiIHN0eWxlPSJmaWxsOiMzZjU3NjUiIGQ9Im0gNTQuMjYsMzkuNCBjIDAsLTIuNzQgLTIuMjYsLTUgLTQuODUsLTUgLTAuMTYsMCAtMC4zMiwwIC0wLjY0LDAgMC4zMiwtMS4xMyAwLjQ4LC0yLjI3IDAuNDgsLTMuNTYgMCwtNy4yNiAtNS44MSwtMTMuMjQgLTEzLjA4LC0xMy4yNCAtNS44MSwwIC0xMC42NiwzLjcyIC0xMi40Myw5LjA0IC0wLjk3LC0wLjMyIC0xLjk0LC0wLjQ4IC0yLjkxLC0wLjQ4IC01LDAgLTguODgsNC4wNCAtOC44OCw5LjA0IDAsNS4wMSA0LjA0LDkuMDUgOC44OCw5LjA1IEggNDkuOSBjIDIuNDIsLTAuMTcgNC4zNiwtMi4yNiA0LjM2LC00Ljg1IHoiLz4mI3hhOzwvc3ZnPg==;" parent="W8AcoZy5W2Z0syqtu2D5-34" vertex="1">
          <mxGeometry x="22.5" y="70.00142857142856" width="50" height="50" as="geometry" />
        </mxCell>
        <mxCell id="W8AcoZy5W2Z0syqtu2D5-21" value="" style="image;aspect=fixed;html=1;points=[];align=center;fontSize=12;image=img/lib/azure2/preview/Static_Apps.svg;" parent="W8AcoZy5W2Z0syqtu2D5-34" vertex="1">
          <mxGeometry x="111.01999999999998" y="70.00142857142856" width="62.96" height="50" as="geometry" />
        </mxCell>
        <mxCell id="W8AcoZy5W2Z0syqtu2D5-26" value="&lt;b&gt;Reporting Management&lt;/b&gt;" style="text;html=1;align=center;verticalAlign=middle;whiteSpace=wrap;rounded=0;" parent="W8AcoZy5W2Z0syqtu2D5-34" vertex="1">
          <mxGeometry x="22.5" y="31.428571428571427" width="240" height="31.428571428571427" as="geometry" />
        </mxCell>
        <mxCell id="W8AcoZy5W2Z0syqtu2D5-28" value="" style="image;aspect=fixed;html=1;points=[];align=center;fontSize=12;image=img/lib/azure2/databases/Azure_Cosmos_DB.svg;" parent="W8AcoZy5W2Z0syqtu2D5-34" vertex="1">
          <mxGeometry x="200.5" y="64.00571428571428" width="62" height="62" as="geometry" />
        </mxCell>
        <mxCell id="W8AcoZy5W2Z0syqtu2D5-60" value="" style="image;aspect=fixed;html=1;points=[];align=center;fontSize=12;image=img/lib/azure2/general/Storage_Azure_Files.svg;" parent="W8AcoZy5W2Z0syqtu2D5-34" vertex="1">
          <mxGeometry x="109.98000000000002" y="140" width="64" height="52" as="geometry" />
        </mxCell>
        <mxCell id="W8AcoZy5W2Z0syqtu2D5-51" value="" style="group" parent="1" vertex="1" connectable="0">
          <mxGeometry x="-903.25" y="190" width="290" height="190" as="geometry" />
        </mxCell>
        <mxCell id="W8AcoZy5W2Z0syqtu2D5-52" value="" style="rounded=0;whiteSpace=wrap;html=1;align=left;" parent="W8AcoZy5W2Z0syqtu2D5-51" vertex="1">
          <mxGeometry width="290" height="190" as="geometry" />
        </mxCell>
        <mxCell id="W8AcoZy5W2Z0syqtu2D5-59" value="&lt;b&gt;Standard Cloud Vendor Provided Application Deployment&lt;/b&gt;" style="text;html=1;align=center;verticalAlign=middle;whiteSpace=wrap;rounded=0;" parent="W8AcoZy5W2Z0syqtu2D5-51" vertex="1">
          <mxGeometry x="25" y="10" width="240" height="30" as="geometry" />
        </mxCell>
        <mxCell id="W8AcoZy5W2Z0syqtu2D5-66" value="Azure Virtual Machine" style="shape=image;verticalLabelPosition=bottom;labelBackgroundColor=#ffffff;verticalAlign=top;aspect=fixed;imageAspect=0;image=data:image/svg+xml,PHN2ZyB4bWxuczpjYz0iaHR0cDovL2NyZWF0aXZlY29tbW9ucy5vcmcvbnMjIiB4bWxuczpkYz0iaHR0cDovL3B1cmwub3JnL2RjL2VsZW1lbnRzLzEuMS8iIHhtbG5zOmlua3NjYXBlPSJodHRwOi8vd3d3Lmlua3NjYXBlLm9yZy9uYW1lc3BhY2VzL2lua3NjYXBlIiB4bWxuczpyZGY9Imh0dHA6Ly93d3cudzMub3JnLzE5OTkvMDIvMjItcmRmLXN5bnRheC1ucyMiIHhtbG5zOnNvZGlwb2RpPSJodHRwOi8vc29kaXBvZGkuc291cmNlZm9yZ2UubmV0L0RURC9zb2RpcG9kaS0wLmR0ZCIgeG1sbnM6c3ZnPSJodHRwOi8vd3d3LnczLm9yZy8yMDAwL3N2ZyIgeG1sbnM9Imh0dHA6Ly93d3cudzMub3JnLzIwMDAvc3ZnIiB4bWxuczp4bGluaz0iaHR0cDovL3d3dy53My5vcmcvMTk5OS94bGluayIgdmVyc2lvbj0iMS4xIiBpZD0ic3ZnMTM4NzI0IiBpbmtzY2FwZTp2ZXJzaW9uPSIwLjkyLjMgKDI0MDU1NDYsIDIwMTgtMDMtMTEpIiBzb2RpcG9kaTpkb2NuYW1lPSJhenVyZV92aXJ0dWFsX21hY2hpbmUuc3ZnIiB4PSIwcHgiIHk9IjBweCIgdmlld0JveD0iMCAwIDgwLjMzIDU5LjA2IiBzdHlsZT0iZW5hYmxlLWJhY2tncm91bmQ6bmV3IDAgMCA4MC4zMyA1OS4wNjsiIHhtbDpzcGFjZT0icHJlc2VydmUiPiYjeGE7PHNvZGlwb2RpOm5hbWVkdmlldyBib3JkZXJjb2xvcj0iIzY2NjY2NiIgYm9yZGVyb3BhY2l0eT0iMSIgZml0LW1hcmdpbi1ib3R0b209IjAiIGZpdC1tYXJnaW4tbGVmdD0iMCIgZml0LW1hcmdpbi1yaWdodD0iMCIgZml0LW1hcmdpbi10b3A9IjAiIGdyaWR0b2xlcmFuY2U9IjEwIiBndWlkZXRvbGVyYW5jZT0iMTAiIGlkPSJuYW1lZHZpZXcxMzg3MjYiIGlua3NjYXBlOmN1cnJlbnQtbGF5ZXI9InN2ZzEzODcyNCIgaW5rc2NhcGU6Y3g9IjUzLjUzMTY3NyIgaW5rc2NhcGU6Y3k9IjM5LjM3MTEzMyIgaW5rc2NhcGU6cGFnZW9wYWNpdHk9IjAiIGlua3NjYXBlOnBhZ2VzaGFkb3c9IjIiIGlua3NjYXBlOndpbmRvdy1oZWlnaHQ9IjEwMTciIGlua3NjYXBlOndpbmRvdy1tYXhpbWl6ZWQ9IjEiIGlua3NjYXBlOndpbmRvdy13aWR0aD0iMTkyMCIgaW5rc2NhcGU6d2luZG93LXg9Ii04IiBpbmtzY2FwZTp3aW5kb3cteT0iLTgiIGlua3NjYXBlOnpvb209IjEwLjczNjY4NyIgb2JqZWN0dG9sZXJhbmNlPSIxMCIgcGFnZWNvbG9yPSIjZmZmZmZmIiBzaG93Z3JpZD0iZmFsc2UiPiYjeGE7CTwvc29kaXBvZGk6bmFtZWR2aWV3PiYjeGE7PGcgaWQ9ImcxMzg3MjIiIHRyYW5zZm9ybT0idHJhbnNsYXRlKC0wLjc2MjAwMjY1LC0wLjc0OTk5NDI3KSI+JiN4YTsJPHRpdGxlIGlkPSJ0aXRsZTEzODY5MiI+UGFnZS0xPC90aXRsZT4mI3hhOwk8ZyBpZD0iZ3JvdXA4NjIyLTEiIHRyYW5zZm9ybT0idHJhbnNsYXRlKDAuNzUwMTI0LC0wLjc1MDkwNikiPiYjeGE7CQk8dGl0bGUgaWQ9InRpdGxlMTM4Njk0Ij5BenVyZSBWaXJ0dWFsIE1hY2hpbmU8L3RpdGxlPiYjeGE7CQk8ZyBpZD0ic2hhcGU4NjIzLTIiIHRyYW5zZm9ybT0idHJhbnNsYXRlKDI2LjUwNDcsLTcuNDc3NSkiPiYjeGE7CQkJPHRpdGxlIGlkPSJ0aXRsZTEzODY5NiI+cGF0aDYyMDM8L3RpdGxlPiYjeGE7CQkJPHBhdGggaWQ9InBhdGgxMzg2OTgiIGlua3NjYXBlOmNvbm5lY3Rvci1jdXJ2YXR1cmU9IjAiIHN0eWxlPSJmaWxsOiNDNkUxRjY7IiBkPSJNNDMuMjIsNjAuNTZIMTQuNjVjLTIuNzMsMC00LjQ2LDAtNS43My0wLjEzICAgICBIOC42N2MtMS0wLjEtMS45OC0wLjM3LTIuOS0wLjhsLTAuMTUtMC4wNmMtNC45MS0yLjMtNy4wMy04LjE1LTQuNzMtMTMuMDZjMS4yNi0yLjY5LDMuNjctNC42Nyw2LjU1LTUuMzggICAgIGMxLjQzLTAuMzQsMi45My0wLjM2LDQuMzctMC4wNmMxLjQ5LTQuMjMsNS40Ny03LjA3LDkuOTUtNy4xMmMxLjYxLTAuMDEsMy4yLDAuMzYsNC42NSwxLjA4YzEuODYtMy4wNSw1LjE3LTQuOTEsOC43NC00LjkyICAgICBjNS4xNiwwLjA5LDkuNSwzLjg5LDEwLjI2LDljNS44NSwxLjM1LDkuNSw3LjIsOC4xNCwxMy4wNWMtMC45NCw0LjA4LTQuMTUsNy4yNS04LjIzLDguMTZDNDQuNjMsNjAuNDgsNDMuOTMsNjAuNTYsNDMuMjIsNjAuNTZ6ICAgICAiLz4mI3hhOwkJPC9nPiYjeGE7CQk8ZyBpZD0ic2hhcGU4NjI0LTQiIHRyYW5zZm9ybT0idHJhbnNsYXRlKDMwLjQ4NTQsLTguODEyNSkiPiYjeGE7CQkJPHRpdGxlIGlkPSJ0aXRsZTEzODcwMSI+cmVjdDYyMDU8L3RpdGxlPiYjeGE7CQkJPHJlY3QgaWQ9InJlY3QxMzg3MDMiIHg9IjAiIHk9IjEwLjMxIiBzdHlsZT0iZmlsbDojMzMzMzMzOyIgd2lkdGg9IjMwLjc1IiBoZWlnaHQ9IjUwLjI1Ii8+JiN4YTsJCTwvZz4mI3hhOwkJPGcgaWQ9InNoYXBlODYyNS02IiB0cmFuc2Zvcm09InRyYW5zbGF0ZSgzNS43MzU0LC00OS4zMTI1KSI+JiN4YTsJCQk8dGl0bGUgaWQ9InRpdGxlMTM4NzA2Ij5yZWN0NjIwNzwvdGl0bGU+JiN4YTsJCQk8cmVjdCBpZD0icmVjdDEzODcwOCIgeD0iMCIgeT0iNTYuMDYiIHN0eWxlPSJmaWxsOiM5MDkwOTA7IiB3aWR0aD0iMjAuMjUiIGhlaWdodD0iNC41Ii8+JiN4YTsJCTwvZz4mI3hhOwkJPGcgaWQ9InNoYXBlODYyNi04IiB0cmFuc2Zvcm09InRyYW5zbGF0ZSgzNS43MzU0LC0zOS41NjI1KSI+JiN4YTsJCQk8dGl0bGUgaWQ9InRpdGxlMTM4NzExIj5yZWN0NjIwOTwvdGl0bGU+JiN4YTsJCQk8cmVjdCBpZD0icmVjdDEzODcxMyIgeD0iMCIgeT0iNTYuMDYiIHN0eWxlPSJmaWxsOiM5MDkwOTA7IiB3aWR0aD0iMjAuMjUiIGhlaWdodD0iNC41Ii8+JiN4YTsJCTwvZz4mI3hhOwkJPGcgaWQ9InNoYXBlODYyNy0xMCI+JiN4YTsJCQk8dGl0bGUgaWQ9InRpdGxlMTM4NzE2Ij5wYXRoNjIxOTwvdGl0bGU+JiN4YTsJCQk8cGF0aCBpZD0icGF0aDEzODcxOCIgaW5rc2NhcGU6Y29ubmVjdG9yLWN1cnZhdHVyZT0iMCIgc3R5bGU9ImZpbGw6I0FBRDJGMjsiIGQ9Ik0xMC40OSw2MC4yOUMzLjI2LDU4LjY2LTEuMjksNTEuNDgsMC4zNCw0NC4yNSAgICAgYzEuMTMtNS4wMiw1LjAzLTguOTUsMTAuMDQtMTAuMTNjMC45NC02LjMsNi4zLTExLDEyLjY3LTExLjFjNC40LDAuMDEsOC40OSwyLjMsMTAuNzksNi4wNmMxLjc3LTAuODgsMy43Mi0xLjM0LDUuNjktMS4zNCAgICAgYzUuNTMsMC4wNSwxMC40NCwzLjU1LDEyLjI5LDguNzZjMS43OC0wLjM4LDMuNjMtMC4zNSw1LjQsMC4wN2M2LjUxLDEuNTksMTAuNDksOC4xNSw4LjksMTQuNjZjLTAuODcsMy41Ny0zLjMyLDYuNTUtNi42NSw4LjExICAgICBsLTAuMTksMC4wOGMtMS4xMywwLjUzLTIuMzUsMC44Ni0zLjU5LDAuOThoLTAuM2MtMS41OCwwLjEzLTMuNzEsMC4xNi03LjA4LDAuMTZIMTMuMDZDMTIuMiw2MC41NywxMS4zMyw2MC40OCwxMC40OSw2MC4yOXoiLz4mI3hhOwkJPC9nPiYjeGE7CTwvZz4mI3hhOzwvZz4mI3hhOzwvc3ZnPg==;" parent="W8AcoZy5W2Z0syqtu2D5-51" vertex="1">
          <mxGeometry x="25" y="90.00000000000045" width="80" height="59" as="geometry" />
        </mxCell>
        <mxCell id="W8AcoZy5W2Z0syqtu2D5-67" value="Azure VM Scale Sets" style="shape=image;verticalLabelPosition=bottom;labelBackgroundColor=#ffffff;verticalAlign=top;aspect=fixed;imageAspect=0;image=data:image/svg+xml,PHN2ZyB4bWxuczpkYz0iaHR0cDovL3B1cmwub3JnL2RjL2VsZW1lbnRzLzEuMS8iIHhtbG5zOmNjPSJodHRwOi8vY3JlYXRpdmVjb21tb25zLm9yZy9ucyMiIHhtbG5zOnJkZj0iaHR0cDovL3d3dy53My5vcmcvMTk5OS8wMi8yMi1yZGYtc3ludGF4LW5zIyIgeG1sbnM6c3ZnPSJodHRwOi8vd3d3LnczLm9yZy8yMDAwL3N2ZyIgeG1sbnM9Imh0dHA6Ly93d3cudzMub3JnLzIwMDAvc3ZnIiB4bWxuczpzb2RpcG9kaT0iaHR0cDovL3NvZGlwb2RpLnNvdXJjZWZvcmdlLm5ldC9EVEQvc29kaXBvZGktMC5kdGQiIHhtbG5zOmlua3NjYXBlPSJodHRwOi8vd3d3Lmlua3NjYXBlLm9yZy9uYW1lc3BhY2VzL2lua3NjYXBlIiB2ZXJzaW9uPSIxLjEiIGlkPSJzdmc2NjA5NiIgaW5rc2NhcGU6dmVyc2lvbj0iMC45Mi4zICgyNDA1NTQ2LCAyMDE4LTAzLTExKSIgc29kaXBvZGk6ZG9jbmFtZT0iYXp1cmVfdm1fc2NhbGVfc2V0LnN2ZyIgeD0iMHB4IiB5PSIwcHgiIHZpZXdCb3g9IjAgMCAzNy41IDM3LjUiIHhtbDpzcGFjZT0icHJlc2VydmUiIHdpZHRoPSIzNy41IiBoZWlnaHQ9IjM3LjUiPjxtZXRhZGF0YSBpZD0ibWV0YWRhdGEyMDk1NyI+PHJkZjpSREY+PGNjOldvcmsgcmRmOmFib3V0PSIiPjxkYzpmb3JtYXQ+aW1hZ2Uvc3ZnK3htbDwvZGM6Zm9ybWF0PjxkYzp0eXBlIHJkZjpyZXNvdXJjZT0iaHR0cDovL3B1cmwub3JnL2RjL2RjbWl0eXBlL1N0aWxsSW1hZ2UiLz48ZGM6dGl0bGUvPjwvY2M6V29yaz48L3JkZjpSREY+PC9tZXRhZGF0YT48ZGVmcyBpZD0iZGVmczIwOTU1Ii8+JiN4YTs8ZmlsdGVyIGlkPSJmaWx0ZXJfMiI+JiN4YTsJPGZlR2F1c3NpYW5CbHVyIGlkPSJmZUdhdXNzaWFuQmx1cjY1OTMzIiBzdGREZXZpYXRpb249IjIiLz4mI3hhOzwvZmlsdGVyPiYjeGE7PHNvZGlwb2RpOm5hbWVkdmlldyBib3JkZXJjb2xvcj0iIzY2NjY2NiIgYm9yZGVyb3BhY2l0eT0iMSIgZml0LW1hcmdpbi1ib3R0b209IjAiIGZpdC1tYXJnaW4tbGVmdD0iMCIgZml0LW1hcmdpbi1yaWdodD0iMCIgZml0LW1hcmdpbi10b3A9IjAiIGdyaWR0b2xlcmFuY2U9IjEwIiBndWlkZXRvbGVyYW5jZT0iMTAiIGlkPSJuYW1lZHZpZXc2NjA5OCIgaW5rc2NhcGU6Y3VycmVudC1sYXllcj0ic3ZnNjYwOTYiIGlua3NjYXBlOmN4PSItNS43MTM2Mjk5IiBpbmtzY2FwZTpjeT0iOC42NTU1MTUzIiBpbmtzY2FwZTpwYWdlb3BhY2l0eT0iMCIgaW5rc2NhcGU6cGFnZXNoYWRvdz0iMiIgaW5rc2NhcGU6d2luZG93LWhlaWdodD0iMTAxNyIgaW5rc2NhcGU6d2luZG93LW1heGltaXplZD0iMSIgaW5rc2NhcGU6d2luZG93LXdpZHRoPSIxOTIwIiBpbmtzY2FwZTp3aW5kb3cteD0iLTgiIGlua3NjYXBlOndpbmRvdy15PSItOCIgaW5rc2NhcGU6em9vbT0iMTAuNTcwMDIyIiBvYmplY3R0b2xlcmFuY2U9IjEwIiBwYWdlY29sb3I9IiNmZmZmZmYiIHNob3dncmlkPSJmYWxzZSI+JiN4YTsJPC9zb2RpcG9kaTpuYW1lZHZpZXc+JiN4YTsmI3hhOzxwYXRoIGlkPSJwYXRoNjU5NDYiIGlua3NjYXBlOmNvbm5lY3Rvci1jdXJ2YXR1cmU9IjAiIHN0eWxlPSJmaWxsOiNhMGExYTIiIGQ9Ik0gMjYuNzksMCBIIDEuNTUgQyAwLjY5LDAgMCwwLjc3IDAsMS42MiBWIDE5LjIgYyAwLDAuODUgMC42OSwxLjYxIDEuNTUsMS42MSBoIDI1LjI0IGMgMC44NiwwIDEuNzIsLTAuNzYgMS43MiwtMS42MSBWIDEuNjIgQyAyOC41MSwwLjc2IDI3LjY1LDAgMjYuNzksMCBaIi8+JiN4YTsmI3hhOzxwYXRoIGlkPSJwYXRoNjU5NTQiIGlua3NjYXBlOmNvbm5lY3Rvci1jdXJ2YXR1cmU9IjAiIHN0eWxlPSJmaWxsOiNmZmZmZmY7ZmlsbC1vcGFjaXR5OjAuMiIgZD0iTSAyNi44MSwwIEMgMjYuOCwwIDI2LjgsMCAyNi43OSwwIEggMS41NSBDIDAuNjksMCAwLDAuNzcgMCwxLjYyIFYgMTkuMiBjIDAsMC44NSAwLjY5LDEuNjEgMS41NSwxLjYxIGggMC42IHoiLz4mI3hhOyYjeGE7PHBhdGggaWQ9InBhdGg2NTk2MiIgaW5rc2NhcGU6Y29ubmVjdG9yLWN1cnZhdHVyZT0iMCIgc3R5bGU9ImZpbGw6IzU5YjRkOSIgZD0iTSAyNi4zNSwxOC42MiBIIDIuMTYgViAyLjE5IEwgMjYuMzUsMi4xNiBaIi8+JiN4YTsmI3hhOzxwYXRoIGlkPSJwYXRoNjU5NzAiIGlua3NjYXBlOmNvbm5lY3Rvci1jdXJ2YXR1cmU9IjAiIHN0eWxlPSJmaWxsOiNiOGQ0MzIiIGQ9Im0gMTQuNTUsMS4yIGMgMCwwLjIyIC0wLjE4LDAuNCAtMC40MSwwLjQgLTAuMjIsMCAtMC40LC0wLjE4IC0wLjQsLTAuNCAwLC0wLjIzIDAuMTgsLTAuNDEgMC40LC0wLjQxIDAuMjMsMCAwLjQxLDAuMTggMC40MSwwLjQxIHoiLz4mI3hhOyYjeGE7PHBhdGggaWQ9InBhdGg2NTk3OCIgaW5rc2NhcGU6Y29ubmVjdG9yLWN1cnZhdHVyZT0iMCIgc3R5bGU9ImZpbGw6I2ZmZmZmZiIgZD0iTSAxNC41Nyw5LjkxIEMgMTQuNTUsOS45MSAxNC41Miw5LjkgMTQuNSw5Ljg5IEwgOS40Nyw2Ljk5IEMgOS40Myw2Ljk3IDkuNCw2LjkyIDkuNCw2Ljg2IDkuNCw2LjgxIDkuNDMsNi43NiA5LjQ3LDYuNzMgbCA1LC0yLjg3IGMgMC4wNCwtMC4wMyAwLjEsLTAuMDMgMC4xNSwwIGwgNS4wMiwyLjg5IGMgMC4wNCwwLjAzIDAuMDcsMC4wOCAwLjA3LDAuMTMgMCwwLjA2IC0wLjAyLDAuMTEgLTAuMDcsMC4xMyBMIDE0LjY1LDkuODkgQyAxNC42Myw5LjkgMTQuNiw5LjkxIDE0LjU3LDkuOTEgWiIvPiYjeGE7JiN4YTs8cGF0aCBpZD0icGF0aDY1OTg2IiBpbmtzY2FwZTpjb25uZWN0b3ItY3VydmF0dXJlPSIwIiBzdHlsZT0iZmlsbDojYTBhMWEyIiBkPSJNIDMxLjI1LDUuNTkgSCA2LjAxIGMgLTAuODYsMCAtMS41NSwwLjc3IC0xLjU1LDEuNjIgdiAxNy41OCBjIDAsMC44NSAwLjY5LDEuNjEgMS41NSwxLjYxIGggMjUuMjQgYyAwLjg2LDAgMS43MiwtMC43NiAxLjcyLC0xLjYxIFYgNy4yMSBjIDAsLTAuODYgLTAuODYsLTEuNjIgLTEuNzIsLTEuNjIgeiIvPiYjeGE7JiN4YTs8cGF0aCBpZD0icGF0aDY1OTk0IiBpbmtzY2FwZTpjb25uZWN0b3ItY3VydmF0dXJlPSIwIiBzdHlsZT0iZmlsbDojZmZmZmZmO2ZpbGwtb3BhY2l0eTowLjIiIGQ9Im0gMzEuMjcsNS41OSBjIC0wLjAxLDAgLTAuMDEsMCAtMC4wMiwwIEggNi4wMSBjIC0wLjg2LDAgLTEuNTUsMC43NyAtMS41NSwxLjYyIHYgMTcuNTggYyAwLDAuODUgMC42OSwxLjYxIDEuNTUsMS42MSBoIDAuNiB6Ii8+JiN4YTsmI3hhOzxwYXRoIGlkPSJwYXRoNjYwMDIiIGlua3NjYXBlOmNvbm5lY3Rvci1jdXJ2YXR1cmU9IjAiIHN0eWxlPSJmaWxsOiM1OWI0ZDkiIGQ9Ik0gMzAuODEsMjQuMjEgSCA2LjYyIFYgNy43OCBMIDMwLjgxLDcuNzUgYyAwLDAgMCwxNi40NiAwLDE2LjQ2IHoiLz4mI3hhOyYjeGE7PHBhdGggaWQ9InBhdGg2NjAxMCIgaW5rc2NhcGU6Y29ubmVjdG9yLWN1cnZhdHVyZT0iMCIgc3R5bGU9ImZpbGw6I2I4ZDQzMiIgZD0ibSAxOS4wMSw2Ljc5IGMgMCwwLjIyIC0wLjE4LDAuNCAtMC40MSwwLjQgLTAuMjIsMCAtMC40LC0wLjE4IC0wLjQsLTAuNCAwLC0wLjIzIDAuMTgsLTAuNDEgMC40LC0wLjQxIDAuMjMsMCAwLjQxLDAuMTggMC40MSwwLjQxIHoiLz4mI3hhOyYjeGE7PHBhdGggaWQ9InBhdGg2NjAxOCIgaW5rc2NhcGU6Y29ubmVjdG9yLWN1cnZhdHVyZT0iMCIgc3R5bGU9ImZpbGw6I2ZmZmZmZiIgZD0ibSAxOS4wMywxNS41IGMgLTAuMDIsMCAtMC4wNSwtMC4wMSAtMC4wNywtMC4wMiBsIC01LjAzLC0yLjkgYyAtMC4wNCwtMC4wMiAtMC4wNywtMC4wNyAtMC4wNywtMC4xMyAwLC0wLjA1IDAuMDMsLTAuMSAwLjA3LC0wLjEzIGwgNSwtMi44NyBjIDAuMDQsLTAuMDMgMC4xLC0wLjAzIDAuMTUsMCBsIDUuMDIsMi44OSBjIDAuMDQsMC4wMyAwLjA3LDAuMDggMC4wNywwLjEzIDAsMC4wNiAtMC4wMiwwLjExIC0wLjA3LDAuMTMgbCAtNC45OSwyLjg4IGMgLTAuMDMsMC4wMSAtMC4wNSwwLjAyIC0wLjA4LDAuMDIgeiIvPiYjeGE7JiN4YTs8cGF0aCBpZD0icGF0aDY2MDI2IiBpbmtzY2FwZTpjb25uZWN0b3ItY3VydmF0dXJlPSIwIiBzdHlsZT0iZmlsbDojN2E3YTdhIiBkPSJNIDI3LjQ4LDMyLjAyIEggMjYuOCAyMC4wNyAxOS43MiBjIDAuOTMsMy4yOSAtMC4zMiwzLjc2IC01LjgsMy43NiB2IDEuNzIgaCA2Ljk3IDUuMDkgNi41OCB2IC0xLjcyIGMgLTUuNDgsMCAtNi4wMiwtMC40NyAtNS4wOCwtMy43NiB6Ii8+JiN4YTsmI3hhOzxwYXRoIGlkPSJwYXRoNjYwMzQiIGlua3NjYXBlOmNvbm5lY3Rvci1jdXJ2YXR1cmU9IjAiIHN0eWxlPSJmaWxsOiNhMGExYTIiIGQ9Ik0gMzUuNzgsMTEuMjIgSCAxMC41NCBjIC0wLjg2LDAgLTEuNTUsMC43NyAtMS41NSwxLjYyIHYgMTcuNTggYyAwLDAuODUgMC42OSwxLjYxIDEuNTUsMS42MSBoIDI1LjI0IGMgMC44NiwwIDEuNzIsLTAuNzYgMS43MiwtMS42MSBWIDEyLjg0IGMgMCwtMC44NSAtMC44NiwtMS42MiAtMS43MiwtMS42MiB6Ii8+JiN4YTsmI3hhOzxwYXRoIGlkPSJwYXRoNjYwNDIiIGlua3NjYXBlOmNvbm5lY3Rvci1jdXJ2YXR1cmU9IjAiIHN0eWxlPSJmaWxsOiNmZmZmZmY7ZmlsbC1vcGFjaXR5OjAuMiIgZD0ibSAzNS43OSwxMS4yMiBjIC0wLjAxLDAgLTAuMDEsMCAtMC4wMiwwIEggMTAuNTMgYyAtMC44NiwwIC0xLjU1LDAuNzcgLTEuNTUsMS42MiB2IDE3LjU4IGMgMCwwLjg1IDAuNjksMS42MSAxLjU1LDEuNjEgaCAwLjYgeiIvPiYjeGE7JiN4YTs8cGF0aCBpZD0icGF0aDY2MDUwIiBpbmtzY2FwZTpjb25uZWN0b3ItY3VydmF0dXJlPSIwIiBzdHlsZT0iZmlsbDojNTliNGQ5IiBkPSJNIDM1LjM0LDI5Ljg0IEggMTEuMTUgViAxMy40MSBsIDI0LjE5LC0wLjAzIHoiLz4mI3hhOyYjeGE7PHJlY3QgaWQ9InJlY3Q2NjA1OCIgeD0iMTMuOTE5OTk4IiB5PSIzNS43Nzk5OTkiIHN0eWxlPSJmaWxsOiNhMGExYTIiIHdpZHRoPSIxOC42Mzk5OTkiIGhlaWdodD0iMS43MiIvPiYjeGE7JiN4YTs8cGF0aCBpZD0icGF0aDY2MDY2IiBpbmtzY2FwZTpjb25uZWN0b3ItY3VydmF0dXJlPSIwIiBzdHlsZT0iZmlsbDojYjhkNDMyIiBkPSJtIDIzLjU0LDEyLjQxIGMgMCwwLjIyIC0wLjE4LDAuNCAtMC40MSwwLjQgLTAuMjIsMCAtMC40LC0wLjE4IC0wLjQsLTAuNCAwLC0wLjIzIDAuMTgsLTAuNDEgMC40LC0wLjQxIDAuMjMsMCAwLjQxLDAuMTggMC40MSwwLjQxIHoiLz4mI3hhOyYjeGE7PHBhdGggaWQ9InBhdGg2NjA3NCIgaW5rc2NhcGU6Y29ubmVjdG9yLWN1cnZhdHVyZT0iMCIgc3R5bGU9ImZpbGw6I2ZmZmZmZiIgZD0ibSAyMy41NSwyMS4xMiBjIC0wLjAyLDAgLTAuMDUsLTAuMDEgLTAuMDcsLTAuMDIgbCAtNS4wMywtMi45IGMgLTAuMDQsLTAuMDIgLTAuMDcsLTAuMDcgLTAuMDcsLTAuMTMgMCwtMC4wNSAwLjAzLC0wLjEgMC4wNywtMC4xMyBsIDUsLTIuODcgYyAwLjA0LC0wLjAzIDAuMSwtMC4wMyAwLjE1LDAgbCA1LjAyLDIuODkgYyAwLjA0LDAuMDMgMC4wNywwLjA4IDAuMDcsMC4xMyAwLDAuMDYgLTAuMDIsMC4xMSAtMC4wNywwLjEzIGwgLTQuOTksMi44OCBjIC0wLjAyLDAuMDEgLTAuMDUsMC4wMiAtMC4wOCwwLjAyIHoiLz4mI3hhOyYjeGE7PHBhdGggaWQ9InBhdGg2NjA4MiIgaW5rc2NhcGU6Y29ubmVjdG9yLWN1cnZhdHVyZT0iMCIgc3R5bGU9ImZpbGw6I2ZmZmZmZjtmaWxsLW9wYWNpdHk6MC43IiBkPSJtIDIyLjgzLDI4LjE2IGMgLTAuMDMsMCAtMC4wNSwtMC4wMSAtMC4wOCwtMC4wMiBsIC01LC0yLjg5IEMgMTcuNywyNS4yMyAxNy42NywyNS4xOCAxNy42NywyNS4xMiB2IC01Ljc5IGMgMCwtMC4wNSAwLjAzLC0wLjEgMC4wOCwtMC4xMyAwLjA0LC0wLjAzIDAuMSwtMC4wMyAwLjE1LDAgbCA1LjAxLDIuODkgYyAwLjA0LDAuMDMgMC4wNywwLjA3IDAuMDcsMC4xMyB2IDUuNzkgYyAwLDAuMDUgLTAuMDMsMC4xIC0wLjA3LDAuMTMgLTAuMDMsMC4wMSAtMC4wNSwwLjAyIC0wLjA4LDAuMDIgeiIvPiYjeGE7JiN4YTs8cGF0aCBpZD0icGF0aDY2MDkwIiBpbmtzY2FwZTpjb25uZWN0b3ItY3VydmF0dXJlPSIwIiBzdHlsZT0iZmlsbDojZmZmZmZmO2ZpbGwtb3BhY2l0eTowLjQiIGQ9Im0gMjQuMjUsMjguMTYgYyAtMC4wMywwIC0wLjA1LC0wLjAxIC0wLjA4LC0wLjAyIC0wLjA0LC0wLjAzIC0wLjA3LC0wLjA4IC0wLjA3LC0wLjEzIHYgLTUuNzYgYyAwLC0wLjA1IDAuMDMsLTAuMSAwLjA3LC0wLjEzIGwgNS4wMSwtMi44OCBjIDAuMDUsLTAuMDMgMC4xLC0wLjAzIDAuMTUsMCAwLjA1LDAuMDMgMC4wOCwwLjA4IDAuMDgsMC4xMyB2IDUuNzUgYyAwLDAuMDYgLTAuMDMsMC4xMSAtMC4wOCwwLjE0IGwgLTUsMi44OCBjIC0wLjAzLDAuMDEgLTAuMDUsMC4wMiAtMC4wOCwwLjAyIHoiLz4mI3hhOzwvc3ZnPg==;" parent="W8AcoZy5W2Z0syqtu2D5-51" vertex="1">
          <mxGeometry x="181" y="65" width="84" height="84" as="geometry" />
        </mxCell>
        <mxCell id="W8AcoZy5W2Z0syqtu2D5-65" value="" style="group" parent="1" vertex="1" connectable="0">
          <mxGeometry x="-1183.25" y="205" width="220" height="160" as="geometry" />
        </mxCell>
        <mxCell id="W8AcoZy5W2Z0syqtu2D5-62" value="" style="rounded=0;whiteSpace=wrap;html=1;" parent="W8AcoZy5W2Z0syqtu2D5-65" vertex="1">
          <mxGeometry width="220" height="160" as="geometry" />
        </mxCell>
        <mxCell id="W8AcoZy5W2Z0syqtu2D5-61" value="Azure Files" style="image;aspect=fixed;html=1;points=[];align=center;fontSize=12;image=img/lib/azure2/general/Storage_Azure_Files.svg;" parent="W8AcoZy5W2Z0syqtu2D5-65" vertex="1">
          <mxGeometry x="20" y="48.5" width="64" height="52" as="geometry" />
        </mxCell>
        <mxCell id="W8AcoZy5W2Z0syqtu2D5-63" value="&lt;b&gt;Backup Services&lt;/b&gt;" style="text;html=1;align=center;verticalAlign=middle;whiteSpace=wrap;rounded=0;" parent="W8AcoZy5W2Z0syqtu2D5-65" vertex="1">
          <mxGeometry x="40" y="11.5" width="130" height="30" as="geometry" />
        </mxCell>
        <mxCell id="W8AcoZy5W2Z0syqtu2D5-64" value="Azure Blob Storage" style="shape=image;verticalLabelPosition=bottom;labelBackgroundColor=#ffffff;verticalAlign=top;aspect=fixed;imageAspect=0;image=data:image/svg+xml,PHN2ZyB4bWxuczpjYz0iaHR0cDovL2NyZWF0aXZlY29tbW9ucy5vcmcvbnMjIiB4bWxuczpkYz0iaHR0cDovL3B1cmwub3JnL2RjL2VsZW1lbnRzLzEuMS8iIHhtbG5zOmlua3NjYXBlPSJodHRwOi8vd3d3Lmlua3NjYXBlLm9yZy9uYW1lc3BhY2VzL2lua3NjYXBlIiB4bWxuczpyZGY9Imh0dHA6Ly93d3cudzMub3JnLzE5OTkvMDIvMjItcmRmLXN5bnRheC1ucyMiIHhtbG5zOnNvZGlwb2RpPSJodHRwOi8vc29kaXBvZGkuc291cmNlZm9yZ2UubmV0L0RURC9zb2RpcG9kaS0wLmR0ZCIgeG1sbnM6c3ZnPSJodHRwOi8vd3d3LnczLm9yZy8yMDAwL3N2ZyIgeG1sbnM9Imh0dHA6Ly93d3cudzMub3JnLzIwMDAvc3ZnIiB4bWxuczp4bGluaz0iaHR0cDovL3d3dy53My5vcmcvMTk5OS94bGluayIgdmVyc2lvbj0iMS4xIiBpZD0ic3ZnMTA5Mjk0IiBpbmtzY2FwZTp2ZXJzaW9uPSIwLjkyLjMgKDI0MDU1NDYsIDIwMTgtMDMtMTEpIiBzb2RpcG9kaTpkb2NuYW1lPSJhenVyZV9ibG9iX3N0b3JhZ2Uuc3ZnIiB4PSIwcHgiIHk9IjBweCIgdmlld0JveD0iMCAwIDc2LjQyIDY2LjMiIHN0eWxlPSJlbmFibGUtYmFja2dyb3VuZDpuZXcgMCAwIDc2LjQyIDY2LjM7IiB4bWw6c3BhY2U9InByZXNlcnZlIj4mI3hhOzxzb2RpcG9kaTpuYW1lZHZpZXcgYm9yZGVyY29sb3I9IiM2NjY2NjYiIGJvcmRlcm9wYWNpdHk9IjEiIGZpdC1tYXJnaW4tYm90dG9tPSIwIiBmaXQtbWFyZ2luLWxlZnQ9IjAiIGZpdC1tYXJnaW4tcmlnaHQ9IjAiIGZpdC1tYXJnaW4tdG9wPSIwIiBncmlkdG9sZXJhbmNlPSIxMCIgZ3VpZGV0b2xlcmFuY2U9IjEwIiBpZD0ibmFtZWR2aWV3MTA5Mjk2IiBpbmtzY2FwZTpjdXJyZW50LWxheWVyPSJzdmcxMDkyOTQiIGlua3NjYXBlOmN4PSI1MC45NDUxOTMiIGlua3NjYXBlOmN5PSI0NC4xOTk1NTEiIGlua3NjYXBlOnBhZ2VvcGFjaXR5PSIwIiBpbmtzY2FwZTpwYWdlc2hhZG93PSIyIiBpbmtzY2FwZTp3aW5kb3ctaGVpZ2h0PSIxMDE3IiBpbmtzY2FwZTp3aW5kb3ctbWF4aW1pemVkPSIxIiBpbmtzY2FwZTp3aW5kb3ctd2lkdGg9IjE5MjAiIGlua3NjYXBlOndpbmRvdy14PSItOCIgaW5rc2NhcGU6d2luZG93LXk9Ii04IiBpbmtzY2FwZTp6b29tPSI4Ljc0NjA0MTEiIG9iamVjdHRvbGVyYW5jZT0iMTAiIHBhZ2Vjb2xvcj0iI2ZmZmZmZiIgc2hvd2dyaWQ9ImZhbHNlIj4mI3hhOwk8L3NvZGlwb2RpOm5hbWVkdmlldz4mI3hhOzxnIGlkPSJnMTA5MjkyIiB0cmFuc2Zvcm09InRyYW5zbGF0ZSgtNC4wMjYzMiwtNC4wMjM4NzY1KSI+JiN4YTsJPHRpdGxlIGlkPSJ0aXRsZTEwOTI2NCI+UGFnZS0xPC90aXRsZT4mI3hhOwk8ZyBpZD0iZ3JvdXAyNjQtMSIgdHJhbnNmb3JtPSJ0cmFuc2xhdGUoNC4wMjYzMiwtNC4wMjYzMikiPiYjeGE7CQk8dGl0bGUgaWQ9InRpdGxlMTA5MjY2Ij5BenVyZSBCbG9iIFN0b3JhZ2UgKERlcHJlY2F0ZWQpPC90aXRsZT4mI3hhOwkJPGcgaWQ9Imdyb3VwMjY1LTIiPiYjeGE7CQkJPHRpdGxlIGlkPSJ0aXRsZTEwOTI2OCI+U2hlZXQuMjY1PC90aXRsZT4mI3hhOwkJCTxnIGlkPSJzaGFwZTI2Ni0zIj4mI3hhOwkJCQk8dGl0bGUgaWQ9InRpdGxlMTA5MjcwIj5TaGVldC4yNjY8L3RpdGxlPiYjeGE7CQkJCTxwYXRoIGlkPSJwYXRoMTA5MjcyIiBpbmtzY2FwZTpjb25uZWN0b3ItY3VydmF0dXJlPSIwIiBzdHlsZT0iZmlsbDojMDA3OEQ3OyIgZD0iTTU3LjM2LDguMDVIMTkuMDVMMCw0MS4ybDE5LjA1LDMzLjE1aDM4LjMxICAgICAgTDc2LjQyLDQxLjJMNTcuMzYsOC4wNXogTTU3LjU2LDU2LjA5YzAsMi43OC0yLjM4LDUuMTYtNS4xNiw1LjE2SDI0LjIyYy0yLjc4LDAtNS4xNy0yLjM4LTUuMTctNS4xNlYyNi41MSAgICAgIGMwLTIuNzgsMi4zOS01LjE2LDUuMTctNS4xNmgyMC44NGMxLjk4LDAsMy45NywwLDMuOTcsMGgwLjU5bDcuOTQsNy45NHY0LjE3TDU3LjU2LDU2LjA5eiIvPiYjeGE7CQkJPC9nPiYjeGE7CQkJPGcgaWQ9InNoYXBlMjY3LTUiIHRyYW5zZm9ybT0idHJhbnNsYXRlKDMyLjE1NTEsLTIxLjQzNjgpIj4mI3hhOwkJCQk8dGl0bGUgaWQ9InRpdGxlMTA5Mjc1Ij5TaGVldC4yNjc8L3RpdGxlPiYjeGE7CQkJCTxwYXRoIGlkPSJwYXRoMTA5Mjc3IiBpbmtzY2FwZTpjb25uZWN0b3ItY3VydmF0dXJlPSIwIiBzdHlsZT0iZmlsbDojMDA3OEQ3OyIgZD0iTTMuMTgsNjhjMC0wLjQtMC4yLTAuNi0wLjItMC44ICAgICAgYzAtMC4yLTAuMi0wLjM5LTAuNC0wLjU5cy0wLjItMC4yLTAuNC0wLjJzLTAuMzksMC0wLjU5LDBjLTAuNCwwLTAuNiwwLTAuOCwwLjJDMC42LDY2LjgxLDAuNCw2NywwLjIsNjcuNFMwLDY4LjE5LDAsNjguNTkgICAgICBjMCwwLjQsMCwwLjk5LDAsMS43OWMwLDAuNzksMCwxLjM5LDAsMS45OGMwLDAuNiwwLjIsMSwwLjQsMS4xOWMwLjIsMC40LDAuMzksMC42LDAuNTksMC42YzAuMiwwLjIsMC40LDAuMiwwLjgsMC4yICAgICAgYzAuMTksMCwwLjM5LDAsMC41OS0wLjJjMC4yLDAsMC40LTAuMiwwLjQtMC40YzAuMi0wLjIsMC4yLTAuMzksMC40LTAuNTljMC0wLjIsMC4xOS0wLjQsMC4xOS0wLjhjMC0wLjIsMC0wLjU5LDAuMi0wLjk5ICAgICAgYzAtMC40LDAtMC43OSwwLTEuMTljMC0wLjYsMC0wLjk5LDAtMS4zOUMzLjE4LDY4LjU5LDMuMTgsNjguMzksMy4xOCw2OHoiLz4mI3hhOwkJCTwvZz4mI3hhOwkJCTxnIGlkPSJzaGFwZTI2OC03IiB0cmFuc2Zvcm09InRyYW5zbGF0ZSg0MS4wODcxLC0zNi45MTg5KSI+JiN4YTsJCQkJPHRpdGxlIGlkPSJ0aXRsZTEwOTI4MCI+U2hlZXQuMjY4PC90aXRsZT4mI3hhOwkJCQk8cGF0aCBpZD0icGF0aDEwOTI4MiIgaW5rc2NhcGU6Y29ubmVjdG9yLWN1cnZhdHVyZT0iMCIgc3R5bGU9ImZpbGw6IzAwNzhENzsiIGQ9Ik0zLjE4LDY4YzAtMC40LTAuMi0wLjYtMC4yLTAuOCAgICAgIGMwLTAuMi0wLjItMC4zOS0wLjQtMC41OXMtMC4yLTAuMi0wLjQtMC4ycy0wLjM5LDAtMC41OSwwYy0wLjQsMC0wLjYsMC0wLjgsMC4yQzAuNiw2Ni44MSwwLjQsNjcsMC4yLDY3LjRTMCw2OC4xOSwwLDY4LjU5ICAgICAgYzAsMC40LDAsMC45OSwwLDEuNzljMCwwLjc5LDAsMS4zOSwwLDEuOThjMCwwLjYsMC4yLDEsMC40LDEuMTljMC4yLDAuNCwwLjM5LDAuNiwwLjU5LDAuNmMwLjIsMC4yLDAuNCwwLjIsMC44LDAuMiAgICAgIGMwLjE5LDAsMC4zOSwwLDAuNTktMC4yYzAuMiwwLDAuNC0wLjIsMC40LTAuNGMwLjItMC4yLDAuMi0wLjM5LDAuNC0wLjU5YzAtMC4yLDAuMTktMC40LDAuMTktMC44YzAtMC4yLDAtMC41OSwwLjItMC45OSAgICAgIGMwLTAuNCwwLTAuNzksMC0xLjE5YzAtMC42LDAtMC45OSwwLTEuMzlDMy4zNyw2OC43OSwzLjM3LDY4LjM5LDMuMTgsNjh6Ii8+JiN4YTsJCQk8L2c+JiN4YTsJCQk8ZyBpZD0ic2hhcGUyNjktOSIgdHJhbnNmb3JtPSJ0cmFuc2xhdGUoMjEuODMzNywtMTUuODc5MSkiPiYjeGE7CQkJCTx0aXRsZSBpZD0idGl0bGUxMDkyODUiPlNoZWV0LjI2OTwvdGl0bGU+JiN4YTsJCQkJPHBhdGggaWQ9InBhdGgxMDkyODciIGlua3NjYXBlOmNvbm5lY3Rvci1jdXJ2YXR1cmU9IjAiIHN0eWxlPSJmaWxsOiMwMDc4RDc7IiBkPSJNMjYuNCw0MC4wMWMtMC43OSwwLTEuOTksMC0zLjE4LDBIMi4zOCAgICAgIEMwLjk5LDQwLjAxLDAsNDEsMCw0Mi4zOXYyOS41OGMwLDEuMzksMC45OSwyLjM4LDIuMzgsMi4zOGgyOC4xOWMxLjE5LDAsMi4zOC0wLjk5LDIuMzgtMi4zOFY0Ni41NkgyNi42di02LjU1SDI2LjR6ICAgICAgIE04LjczLDQ1Ljk2di0wLjE5di0wLjJjMCwwLDAsMCwwLjItMC4ybDIuMzgtMS41OWMwLDAsMCwwLDAuMiwwaDAuMmgwLjJjMC4yLDAsMC4yLDAsMC40LDBjMC4xOSwwLDAuMzksMCwwLjU5LDBzMC4yLDAsMC40LDAgICAgICBoMC4yYzAsMCwwLDAsMCwwLjJ2OS4zM2gxLjc4aDAuMmMwLDAsMCwwLDAuMiwwLjJjMC4yLDAuMTksMCwwLjE5LDAsMC4xOWMwLDAuMiwwLDAuMiwwLDAuNHMwLDAuNCwwLDAuNGMwLDAuMiwwLDAuMiwwLDAuMiAgICAgIHMwLDAuMi0wLjIsMC4yYzAsMCwwLDAtMC4yLDBIOS4xM2MwLDAsMCwwLTAuMiwwYzAsMCwwLDAtMC4yLTAuMnYtMC4yYzAtMC4yLDAtMC4yLDAtMC40czAtMC40LDAtMC40YzAtMC4xOSwwLTAuMTksMC0wLjE5ICAgICAgczAtMC4yLDAuMi0wLjJjMCwwLDAsMCwwLjIsMGgyLjE4di03LjM1bC0xLjc4LDFjLTAuMiwwLTAuMiwwLjE5LTAuNCwwLjE5aC0wLjJjMCwwLDAtMC4xOS0wLjItMC4xOWMwLTAuMiwwLTAuMiwwLTAuNiAgICAgIEM4LjczLDQ2LjE2LDguNzMsNDUuOTYsOC43Myw0NS45NnogTTE1LjY4LDY3LjJjLTAuMiwwLjgtMC40LDEuMzktMC43OSwxLjc5Yy0wLjQsMC41OS0wLjgsMC45OS0xLjE5LDEuMTkgICAgICBjLTAuNiwwLjItMS4yLDAuNC0xLjk5LDAuNHMtMS4zOS0wLjItMS45OC0wLjRjLTAuNi0wLjItMS0wLjYtMS4xOS0xLjE5Yy0wLjItMC42LTAuNi0xLjE5LTAuNi0xLjc5ICAgICAgYy0wLjItMC43OS0wLjItMS41OS0wLjItMi4zOGMwLTAuOTksMC0xLjc5LDAuMi0yLjM4YzAuMi0wLjgsMC40LTEuMzksMC43OS0xLjc5YzAuNC0wLjM5LDAuOC0wLjk5LDEuMTktMS4xOSAgICAgIGMwLjYtMC4yLDEuMi0wLjQsMS45OS0wLjRzMS4zOSwwLjIsMS45OCwwLjRjMC42LDAuMiwxLDAuNiwxLjIsMS4xOWMwLjE5LDAuNiwwLjU5LDEuMTksMC41OSwxLjc5YzAuMiwwLjc5LDAuMiwxLjU5LDAuMiwyLjM4ICAgICAgQzE1Ljg4LDY1LjgxLDE1Ljg4LDY2LjYxLDE1LjY4LDY3LjJ6IE0yNC42MSw2OS45OGMwLDAuMiwwLDAuMiwwLDAuMnMwLDAuMi0wLjIsMC4yYzAsMCwwLDAtMC4xOSwwaC02LjE2YzAsMCwwLDAtMC4yLDAgICAgICBjMCwwLDAsMC0wLjE5LTAuMnYtMC4yYzAtMC4yLDAtMC4yLDAtMC40YzAtMC4xOSwwLTAuMzksMC0wLjM5YzAtMC4yLDAtMC4yLDAtMC4yczAtMC4yLDAuMTktMC4yYzAsMCwwLDAsMC4yLDBoMi4xOXYtNy4zNCAgICAgIGwtMS43OSwwLjk5Yy0wLjIsMC0wLjIsMC4yLTAuNCwwLjJoLTAuMmMwLDAsMC0wLjItMC4xOS0wLjJjMC0wLjIsMC0wLjIsMC0wLjZjMC0wLjIsMC0wLjIsMC0wLjM5di0wLjJ2LTAuMmMwLDAsMCwwLDAuMTktMC4yICAgICAgbDIuMzktMS41OWMwLDAsMCwwLDAuMTksMGgwLjJoMC4yYzAuMiwwLDAuMiwwLDAuNCwwYzAuMiwwLDAuNCwwLDAuNTksMGMwLjIsMCwwLjIsMCwwLjQsMGgwLjJjMCwwLDAsMCwwLDAuMnY5LjMzaDEuNzloMC4xOSAgICAgIGMwLDAsMCwwLDAuMiwwLjJ2MC4yYzAsMC4yLDAsMC4yLDAsMC4zOUMyNC42MSw2OS43OCwyNC42MSw2OS45OCwyNC42MSw2OS45OHogTTI0LjgxLDUxLjcyYy0wLjIsMC43OS0wLjQsMS4zOS0wLjc5LDEuNzkgICAgICBjLTAuNCwwLjU5LTAuOCwwLjk5LTEuMTksMS4xOWMtMC42LDAuMi0xLjE5LDAuMzktMS45OSwwLjM5Yy0wLjc5LDAtMS4zOS0wLjE5LTEuOTgtMC4zOWMtMC42LTAuMi0xLTAuNi0xLjE5LTEuMTkgICAgICBjLTAuMi0wLjQtMC42LTEuMTktMC42LTEuNzljMC0wLjYtMC4yLTEuNTktMC4yLTIuMzhjMC0wLjk5LDAtMS43OSwwLjItMi4zOGMwLjItMC44LDAuNC0xLjM5LDAuNzktMS43OSAgICAgIGMwLjQtMC42LDAuOC0wLjk5LDEuMTktMS4xOWMwLjYtMC4yLDEuMi0wLjQsMS45OS0wLjRjMC43OSwwLDEuMzksMC4yLDEuOTgsMC40YzAuNiwwLjIsMSwwLjU5LDEuMiwxLjE5ICAgICAgYzAuMTksMC42LDAuNTksMS4xOSwwLjU5LDEuNzljMC4yLDAuNzksMC4yLDEuNTgsMC4yLDIuMzhDMjUuMDEsNTAuMzMsMjQuODEsNTEuMTIsMjQuODEsNTEuNzJ6Ii8+JiN4YTsJCQk8L2c+JiN4YTsJCTwvZz4mI3hhOwk8L2c+JiN4YTs8L2c+JiN4YTs8L3N2Zz4=;" parent="W8AcoZy5W2Z0syqtu2D5-65" vertex="1">
          <mxGeometry x="120" y="41.5" width="76" height="66" as="geometry" />
        </mxCell>
        <mxCell id="W8AcoZy5W2Z0syqtu2D5-74" value="" style="group" parent="1" vertex="1" connectable="0">
          <mxGeometry x="-120" y="990" width="240" height="140" as="geometry" />
        </mxCell>
        <mxCell id="W8AcoZy5W2Z0syqtu2D5-69" value="" style="rounded=0;whiteSpace=wrap;html=1;align=left;" parent="W8AcoZy5W2Z0syqtu2D5-74" vertex="1">
          <mxGeometry width="230" height="140" as="geometry" />
        </mxCell>
        <mxCell id="W8AcoZy5W2Z0syqtu2D5-70" value="&lt;b&gt;SCM&lt;/b&gt;" style="text;html=1;align=center;verticalAlign=middle;whiteSpace=wrap;rounded=0;" parent="W8AcoZy5W2Z0syqtu2D5-74" vertex="1">
          <mxGeometry y="5.5" width="240" height="30" as="geometry" />
        </mxCell>
        <mxCell id="W8AcoZy5W2Z0syqtu2D5-71" value="" style="shape=image;verticalLabelPosition=bottom;labelBackgroundColor=#ffffff;verticalAlign=top;aspect=fixed;imageAspect=0;image=data:image/svg+xml,PHN2ZyB4bWxuczpjYz0iaHR0cDovL2NyZWF0aXZlY29tbW9ucy5vcmcvbnMjIiB4bWxuczpkYz0iaHR0cDovL3B1cmwub3JnL2RjL2VsZW1lbnRzLzEuMS8iIHhtbG5zOmlua3NjYXBlPSJodHRwOi8vd3d3Lmlua3NjYXBlLm9yZy9uYW1lc3BhY2VzL2lua3NjYXBlIiB4bWxuczpyZGY9Imh0dHA6Ly93d3cudzMub3JnLzE5OTkvMDIvMjItcmRmLXN5bnRheC1ucyMiIHhtbG5zOnNvZGlwb2RpPSJodHRwOi8vc29kaXBvZGkuc291cmNlZm9yZ2UubmV0L0RURC9zb2RpcG9kaS0wLmR0ZCIgeG1sbnM6c3ZnPSJodHRwOi8vd3d3LnczLm9yZy8yMDAwL3N2ZyIgeG1sbnM9Imh0dHA6Ly93d3cudzMub3JnLzIwMDAvc3ZnIiB4bWxuczp4bGluaz0iaHR0cDovL3d3dy53My5vcmcvMTk5OS94bGluayIgdmVyc2lvbj0iMS4xIiBpZD0ic3ZnMTM4NzI0IiBpbmtzY2FwZTp2ZXJzaW9uPSIwLjkyLjMgKDI0MDU1NDYsIDIwMTgtMDMtMTEpIiBzb2RpcG9kaTpkb2NuYW1lPSJhenVyZV92aXJ0dWFsX21hY2hpbmUuc3ZnIiB4PSIwcHgiIHk9IjBweCIgdmlld0JveD0iMCAwIDgwLjMzIDU5LjA2IiBzdHlsZT0iZW5hYmxlLWJhY2tncm91bmQ6bmV3IDAgMCA4MC4zMyA1OS4wNjsiIHhtbDpzcGFjZT0icHJlc2VydmUiPiYjeGE7PHNvZGlwb2RpOm5hbWVkdmlldyBib3JkZXJjb2xvcj0iIzY2NjY2NiIgYm9yZGVyb3BhY2l0eT0iMSIgZml0LW1hcmdpbi1ib3R0b209IjAiIGZpdC1tYXJnaW4tbGVmdD0iMCIgZml0LW1hcmdpbi1yaWdodD0iMCIgZml0LW1hcmdpbi10b3A9IjAiIGdyaWR0b2xlcmFuY2U9IjEwIiBndWlkZXRvbGVyYW5jZT0iMTAiIGlkPSJuYW1lZHZpZXcxMzg3MjYiIGlua3NjYXBlOmN1cnJlbnQtbGF5ZXI9InN2ZzEzODcyNCIgaW5rc2NhcGU6Y3g9IjUzLjUzMTY3NyIgaW5rc2NhcGU6Y3k9IjM5LjM3MTEzMyIgaW5rc2NhcGU6cGFnZW9wYWNpdHk9IjAiIGlua3NjYXBlOnBhZ2VzaGFkb3c9IjIiIGlua3NjYXBlOndpbmRvdy1oZWlnaHQ9IjEwMTciIGlua3NjYXBlOndpbmRvdy1tYXhpbWl6ZWQ9IjEiIGlua3NjYXBlOndpbmRvdy13aWR0aD0iMTkyMCIgaW5rc2NhcGU6d2luZG93LXg9Ii04IiBpbmtzY2FwZTp3aW5kb3cteT0iLTgiIGlua3NjYXBlOnpvb209IjEwLjczNjY4NyIgb2JqZWN0dG9sZXJhbmNlPSIxMCIgcGFnZWNvbG9yPSIjZmZmZmZmIiBzaG93Z3JpZD0iZmFsc2UiPiYjeGE7CTwvc29kaXBvZGk6bmFtZWR2aWV3PiYjeGE7PGcgaWQ9ImcxMzg3MjIiIHRyYW5zZm9ybT0idHJhbnNsYXRlKC0wLjc2MjAwMjY1LC0wLjc0OTk5NDI3KSI+JiN4YTsJPHRpdGxlIGlkPSJ0aXRsZTEzODY5MiI+UGFnZS0xPC90aXRsZT4mI3hhOwk8ZyBpZD0iZ3JvdXA4NjIyLTEiIHRyYW5zZm9ybT0idHJhbnNsYXRlKDAuNzUwMTI0LC0wLjc1MDkwNikiPiYjeGE7CQk8dGl0bGUgaWQ9InRpdGxlMTM4Njk0Ij5BenVyZSBWaXJ0dWFsIE1hY2hpbmU8L3RpdGxlPiYjeGE7CQk8ZyBpZD0ic2hhcGU4NjIzLTIiIHRyYW5zZm9ybT0idHJhbnNsYXRlKDI2LjUwNDcsLTcuNDc3NSkiPiYjeGE7CQkJPHRpdGxlIGlkPSJ0aXRsZTEzODY5NiI+cGF0aDYyMDM8L3RpdGxlPiYjeGE7CQkJPHBhdGggaWQ9InBhdGgxMzg2OTgiIGlua3NjYXBlOmNvbm5lY3Rvci1jdXJ2YXR1cmU9IjAiIHN0eWxlPSJmaWxsOiNDNkUxRjY7IiBkPSJNNDMuMjIsNjAuNTZIMTQuNjVjLTIuNzMsMC00LjQ2LDAtNS43My0wLjEzICAgICBIOC42N2MtMS0wLjEtMS45OC0wLjM3LTIuOS0wLjhsLTAuMTUtMC4wNmMtNC45MS0yLjMtNy4wMy04LjE1LTQuNzMtMTMuMDZjMS4yNi0yLjY5LDMuNjctNC42Nyw2LjU1LTUuMzggICAgIGMxLjQzLTAuMzQsMi45My0wLjM2LDQuMzctMC4wNmMxLjQ5LTQuMjMsNS40Ny03LjA3LDkuOTUtNy4xMmMxLjYxLTAuMDEsMy4yLDAuMzYsNC42NSwxLjA4YzEuODYtMy4wNSw1LjE3LTQuOTEsOC43NC00LjkyICAgICBjNS4xNiwwLjA5LDkuNSwzLjg5LDEwLjI2LDljNS44NSwxLjM1LDkuNSw3LjIsOC4xNCwxMy4wNWMtMC45NCw0LjA4LTQuMTUsNy4yNS04LjIzLDguMTZDNDQuNjMsNjAuNDgsNDMuOTMsNjAuNTYsNDMuMjIsNjAuNTZ6ICAgICAiLz4mI3hhOwkJPC9nPiYjeGE7CQk8ZyBpZD0ic2hhcGU4NjI0LTQiIHRyYW5zZm9ybT0idHJhbnNsYXRlKDMwLjQ4NTQsLTguODEyNSkiPiYjeGE7CQkJPHRpdGxlIGlkPSJ0aXRsZTEzODcwMSI+cmVjdDYyMDU8L3RpdGxlPiYjeGE7CQkJPHJlY3QgaWQ9InJlY3QxMzg3MDMiIHg9IjAiIHk9IjEwLjMxIiBzdHlsZT0iZmlsbDojMzMzMzMzOyIgd2lkdGg9IjMwLjc1IiBoZWlnaHQ9IjUwLjI1Ii8+JiN4YTsJCTwvZz4mI3hhOwkJPGcgaWQ9InNoYXBlODYyNS02IiB0cmFuc2Zvcm09InRyYW5zbGF0ZSgzNS43MzU0LC00OS4zMTI1KSI+JiN4YTsJCQk8dGl0bGUgaWQ9InRpdGxlMTM4NzA2Ij5yZWN0NjIwNzwvdGl0bGU+JiN4YTsJCQk8cmVjdCBpZD0icmVjdDEzODcwOCIgeD0iMCIgeT0iNTYuMDYiIHN0eWxlPSJmaWxsOiM5MDkwOTA7IiB3aWR0aD0iMjAuMjUiIGhlaWdodD0iNC41Ii8+JiN4YTsJCTwvZz4mI3hhOwkJPGcgaWQ9InNoYXBlODYyNi04IiB0cmFuc2Zvcm09InRyYW5zbGF0ZSgzNS43MzU0LC0zOS41NjI1KSI+JiN4YTsJCQk8dGl0bGUgaWQ9InRpdGxlMTM4NzExIj5yZWN0NjIwOTwvdGl0bGU+JiN4YTsJCQk8cmVjdCBpZD0icmVjdDEzODcxMyIgeD0iMCIgeT0iNTYuMDYiIHN0eWxlPSJmaWxsOiM5MDkwOTA7IiB3aWR0aD0iMjAuMjUiIGhlaWdodD0iNC41Ii8+JiN4YTsJCTwvZz4mI3hhOwkJPGcgaWQ9InNoYXBlODYyNy0xMCI+JiN4YTsJCQk8dGl0bGUgaWQ9InRpdGxlMTM4NzE2Ij5wYXRoNjIxOTwvdGl0bGU+JiN4YTsJCQk8cGF0aCBpZD0icGF0aDEzODcxOCIgaW5rc2NhcGU6Y29ubmVjdG9yLWN1cnZhdHVyZT0iMCIgc3R5bGU9ImZpbGw6I0FBRDJGMjsiIGQ9Ik0xMC40OSw2MC4yOUMzLjI2LDU4LjY2LTEuMjksNTEuNDgsMC4zNCw0NC4yNSAgICAgYzEuMTMtNS4wMiw1LjAzLTguOTUsMTAuMDQtMTAuMTNjMC45NC02LjMsNi4zLTExLDEyLjY3LTExLjFjNC40LDAuMDEsOC40OSwyLjMsMTAuNzksNi4wNmMxLjc3LTAuODgsMy43Mi0xLjM0LDUuNjktMS4zNCAgICAgYzUuNTMsMC4wNSwxMC40NCwzLjU1LDEyLjI5LDguNzZjMS43OC0wLjM4LDMuNjMtMC4zNSw1LjQsMC4wN2M2LjUxLDEuNTksMTAuNDksOC4xNSw4LjksMTQuNjZjLTAuODcsMy41Ny0zLjMyLDYuNTUtNi42NSw4LjExICAgICBsLTAuMTksMC4wOGMtMS4xMywwLjUzLTIuMzUsMC44Ni0zLjU5LDAuOThoLTAuM2MtMS41OCwwLjEzLTMuNzEsMC4xNi03LjA4LDAuMTZIMTMuMDZDMTIuMiw2MC41NywxMS4zMyw2MC40OCwxMC40OSw2MC4yOXoiLz4mI3hhOwkJPC9nPiYjeGE7CTwvZz4mI3hhOzwvZz4mI3hhOzwvc3ZnPg==;" parent="W8AcoZy5W2Z0syqtu2D5-74" vertex="1">
          <mxGeometry x="5" y="35.500000000000455" width="80" height="59" as="geometry" />
        </mxCell>
        <mxCell id="W8AcoZy5W2Z0syqtu2D5-72" value="" style="shape=image;verticalLabelPosition=bottom;labelBackgroundColor=#ffffff;verticalAlign=top;aspect=fixed;imageAspect=0;image=data:image/svg+xml,PHN2ZyB4bWxuczpkYz0iaHR0cDovL3B1cmwub3JnL2RjL2VsZW1lbnRzLzEuMS8iIHhtbG5zOmNjPSJodHRwOi8vY3JlYXRpdmVjb21tb25zLm9yZy9ucyMiIHhtbG5zOnJkZj0iaHR0cDovL3d3dy53My5vcmcvMTk5OS8wMi8yMi1yZGYtc3ludGF4LW5zIyIgeG1sbnM6c3ZnPSJodHRwOi8vd3d3LnczLm9yZy8yMDAwL3N2ZyIgeG1sbnM9Imh0dHA6Ly93d3cudzMub3JnLzIwMDAvc3ZnIiB4bWxuczpzb2RpcG9kaT0iaHR0cDovL3NvZGlwb2RpLnNvdXJjZWZvcmdlLm5ldC9EVEQvc29kaXBvZGktMC5kdGQiIHhtbG5zOmlua3NjYXBlPSJodHRwOi8vd3d3Lmlua3NjYXBlLm9yZy9uYW1lc3BhY2VzL2lua3NjYXBlIiB2ZXJzaW9uPSIxLjEiIGlkPSJzdmc2NjA5NiIgaW5rc2NhcGU6dmVyc2lvbj0iMC45Mi4zICgyNDA1NTQ2LCAyMDE4LTAzLTExKSIgc29kaXBvZGk6ZG9jbmFtZT0iYXp1cmVfdm1fc2NhbGVfc2V0LnN2ZyIgeD0iMHB4IiB5PSIwcHgiIHZpZXdCb3g9IjAgMCAzNy41IDM3LjUiIHhtbDpzcGFjZT0icHJlc2VydmUiIHdpZHRoPSIzNy41IiBoZWlnaHQ9IjM3LjUiPjxtZXRhZGF0YSBpZD0ibWV0YWRhdGEyMDk1NyI+PHJkZjpSREY+PGNjOldvcmsgcmRmOmFib3V0PSIiPjxkYzpmb3JtYXQ+aW1hZ2Uvc3ZnK3htbDwvZGM6Zm9ybWF0PjxkYzp0eXBlIHJkZjpyZXNvdXJjZT0iaHR0cDovL3B1cmwub3JnL2RjL2RjbWl0eXBlL1N0aWxsSW1hZ2UiLz48ZGM6dGl0bGUvPjwvY2M6V29yaz48L3JkZjpSREY+PC9tZXRhZGF0YT48ZGVmcyBpZD0iZGVmczIwOTU1Ii8+JiN4YTs8ZmlsdGVyIGlkPSJmaWx0ZXJfMiI+JiN4YTsJPGZlR2F1c3NpYW5CbHVyIGlkPSJmZUdhdXNzaWFuQmx1cjY1OTMzIiBzdGREZXZpYXRpb249IjIiLz4mI3hhOzwvZmlsdGVyPiYjeGE7PHNvZGlwb2RpOm5hbWVkdmlldyBib3JkZXJjb2xvcj0iIzY2NjY2NiIgYm9yZGVyb3BhY2l0eT0iMSIgZml0LW1hcmdpbi1ib3R0b209IjAiIGZpdC1tYXJnaW4tbGVmdD0iMCIgZml0LW1hcmdpbi1yaWdodD0iMCIgZml0LW1hcmdpbi10b3A9IjAiIGdyaWR0b2xlcmFuY2U9IjEwIiBndWlkZXRvbGVyYW5jZT0iMTAiIGlkPSJuYW1lZHZpZXc2NjA5OCIgaW5rc2NhcGU6Y3VycmVudC1sYXllcj0ic3ZnNjYwOTYiIGlua3NjYXBlOmN4PSItNS43MTM2Mjk5IiBpbmtzY2FwZTpjeT0iOC42NTU1MTUzIiBpbmtzY2FwZTpwYWdlb3BhY2l0eT0iMCIgaW5rc2NhcGU6cGFnZXNoYWRvdz0iMiIgaW5rc2NhcGU6d2luZG93LWhlaWdodD0iMTAxNyIgaW5rc2NhcGU6d2luZG93LW1heGltaXplZD0iMSIgaW5rc2NhcGU6d2luZG93LXdpZHRoPSIxOTIwIiBpbmtzY2FwZTp3aW5kb3cteD0iLTgiIGlua3NjYXBlOndpbmRvdy15PSItOCIgaW5rc2NhcGU6em9vbT0iMTAuNTcwMDIyIiBvYmplY3R0b2xlcmFuY2U9IjEwIiBwYWdlY29sb3I9IiNmZmZmZmYiIHNob3dncmlkPSJmYWxzZSI+JiN4YTsJPC9zb2RpcG9kaTpuYW1lZHZpZXc+JiN4YTsmI3hhOzxwYXRoIGlkPSJwYXRoNjU5NDYiIGlua3NjYXBlOmNvbm5lY3Rvci1jdXJ2YXR1cmU9IjAiIHN0eWxlPSJmaWxsOiNhMGExYTIiIGQ9Ik0gMjYuNzksMCBIIDEuNTUgQyAwLjY5LDAgMCwwLjc3IDAsMS42MiBWIDE5LjIgYyAwLDAuODUgMC42OSwxLjYxIDEuNTUsMS42MSBoIDI1LjI0IGMgMC44NiwwIDEuNzIsLTAuNzYgMS43MiwtMS42MSBWIDEuNjIgQyAyOC41MSwwLjc2IDI3LjY1LDAgMjYuNzksMCBaIi8+JiN4YTsmI3hhOzxwYXRoIGlkPSJwYXRoNjU5NTQiIGlua3NjYXBlOmNvbm5lY3Rvci1jdXJ2YXR1cmU9IjAiIHN0eWxlPSJmaWxsOiNmZmZmZmY7ZmlsbC1vcGFjaXR5OjAuMiIgZD0iTSAyNi44MSwwIEMgMjYuOCwwIDI2LjgsMCAyNi43OSwwIEggMS41NSBDIDAuNjksMCAwLDAuNzcgMCwxLjYyIFYgMTkuMiBjIDAsMC44NSAwLjY5LDEuNjEgMS41NSwxLjYxIGggMC42IHoiLz4mI3hhOyYjeGE7PHBhdGggaWQ9InBhdGg2NTk2MiIgaW5rc2NhcGU6Y29ubmVjdG9yLWN1cnZhdHVyZT0iMCIgc3R5bGU9ImZpbGw6IzU5YjRkOSIgZD0iTSAyNi4zNSwxOC42MiBIIDIuMTYgViAyLjE5IEwgMjYuMzUsMi4xNiBaIi8+JiN4YTsmI3hhOzxwYXRoIGlkPSJwYXRoNjU5NzAiIGlua3NjYXBlOmNvbm5lY3Rvci1jdXJ2YXR1cmU9IjAiIHN0eWxlPSJmaWxsOiNiOGQ0MzIiIGQ9Im0gMTQuNTUsMS4yIGMgMCwwLjIyIC0wLjE4LDAuNCAtMC40MSwwLjQgLTAuMjIsMCAtMC40LC0wLjE4IC0wLjQsLTAuNCAwLC0wLjIzIDAuMTgsLTAuNDEgMC40LC0wLjQxIDAuMjMsMCAwLjQxLDAuMTggMC40MSwwLjQxIHoiLz4mI3hhOyYjeGE7PHBhdGggaWQ9InBhdGg2NTk3OCIgaW5rc2NhcGU6Y29ubmVjdG9yLWN1cnZhdHVyZT0iMCIgc3R5bGU9ImZpbGw6I2ZmZmZmZiIgZD0iTSAxNC41Nyw5LjkxIEMgMTQuNTUsOS45MSAxNC41Miw5LjkgMTQuNSw5Ljg5IEwgOS40Nyw2Ljk5IEMgOS40Myw2Ljk3IDkuNCw2LjkyIDkuNCw2Ljg2IDkuNCw2LjgxIDkuNDMsNi43NiA5LjQ3LDYuNzMgbCA1LC0yLjg3IGMgMC4wNCwtMC4wMyAwLjEsLTAuMDMgMC4xNSwwIGwgNS4wMiwyLjg5IGMgMC4wNCwwLjAzIDAuMDcsMC4wOCAwLjA3LDAuMTMgMCwwLjA2IC0wLjAyLDAuMTEgLTAuMDcsMC4xMyBMIDE0LjY1LDkuODkgQyAxNC42Myw5LjkgMTQuNiw5LjkxIDE0LjU3LDkuOTEgWiIvPiYjeGE7JiN4YTs8cGF0aCBpZD0icGF0aDY1OTg2IiBpbmtzY2FwZTpjb25uZWN0b3ItY3VydmF0dXJlPSIwIiBzdHlsZT0iZmlsbDojYTBhMWEyIiBkPSJNIDMxLjI1LDUuNTkgSCA2LjAxIGMgLTAuODYsMCAtMS41NSwwLjc3IC0xLjU1LDEuNjIgdiAxNy41OCBjIDAsMC44NSAwLjY5LDEuNjEgMS41NSwxLjYxIGggMjUuMjQgYyAwLjg2LDAgMS43MiwtMC43NiAxLjcyLC0xLjYxIFYgNy4yMSBjIDAsLTAuODYgLTAuODYsLTEuNjIgLTEuNzIsLTEuNjIgeiIvPiYjeGE7JiN4YTs8cGF0aCBpZD0icGF0aDY1OTk0IiBpbmtzY2FwZTpjb25uZWN0b3ItY3VydmF0dXJlPSIwIiBzdHlsZT0iZmlsbDojZmZmZmZmO2ZpbGwtb3BhY2l0eTowLjIiIGQ9Im0gMzEuMjcsNS41OSBjIC0wLjAxLDAgLTAuMDEsMCAtMC4wMiwwIEggNi4wMSBjIC0wLjg2LDAgLTEuNTUsMC43NyAtMS41NSwxLjYyIHYgMTcuNTggYyAwLDAuODUgMC42OSwxLjYxIDEuNTUsMS42MSBoIDAuNiB6Ii8+JiN4YTsmI3hhOzxwYXRoIGlkPSJwYXRoNjYwMDIiIGlua3NjYXBlOmNvbm5lY3Rvci1jdXJ2YXR1cmU9IjAiIHN0eWxlPSJmaWxsOiM1OWI0ZDkiIGQ9Ik0gMzAuODEsMjQuMjEgSCA2LjYyIFYgNy43OCBMIDMwLjgxLDcuNzUgYyAwLDAgMCwxNi40NiAwLDE2LjQ2IHoiLz4mI3hhOyYjeGE7PHBhdGggaWQ9InBhdGg2NjAxMCIgaW5rc2NhcGU6Y29ubmVjdG9yLWN1cnZhdHVyZT0iMCIgc3R5bGU9ImZpbGw6I2I4ZDQzMiIgZD0ibSAxOS4wMSw2Ljc5IGMgMCwwLjIyIC0wLjE4LDAuNCAtMC40MSwwLjQgLTAuMjIsMCAtMC40LC0wLjE4IC0wLjQsLTAuNCAwLC0wLjIzIDAuMTgsLTAuNDEgMC40LC0wLjQxIDAuMjMsMCAwLjQxLDAuMTggMC40MSwwLjQxIHoiLz4mI3hhOyYjeGE7PHBhdGggaWQ9InBhdGg2NjAxOCIgaW5rc2NhcGU6Y29ubmVjdG9yLWN1cnZhdHVyZT0iMCIgc3R5bGU9ImZpbGw6I2ZmZmZmZiIgZD0ibSAxOS4wMywxNS41IGMgLTAuMDIsMCAtMC4wNSwtMC4wMSAtMC4wNywtMC4wMiBsIC01LjAzLC0yLjkgYyAtMC4wNCwtMC4wMiAtMC4wNywtMC4wNyAtMC4wNywtMC4xMyAwLC0wLjA1IDAuMDMsLTAuMSAwLjA3LC0wLjEzIGwgNSwtMi44NyBjIDAuMDQsLTAuMDMgMC4xLC0wLjAzIDAuMTUsMCBsIDUuMDIsMi44OSBjIDAuMDQsMC4wMyAwLjA3LDAuMDggMC4wNywwLjEzIDAsMC4wNiAtMC4wMiwwLjExIC0wLjA3LDAuMTMgbCAtNC45OSwyLjg4IGMgLTAuMDMsMC4wMSAtMC4wNSwwLjAyIC0wLjA4LDAuMDIgeiIvPiYjeGE7JiN4YTs8cGF0aCBpZD0icGF0aDY2MDI2IiBpbmtzY2FwZTpjb25uZWN0b3ItY3VydmF0dXJlPSIwIiBzdHlsZT0iZmlsbDojN2E3YTdhIiBkPSJNIDI3LjQ4LDMyLjAyIEggMjYuOCAyMC4wNyAxOS43MiBjIDAuOTMsMy4yOSAtMC4zMiwzLjc2IC01LjgsMy43NiB2IDEuNzIgaCA2Ljk3IDUuMDkgNi41OCB2IC0xLjcyIGMgLTUuNDgsMCAtNi4wMiwtMC40NyAtNS4wOCwtMy43NiB6Ii8+JiN4YTsmI3hhOzxwYXRoIGlkPSJwYXRoNjYwMzQiIGlua3NjYXBlOmNvbm5lY3Rvci1jdXJ2YXR1cmU9IjAiIHN0eWxlPSJmaWxsOiNhMGExYTIiIGQ9Ik0gMzUuNzgsMTEuMjIgSCAxMC41NCBjIC0wLjg2LDAgLTEuNTUsMC43NyAtMS41NSwxLjYyIHYgMTcuNTggYyAwLDAuODUgMC42OSwxLjYxIDEuNTUsMS42MSBoIDI1LjI0IGMgMC44NiwwIDEuNzIsLTAuNzYgMS43MiwtMS42MSBWIDEyLjg0IGMgMCwtMC44NSAtMC44NiwtMS42MiAtMS43MiwtMS42MiB6Ii8+JiN4YTsmI3hhOzxwYXRoIGlkPSJwYXRoNjYwNDIiIGlua3NjYXBlOmNvbm5lY3Rvci1jdXJ2YXR1cmU9IjAiIHN0eWxlPSJmaWxsOiNmZmZmZmY7ZmlsbC1vcGFjaXR5OjAuMiIgZD0ibSAzNS43OSwxMS4yMiBjIC0wLjAxLDAgLTAuMDEsMCAtMC4wMiwwIEggMTAuNTMgYyAtMC44NiwwIC0xLjU1LDAuNzcgLTEuNTUsMS42MiB2IDE3LjU4IGMgMCwwLjg1IDAuNjksMS42MSAxLjU1LDEuNjEgaCAwLjYgeiIvPiYjeGE7JiN4YTs8cGF0aCBpZD0icGF0aDY2MDUwIiBpbmtzY2FwZTpjb25uZWN0b3ItY3VydmF0dXJlPSIwIiBzdHlsZT0iZmlsbDojNTliNGQ5IiBkPSJNIDM1LjM0LDI5Ljg0IEggMTEuMTUgViAxMy40MSBsIDI0LjE5LC0wLjAzIHoiLz4mI3hhOyYjeGE7PHJlY3QgaWQ9InJlY3Q2NjA1OCIgeD0iMTMuOTE5OTk4IiB5PSIzNS43Nzk5OTkiIHN0eWxlPSJmaWxsOiNhMGExYTIiIHdpZHRoPSIxOC42Mzk5OTkiIGhlaWdodD0iMS43MiIvPiYjeGE7JiN4YTs8cGF0aCBpZD0icGF0aDY2MDY2IiBpbmtzY2FwZTpjb25uZWN0b3ItY3VydmF0dXJlPSIwIiBzdHlsZT0iZmlsbDojYjhkNDMyIiBkPSJtIDIzLjU0LDEyLjQxIGMgMCwwLjIyIC0wLjE4LDAuNCAtMC40MSwwLjQgLTAuMjIsMCAtMC40LC0wLjE4IC0wLjQsLTAuNCAwLC0wLjIzIDAuMTgsLTAuNDEgMC40LC0wLjQxIDAuMjMsMCAwLjQxLDAuMTggMC40MSwwLjQxIHoiLz4mI3hhOyYjeGE7PHBhdGggaWQ9InBhdGg2NjA3NCIgaW5rc2NhcGU6Y29ubmVjdG9yLWN1cnZhdHVyZT0iMCIgc3R5bGU9ImZpbGw6I2ZmZmZmZiIgZD0ibSAyMy41NSwyMS4xMiBjIC0wLjAyLDAgLTAuMDUsLTAuMDEgLTAuMDcsLTAuMDIgbCAtNS4wMywtMi45IGMgLTAuMDQsLTAuMDIgLTAuMDcsLTAuMDcgLTAuMDcsLTAuMTMgMCwtMC4wNSAwLjAzLC0wLjEgMC4wNywtMC4xMyBsIDUsLTIuODcgYyAwLjA0LC0wLjAzIDAuMSwtMC4wMyAwLjE1LDAgbCA1LjAyLDIuODkgYyAwLjA0LDAuMDMgMC4wNywwLjA4IDAuMDcsMC4xMyAwLDAuMDYgLTAuMDIsMC4xMSAtMC4wNywwLjEzIGwgLTQuOTksMi44OCBjIC0wLjAyLDAuMDEgLTAuMDUsMC4wMiAtMC4wOCwwLjAyIHoiLz4mI3hhOyYjeGE7PHBhdGggaWQ9InBhdGg2NjA4MiIgaW5rc2NhcGU6Y29ubmVjdG9yLWN1cnZhdHVyZT0iMCIgc3R5bGU9ImZpbGw6I2ZmZmZmZjtmaWxsLW9wYWNpdHk6MC43IiBkPSJtIDIyLjgzLDI4LjE2IGMgLTAuMDMsMCAtMC4wNSwtMC4wMSAtMC4wOCwtMC4wMiBsIC01LC0yLjg5IEMgMTcuNywyNS4yMyAxNy42NywyNS4xOCAxNy42NywyNS4xMiB2IC01Ljc5IGMgMCwtMC4wNSAwLjAzLC0wLjEgMC4wOCwtMC4xMyAwLjA0LC0wLjAzIDAuMSwtMC4wMyAwLjE1LDAgbCA1LjAxLDIuODkgYyAwLjA0LDAuMDMgMC4wNywwLjA3IDAuMDcsMC4xMyB2IDUuNzkgYyAwLDAuMDUgLTAuMDMsMC4xIC0wLjA3LDAuMTMgLTAuMDMsMC4wMSAtMC4wNSwwLjAyIC0wLjA4LDAuMDIgeiIvPiYjeGE7JiN4YTs8cGF0aCBpZD0icGF0aDY2MDkwIiBpbmtzY2FwZTpjb25uZWN0b3ItY3VydmF0dXJlPSIwIiBzdHlsZT0iZmlsbDojZmZmZmZmO2ZpbGwtb3BhY2l0eTowLjQiIGQ9Im0gMjQuMjUsMjguMTYgYyAtMC4wMywwIC0wLjA1LC0wLjAxIC0wLjA4LC0wLjAyIC0wLjA0LC0wLjAzIC0wLjA3LC0wLjA4IC0wLjA3LC0wLjEzIHYgLTUuNzYgYyAwLC0wLjA1IDAuMDMsLTAuMSAwLjA3LC0wLjEzIGwgNS4wMSwtMi44OCBjIDAuMDUsLTAuMDMgMC4xLC0wLjAzIDAuMTUsMCAwLjA1LDAuMDMgMC4wOCwwLjA4IDAuMDgsMC4xMyB2IDUuNzUgYyAwLDAuMDYgLTAuMDMsMC4xMSAtMC4wOCwwLjE0IGwgLTUsMi44OCBjIC0wLjAzLDAuMDEgLTAuMDUsMC4wMiAtMC4wOCwwLjAyIHoiLz4mI3hhOzwvc3ZnPg==;" parent="W8AcoZy5W2Z0syqtu2D5-74" vertex="1">
          <mxGeometry x="130" y="35.5" width="84" height="84" as="geometry" />
        </mxCell>
        <mxCell id="W8AcoZy5W2Z0syqtu2D5-73" value="" style="image;sketch=0;aspect=fixed;html=1;points=[];align=center;fontSize=12;image=img/lib/mscae/VM_Linux.svg;" parent="W8AcoZy5W2Z0syqtu2D5-74" vertex="1">
          <mxGeometry x="50" y="70" width="50" height="46" as="geometry" />
        </mxCell>
        <mxCell id="W8AcoZy5W2Z0syqtu2D5-75" value="" style="group" parent="1" vertex="1" connectable="0">
          <mxGeometry x="-413" y="440" width="240" height="140" as="geometry" />
        </mxCell>
        <mxCell id="W8AcoZy5W2Z0syqtu2D5-76" value="" style="rounded=0;whiteSpace=wrap;html=1;align=left;" parent="W8AcoZy5W2Z0syqtu2D5-75" vertex="1">
          <mxGeometry width="230" height="140" as="geometry" />
        </mxCell>
        <mxCell id="W8AcoZy5W2Z0syqtu2D5-77" value="&lt;b&gt;Quality Management Software&lt;/b&gt;" style="text;html=1;align=center;verticalAlign=middle;whiteSpace=wrap;rounded=0;" parent="W8AcoZy5W2Z0syqtu2D5-75" vertex="1">
          <mxGeometry y="5.5" width="240" height="30" as="geometry" />
        </mxCell>
        <mxCell id="W8AcoZy5W2Z0syqtu2D5-78" value="" style="shape=image;verticalLabelPosition=bottom;labelBackgroundColor=#ffffff;verticalAlign=top;aspect=fixed;imageAspect=0;image=data:image/svg+xml,PHN2ZyB4bWxuczpjYz0iaHR0cDovL2NyZWF0aXZlY29tbW9ucy5vcmcvbnMjIiB4bWxuczpkYz0iaHR0cDovL3B1cmwub3JnL2RjL2VsZW1lbnRzLzEuMS8iIHhtbG5zOmlua3NjYXBlPSJodHRwOi8vd3d3Lmlua3NjYXBlLm9yZy9uYW1lc3BhY2VzL2lua3NjYXBlIiB4bWxuczpyZGY9Imh0dHA6Ly93d3cudzMub3JnLzE5OTkvMDIvMjItcmRmLXN5bnRheC1ucyMiIHhtbG5zOnNvZGlwb2RpPSJodHRwOi8vc29kaXBvZGkuc291cmNlZm9yZ2UubmV0L0RURC9zb2RpcG9kaS0wLmR0ZCIgeG1sbnM6c3ZnPSJodHRwOi8vd3d3LnczLm9yZy8yMDAwL3N2ZyIgeG1sbnM9Imh0dHA6Ly93d3cudzMub3JnLzIwMDAvc3ZnIiB4bWxuczp4bGluaz0iaHR0cDovL3d3dy53My5vcmcvMTk5OS94bGluayIgdmVyc2lvbj0iMS4xIiBpZD0ic3ZnMTM4NzI0IiBpbmtzY2FwZTp2ZXJzaW9uPSIwLjkyLjMgKDI0MDU1NDYsIDIwMTgtMDMtMTEpIiBzb2RpcG9kaTpkb2NuYW1lPSJhenVyZV92aXJ0dWFsX21hY2hpbmUuc3ZnIiB4PSIwcHgiIHk9IjBweCIgdmlld0JveD0iMCAwIDgwLjMzIDU5LjA2IiBzdHlsZT0iZW5hYmxlLWJhY2tncm91bmQ6bmV3IDAgMCA4MC4zMyA1OS4wNjsiIHhtbDpzcGFjZT0icHJlc2VydmUiPiYjeGE7PHNvZGlwb2RpOm5hbWVkdmlldyBib3JkZXJjb2xvcj0iIzY2NjY2NiIgYm9yZGVyb3BhY2l0eT0iMSIgZml0LW1hcmdpbi1ib3R0b209IjAiIGZpdC1tYXJnaW4tbGVmdD0iMCIgZml0LW1hcmdpbi1yaWdodD0iMCIgZml0LW1hcmdpbi10b3A9IjAiIGdyaWR0b2xlcmFuY2U9IjEwIiBndWlkZXRvbGVyYW5jZT0iMTAiIGlkPSJuYW1lZHZpZXcxMzg3MjYiIGlua3NjYXBlOmN1cnJlbnQtbGF5ZXI9InN2ZzEzODcyNCIgaW5rc2NhcGU6Y3g9IjUzLjUzMTY3NyIgaW5rc2NhcGU6Y3k9IjM5LjM3MTEzMyIgaW5rc2NhcGU6cGFnZW9wYWNpdHk9IjAiIGlua3NjYXBlOnBhZ2VzaGFkb3c9IjIiIGlua3NjYXBlOndpbmRvdy1oZWlnaHQ9IjEwMTciIGlua3NjYXBlOndpbmRvdy1tYXhpbWl6ZWQ9IjEiIGlua3NjYXBlOndpbmRvdy13aWR0aD0iMTkyMCIgaW5rc2NhcGU6d2luZG93LXg9Ii04IiBpbmtzY2FwZTp3aW5kb3cteT0iLTgiIGlua3NjYXBlOnpvb209IjEwLjczNjY4NyIgb2JqZWN0dG9sZXJhbmNlPSIxMCIgcGFnZWNvbG9yPSIjZmZmZmZmIiBzaG93Z3JpZD0iZmFsc2UiPiYjeGE7CTwvc29kaXBvZGk6bmFtZWR2aWV3PiYjeGE7PGcgaWQ9ImcxMzg3MjIiIHRyYW5zZm9ybT0idHJhbnNsYXRlKC0wLjc2MjAwMjY1LC0wLjc0OTk5NDI3KSI+JiN4YTsJPHRpdGxlIGlkPSJ0aXRsZTEzODY5MiI+UGFnZS0xPC90aXRsZT4mI3hhOwk8ZyBpZD0iZ3JvdXA4NjIyLTEiIHRyYW5zZm9ybT0idHJhbnNsYXRlKDAuNzUwMTI0LC0wLjc1MDkwNikiPiYjeGE7CQk8dGl0bGUgaWQ9InRpdGxlMTM4Njk0Ij5BenVyZSBWaXJ0dWFsIE1hY2hpbmU8L3RpdGxlPiYjeGE7CQk8ZyBpZD0ic2hhcGU4NjIzLTIiIHRyYW5zZm9ybT0idHJhbnNsYXRlKDI2LjUwNDcsLTcuNDc3NSkiPiYjeGE7CQkJPHRpdGxlIGlkPSJ0aXRsZTEzODY5NiI+cGF0aDYyMDM8L3RpdGxlPiYjeGE7CQkJPHBhdGggaWQ9InBhdGgxMzg2OTgiIGlua3NjYXBlOmNvbm5lY3Rvci1jdXJ2YXR1cmU9IjAiIHN0eWxlPSJmaWxsOiNDNkUxRjY7IiBkPSJNNDMuMjIsNjAuNTZIMTQuNjVjLTIuNzMsMC00LjQ2LDAtNS43My0wLjEzICAgICBIOC42N2MtMS0wLjEtMS45OC0wLjM3LTIuOS0wLjhsLTAuMTUtMC4wNmMtNC45MS0yLjMtNy4wMy04LjE1LTQuNzMtMTMuMDZjMS4yNi0yLjY5LDMuNjctNC42Nyw2LjU1LTUuMzggICAgIGMxLjQzLTAuMzQsMi45My0wLjM2LDQuMzctMC4wNmMxLjQ5LTQuMjMsNS40Ny03LjA3LDkuOTUtNy4xMmMxLjYxLTAuMDEsMy4yLDAuMzYsNC42NSwxLjA4YzEuODYtMy4wNSw1LjE3LTQuOTEsOC43NC00LjkyICAgICBjNS4xNiwwLjA5LDkuNSwzLjg5LDEwLjI2LDljNS44NSwxLjM1LDkuNSw3LjIsOC4xNCwxMy4wNWMtMC45NCw0LjA4LTQuMTUsNy4yNS04LjIzLDguMTZDNDQuNjMsNjAuNDgsNDMuOTMsNjAuNTYsNDMuMjIsNjAuNTZ6ICAgICAiLz4mI3hhOwkJPC9nPiYjeGE7CQk8ZyBpZD0ic2hhcGU4NjI0LTQiIHRyYW5zZm9ybT0idHJhbnNsYXRlKDMwLjQ4NTQsLTguODEyNSkiPiYjeGE7CQkJPHRpdGxlIGlkPSJ0aXRsZTEzODcwMSI+cmVjdDYyMDU8L3RpdGxlPiYjeGE7CQkJPHJlY3QgaWQ9InJlY3QxMzg3MDMiIHg9IjAiIHk9IjEwLjMxIiBzdHlsZT0iZmlsbDojMzMzMzMzOyIgd2lkdGg9IjMwLjc1IiBoZWlnaHQ9IjUwLjI1Ii8+JiN4YTsJCTwvZz4mI3hhOwkJPGcgaWQ9InNoYXBlODYyNS02IiB0cmFuc2Zvcm09InRyYW5zbGF0ZSgzNS43MzU0LC00OS4zMTI1KSI+JiN4YTsJCQk8dGl0bGUgaWQ9InRpdGxlMTM4NzA2Ij5yZWN0NjIwNzwvdGl0bGU+JiN4YTsJCQk8cmVjdCBpZD0icmVjdDEzODcwOCIgeD0iMCIgeT0iNTYuMDYiIHN0eWxlPSJmaWxsOiM5MDkwOTA7IiB3aWR0aD0iMjAuMjUiIGhlaWdodD0iNC41Ii8+JiN4YTsJCTwvZz4mI3hhOwkJPGcgaWQ9InNoYXBlODYyNi04IiB0cmFuc2Zvcm09InRyYW5zbGF0ZSgzNS43MzU0LC0zOS41NjI1KSI+JiN4YTsJCQk8dGl0bGUgaWQ9InRpdGxlMTM4NzExIj5yZWN0NjIwOTwvdGl0bGU+JiN4YTsJCQk8cmVjdCBpZD0icmVjdDEzODcxMyIgeD0iMCIgeT0iNTYuMDYiIHN0eWxlPSJmaWxsOiM5MDkwOTA7IiB3aWR0aD0iMjAuMjUiIGhlaWdodD0iNC41Ii8+JiN4YTsJCTwvZz4mI3hhOwkJPGcgaWQ9InNoYXBlODYyNy0xMCI+JiN4YTsJCQk8dGl0bGUgaWQ9InRpdGxlMTM4NzE2Ij5wYXRoNjIxOTwvdGl0bGU+JiN4YTsJCQk8cGF0aCBpZD0icGF0aDEzODcxOCIgaW5rc2NhcGU6Y29ubmVjdG9yLWN1cnZhdHVyZT0iMCIgc3R5bGU9ImZpbGw6I0FBRDJGMjsiIGQ9Ik0xMC40OSw2MC4yOUMzLjI2LDU4LjY2LTEuMjksNTEuNDgsMC4zNCw0NC4yNSAgICAgYzEuMTMtNS4wMiw1LjAzLTguOTUsMTAuMDQtMTAuMTNjMC45NC02LjMsNi4zLTExLDEyLjY3LTExLjFjNC40LDAuMDEsOC40OSwyLjMsMTAuNzksNi4wNmMxLjc3LTAuODgsMy43Mi0xLjM0LDUuNjktMS4zNCAgICAgYzUuNTMsMC4wNSwxMC40NCwzLjU1LDEyLjI5LDguNzZjMS43OC0wLjM4LDMuNjMtMC4zNSw1LjQsMC4wN2M2LjUxLDEuNTksMTAuNDksOC4xNSw4LjksMTQuNjZjLTAuODcsMy41Ny0zLjMyLDYuNTUtNi42NSw4LjExICAgICBsLTAuMTksMC4wOGMtMS4xMywwLjUzLTIuMzUsMC44Ni0zLjU5LDAuOThoLTAuM2MtMS41OCwwLjEzLTMuNzEsMC4xNi03LjA4LDAuMTZIMTMuMDZDMTIuMiw2MC41NywxMS4zMyw2MC40OCwxMC40OSw2MC4yOXoiLz4mI3hhOwkJPC9nPiYjeGE7CTwvZz4mI3hhOzwvZz4mI3hhOzwvc3ZnPg==;" parent="W8AcoZy5W2Z0syqtu2D5-75" vertex="1">
          <mxGeometry x="5" y="35.500000000000455" width="80" height="59" as="geometry" />
        </mxCell>
        <mxCell id="W8AcoZy5W2Z0syqtu2D5-79" value="" style="shape=image;verticalLabelPosition=bottom;labelBackgroundColor=#ffffff;verticalAlign=top;aspect=fixed;imageAspect=0;image=data:image/svg+xml,PHN2ZyB4bWxuczpkYz0iaHR0cDovL3B1cmwub3JnL2RjL2VsZW1lbnRzLzEuMS8iIHhtbG5zOmNjPSJodHRwOi8vY3JlYXRpdmVjb21tb25zLm9yZy9ucyMiIHhtbG5zOnJkZj0iaHR0cDovL3d3dy53My5vcmcvMTk5OS8wMi8yMi1yZGYtc3ludGF4LW5zIyIgeG1sbnM6c3ZnPSJodHRwOi8vd3d3LnczLm9yZy8yMDAwL3N2ZyIgeG1sbnM9Imh0dHA6Ly93d3cudzMub3JnLzIwMDAvc3ZnIiB4bWxuczpzb2RpcG9kaT0iaHR0cDovL3NvZGlwb2RpLnNvdXJjZWZvcmdlLm5ldC9EVEQvc29kaXBvZGktMC5kdGQiIHhtbG5zOmlua3NjYXBlPSJodHRwOi8vd3d3Lmlua3NjYXBlLm9yZy9uYW1lc3BhY2VzL2lua3NjYXBlIiB2ZXJzaW9uPSIxLjEiIGlkPSJzdmc2NjA5NiIgaW5rc2NhcGU6dmVyc2lvbj0iMC45Mi4zICgyNDA1NTQ2LCAyMDE4LTAzLTExKSIgc29kaXBvZGk6ZG9jbmFtZT0iYXp1cmVfdm1fc2NhbGVfc2V0LnN2ZyIgeD0iMHB4IiB5PSIwcHgiIHZpZXdCb3g9IjAgMCAzNy41IDM3LjUiIHhtbDpzcGFjZT0icHJlc2VydmUiIHdpZHRoPSIzNy41IiBoZWlnaHQ9IjM3LjUiPjxtZXRhZGF0YSBpZD0ibWV0YWRhdGEyMDk1NyI+PHJkZjpSREY+PGNjOldvcmsgcmRmOmFib3V0PSIiPjxkYzpmb3JtYXQ+aW1hZ2Uvc3ZnK3htbDwvZGM6Zm9ybWF0PjxkYzp0eXBlIHJkZjpyZXNvdXJjZT0iaHR0cDovL3B1cmwub3JnL2RjL2RjbWl0eXBlL1N0aWxsSW1hZ2UiLz48ZGM6dGl0bGUvPjwvY2M6V29yaz48L3JkZjpSREY+PC9tZXRhZGF0YT48ZGVmcyBpZD0iZGVmczIwOTU1Ii8+JiN4YTs8ZmlsdGVyIGlkPSJmaWx0ZXJfMiI+JiN4YTsJPGZlR2F1c3NpYW5CbHVyIGlkPSJmZUdhdXNzaWFuQmx1cjY1OTMzIiBzdGREZXZpYXRpb249IjIiLz4mI3hhOzwvZmlsdGVyPiYjeGE7PHNvZGlwb2RpOm5hbWVkdmlldyBib3JkZXJjb2xvcj0iIzY2NjY2NiIgYm9yZGVyb3BhY2l0eT0iMSIgZml0LW1hcmdpbi1ib3R0b209IjAiIGZpdC1tYXJnaW4tbGVmdD0iMCIgZml0LW1hcmdpbi1yaWdodD0iMCIgZml0LW1hcmdpbi10b3A9IjAiIGdyaWR0b2xlcmFuY2U9IjEwIiBndWlkZXRvbGVyYW5jZT0iMTAiIGlkPSJuYW1lZHZpZXc2NjA5OCIgaW5rc2NhcGU6Y3VycmVudC1sYXllcj0ic3ZnNjYwOTYiIGlua3NjYXBlOmN4PSItNS43MTM2Mjk5IiBpbmtzY2FwZTpjeT0iOC42NTU1MTUzIiBpbmtzY2FwZTpwYWdlb3BhY2l0eT0iMCIgaW5rc2NhcGU6cGFnZXNoYWRvdz0iMiIgaW5rc2NhcGU6d2luZG93LWhlaWdodD0iMTAxNyIgaW5rc2NhcGU6d2luZG93LW1heGltaXplZD0iMSIgaW5rc2NhcGU6d2luZG93LXdpZHRoPSIxOTIwIiBpbmtzY2FwZTp3aW5kb3cteD0iLTgiIGlua3NjYXBlOndpbmRvdy15PSItOCIgaW5rc2NhcGU6em9vbT0iMTAuNTcwMDIyIiBvYmplY3R0b2xlcmFuY2U9IjEwIiBwYWdlY29sb3I9IiNmZmZmZmYiIHNob3dncmlkPSJmYWxzZSI+JiN4YTsJPC9zb2RpcG9kaTpuYW1lZHZpZXc+JiN4YTsmI3hhOzxwYXRoIGlkPSJwYXRoNjU5NDYiIGlua3NjYXBlOmNvbm5lY3Rvci1jdXJ2YXR1cmU9IjAiIHN0eWxlPSJmaWxsOiNhMGExYTIiIGQ9Ik0gMjYuNzksMCBIIDEuNTUgQyAwLjY5LDAgMCwwLjc3IDAsMS42MiBWIDE5LjIgYyAwLDAuODUgMC42OSwxLjYxIDEuNTUsMS42MSBoIDI1LjI0IGMgMC44NiwwIDEuNzIsLTAuNzYgMS43MiwtMS42MSBWIDEuNjIgQyAyOC41MSwwLjc2IDI3LjY1LDAgMjYuNzksMCBaIi8+JiN4YTsmI3hhOzxwYXRoIGlkPSJwYXRoNjU5NTQiIGlua3NjYXBlOmNvbm5lY3Rvci1jdXJ2YXR1cmU9IjAiIHN0eWxlPSJmaWxsOiNmZmZmZmY7ZmlsbC1vcGFjaXR5OjAuMiIgZD0iTSAyNi44MSwwIEMgMjYuOCwwIDI2LjgsMCAyNi43OSwwIEggMS41NSBDIDAuNjksMCAwLDAuNzcgMCwxLjYyIFYgMTkuMiBjIDAsMC44NSAwLjY5LDEuNjEgMS41NSwxLjYxIGggMC42IHoiLz4mI3hhOyYjeGE7PHBhdGggaWQ9InBhdGg2NTk2MiIgaW5rc2NhcGU6Y29ubmVjdG9yLWN1cnZhdHVyZT0iMCIgc3R5bGU9ImZpbGw6IzU5YjRkOSIgZD0iTSAyNi4zNSwxOC42MiBIIDIuMTYgViAyLjE5IEwgMjYuMzUsMi4xNiBaIi8+JiN4YTsmI3hhOzxwYXRoIGlkPSJwYXRoNjU5NzAiIGlua3NjYXBlOmNvbm5lY3Rvci1jdXJ2YXR1cmU9IjAiIHN0eWxlPSJmaWxsOiNiOGQ0MzIiIGQ9Im0gMTQuNTUsMS4yIGMgMCwwLjIyIC0wLjE4LDAuNCAtMC40MSwwLjQgLTAuMjIsMCAtMC40LC0wLjE4IC0wLjQsLTAuNCAwLC0wLjIzIDAuMTgsLTAuNDEgMC40LC0wLjQxIDAuMjMsMCAwLjQxLDAuMTggMC40MSwwLjQxIHoiLz4mI3hhOyYjeGE7PHBhdGggaWQ9InBhdGg2NTk3OCIgaW5rc2NhcGU6Y29ubmVjdG9yLWN1cnZhdHVyZT0iMCIgc3R5bGU9ImZpbGw6I2ZmZmZmZiIgZD0iTSAxNC41Nyw5LjkxIEMgMTQuNTUsOS45MSAxNC41Miw5LjkgMTQuNSw5Ljg5IEwgOS40Nyw2Ljk5IEMgOS40Myw2Ljk3IDkuNCw2LjkyIDkuNCw2Ljg2IDkuNCw2LjgxIDkuNDMsNi43NiA5LjQ3LDYuNzMgbCA1LC0yLjg3IGMgMC4wNCwtMC4wMyAwLjEsLTAuMDMgMC4xNSwwIGwgNS4wMiwyLjg5IGMgMC4wNCwwLjAzIDAuMDcsMC4wOCAwLjA3LDAuMTMgMCwwLjA2IC0wLjAyLDAuMTEgLTAuMDcsMC4xMyBMIDE0LjY1LDkuODkgQyAxNC42Myw5LjkgMTQuNiw5LjkxIDE0LjU3LDkuOTEgWiIvPiYjeGE7JiN4YTs8cGF0aCBpZD0icGF0aDY1OTg2IiBpbmtzY2FwZTpjb25uZWN0b3ItY3VydmF0dXJlPSIwIiBzdHlsZT0iZmlsbDojYTBhMWEyIiBkPSJNIDMxLjI1LDUuNTkgSCA2LjAxIGMgLTAuODYsMCAtMS41NSwwLjc3IC0xLjU1LDEuNjIgdiAxNy41OCBjIDAsMC44NSAwLjY5LDEuNjEgMS41NSwxLjYxIGggMjUuMjQgYyAwLjg2LDAgMS43MiwtMC43NiAxLjcyLC0xLjYxIFYgNy4yMSBjIDAsLTAuODYgLTAuODYsLTEuNjIgLTEuNzIsLTEuNjIgeiIvPiYjeGE7JiN4YTs8cGF0aCBpZD0icGF0aDY1OTk0IiBpbmtzY2FwZTpjb25uZWN0b3ItY3VydmF0dXJlPSIwIiBzdHlsZT0iZmlsbDojZmZmZmZmO2ZpbGwtb3BhY2l0eTowLjIiIGQ9Im0gMzEuMjcsNS41OSBjIC0wLjAxLDAgLTAuMDEsMCAtMC4wMiwwIEggNi4wMSBjIC0wLjg2LDAgLTEuNTUsMC43NyAtMS41NSwxLjYyIHYgMTcuNTggYyAwLDAuODUgMC42OSwxLjYxIDEuNTUsMS42MSBoIDAuNiB6Ii8+JiN4YTsmI3hhOzxwYXRoIGlkPSJwYXRoNjYwMDIiIGlua3NjYXBlOmNvbm5lY3Rvci1jdXJ2YXR1cmU9IjAiIHN0eWxlPSJmaWxsOiM1OWI0ZDkiIGQ9Ik0gMzAuODEsMjQuMjEgSCA2LjYyIFYgNy43OCBMIDMwLjgxLDcuNzUgYyAwLDAgMCwxNi40NiAwLDE2LjQ2IHoiLz4mI3hhOyYjeGE7PHBhdGggaWQ9InBhdGg2NjAxMCIgaW5rc2NhcGU6Y29ubmVjdG9yLWN1cnZhdHVyZT0iMCIgc3R5bGU9ImZpbGw6I2I4ZDQzMiIgZD0ibSAxOS4wMSw2Ljc5IGMgMCwwLjIyIC0wLjE4LDAuNCAtMC40MSwwLjQgLTAuMjIsMCAtMC40LC0wLjE4IC0wLjQsLTAuNCAwLC0wLjIzIDAuMTgsLTAuNDEgMC40LC0wLjQxIDAuMjMsMCAwLjQxLDAuMTggMC40MSwwLjQxIHoiLz4mI3hhOyYjeGE7PHBhdGggaWQ9InBhdGg2NjAxOCIgaW5rc2NhcGU6Y29ubmVjdG9yLWN1cnZhdHVyZT0iMCIgc3R5bGU9ImZpbGw6I2ZmZmZmZiIgZD0ibSAxOS4wMywxNS41IGMgLTAuMDIsMCAtMC4wNSwtMC4wMSAtMC4wNywtMC4wMiBsIC01LjAzLC0yLjkgYyAtMC4wNCwtMC4wMiAtMC4wNywtMC4wNyAtMC4wNywtMC4xMyAwLC0wLjA1IDAuMDMsLTAuMSAwLjA3LC0wLjEzIGwgNSwtMi44NyBjIDAuMDQsLTAuMDMgMC4xLC0wLjAzIDAuMTUsMCBsIDUuMDIsMi44OSBjIDAuMDQsMC4wMyAwLjA3LDAuMDggMC4wNywwLjEzIDAsMC4wNiAtMC4wMiwwLjExIC0wLjA3LDAuMTMgbCAtNC45OSwyLjg4IGMgLTAuMDMsMC4wMSAtMC4wNSwwLjAyIC0wLjA4LDAuMDIgeiIvPiYjeGE7JiN4YTs8cGF0aCBpZD0icGF0aDY2MDI2IiBpbmtzY2FwZTpjb25uZWN0b3ItY3VydmF0dXJlPSIwIiBzdHlsZT0iZmlsbDojN2E3YTdhIiBkPSJNIDI3LjQ4LDMyLjAyIEggMjYuOCAyMC4wNyAxOS43MiBjIDAuOTMsMy4yOSAtMC4zMiwzLjc2IC01LjgsMy43NiB2IDEuNzIgaCA2Ljk3IDUuMDkgNi41OCB2IC0xLjcyIGMgLTUuNDgsMCAtNi4wMiwtMC40NyAtNS4wOCwtMy43NiB6Ii8+JiN4YTsmI3hhOzxwYXRoIGlkPSJwYXRoNjYwMzQiIGlua3NjYXBlOmNvbm5lY3Rvci1jdXJ2YXR1cmU9IjAiIHN0eWxlPSJmaWxsOiNhMGExYTIiIGQ9Ik0gMzUuNzgsMTEuMjIgSCAxMC41NCBjIC0wLjg2LDAgLTEuNTUsMC43NyAtMS41NSwxLjYyIHYgMTcuNTggYyAwLDAuODUgMC42OSwxLjYxIDEuNTUsMS42MSBoIDI1LjI0IGMgMC44NiwwIDEuNzIsLTAuNzYgMS43MiwtMS42MSBWIDEyLjg0IGMgMCwtMC44NSAtMC44NiwtMS42MiAtMS43MiwtMS42MiB6Ii8+JiN4YTsmI3hhOzxwYXRoIGlkPSJwYXRoNjYwNDIiIGlua3NjYXBlOmNvbm5lY3Rvci1jdXJ2YXR1cmU9IjAiIHN0eWxlPSJmaWxsOiNmZmZmZmY7ZmlsbC1vcGFjaXR5OjAuMiIgZD0ibSAzNS43OSwxMS4yMiBjIC0wLjAxLDAgLTAuMDEsMCAtMC4wMiwwIEggMTAuNTMgYyAtMC44NiwwIC0xLjU1LDAuNzcgLTEuNTUsMS42MiB2IDE3LjU4IGMgMCwwLjg1IDAuNjksMS42MSAxLjU1LDEuNjEgaCAwLjYgeiIvPiYjeGE7JiN4YTs8cGF0aCBpZD0icGF0aDY2MDUwIiBpbmtzY2FwZTpjb25uZWN0b3ItY3VydmF0dXJlPSIwIiBzdHlsZT0iZmlsbDojNTliNGQ5IiBkPSJNIDM1LjM0LDI5Ljg0IEggMTEuMTUgViAxMy40MSBsIDI0LjE5LC0wLjAzIHoiLz4mI3hhOyYjeGE7PHJlY3QgaWQ9InJlY3Q2NjA1OCIgeD0iMTMuOTE5OTk4IiB5PSIzNS43Nzk5OTkiIHN0eWxlPSJmaWxsOiNhMGExYTIiIHdpZHRoPSIxOC42Mzk5OTkiIGhlaWdodD0iMS43MiIvPiYjeGE7JiN4YTs8cGF0aCBpZD0icGF0aDY2MDY2IiBpbmtzY2FwZTpjb25uZWN0b3ItY3VydmF0dXJlPSIwIiBzdHlsZT0iZmlsbDojYjhkNDMyIiBkPSJtIDIzLjU0LDEyLjQxIGMgMCwwLjIyIC0wLjE4LDAuNCAtMC40MSwwLjQgLTAuMjIsMCAtMC40LC0wLjE4IC0wLjQsLTAuNCAwLC0wLjIzIDAuMTgsLTAuNDEgMC40LC0wLjQxIDAuMjMsMCAwLjQxLDAuMTggMC40MSwwLjQxIHoiLz4mI3hhOyYjeGE7PHBhdGggaWQ9InBhdGg2NjA3NCIgaW5rc2NhcGU6Y29ubmVjdG9yLWN1cnZhdHVyZT0iMCIgc3R5bGU9ImZpbGw6I2ZmZmZmZiIgZD0ibSAyMy41NSwyMS4xMiBjIC0wLjAyLDAgLTAuMDUsLTAuMDEgLTAuMDcsLTAuMDIgbCAtNS4wMywtMi45IGMgLTAuMDQsLTAuMDIgLTAuMDcsLTAuMDcgLTAuMDcsLTAuMTMgMCwtMC4wNSAwLjAzLC0wLjEgMC4wNywtMC4xMyBsIDUsLTIuODcgYyAwLjA0LC0wLjAzIDAuMSwtMC4wMyAwLjE1LDAgbCA1LjAyLDIuODkgYyAwLjA0LDAuMDMgMC4wNywwLjA4IDAuMDcsMC4xMyAwLDAuMDYgLTAuMDIsMC4xMSAtMC4wNywwLjEzIGwgLTQuOTksMi44OCBjIC0wLjAyLDAuMDEgLTAuMDUsMC4wMiAtMC4wOCwwLjAyIHoiLz4mI3hhOyYjeGE7PHBhdGggaWQ9InBhdGg2NjA4MiIgaW5rc2NhcGU6Y29ubmVjdG9yLWN1cnZhdHVyZT0iMCIgc3R5bGU9ImZpbGw6I2ZmZmZmZjtmaWxsLW9wYWNpdHk6MC43IiBkPSJtIDIyLjgzLDI4LjE2IGMgLTAuMDMsMCAtMC4wNSwtMC4wMSAtMC4wOCwtMC4wMiBsIC01LC0yLjg5IEMgMTcuNywyNS4yMyAxNy42NywyNS4xOCAxNy42NywyNS4xMiB2IC01Ljc5IGMgMCwtMC4wNSAwLjAzLC0wLjEgMC4wOCwtMC4xMyAwLjA0LC0wLjAzIDAuMSwtMC4wMyAwLjE1LDAgbCA1LjAxLDIuODkgYyAwLjA0LDAuMDMgMC4wNywwLjA3IDAuMDcsMC4xMyB2IDUuNzkgYyAwLDAuMDUgLTAuMDMsMC4xIC0wLjA3LDAuMTMgLTAuMDMsMC4wMSAtMC4wNSwwLjAyIC0wLjA4LDAuMDIgeiIvPiYjeGE7JiN4YTs8cGF0aCBpZD0icGF0aDY2MDkwIiBpbmtzY2FwZTpjb25uZWN0b3ItY3VydmF0dXJlPSIwIiBzdHlsZT0iZmlsbDojZmZmZmZmO2ZpbGwtb3BhY2l0eTowLjQiIGQ9Im0gMjQuMjUsMjguMTYgYyAtMC4wMywwIC0wLjA1LC0wLjAxIC0wLjA4LC0wLjAyIC0wLjA0LC0wLjAzIC0wLjA3LC0wLjA4IC0wLjA3LC0wLjEzIHYgLTUuNzYgYyAwLC0wLjA1IDAuMDMsLTAuMSAwLjA3LC0wLjEzIGwgNS4wMSwtMi44OCBjIDAuMDUsLTAuMDMgMC4xLC0wLjAzIDAuMTUsMCAwLjA1LDAuMDMgMC4wOCwwLjA4IDAuMDgsMC4xMyB2IDUuNzUgYyAwLDAuMDYgLTAuMDMsMC4xMSAtMC4wOCwwLjE0IGwgLTUsMi44OCBjIC0wLjAzLDAuMDEgLTAuMDUsMC4wMiAtMC4wOCwwLjAyIHoiLz4mI3hhOzwvc3ZnPg==;" parent="W8AcoZy5W2Z0syqtu2D5-75" vertex="1">
          <mxGeometry x="130" y="35.5" width="84" height="84" as="geometry" />
        </mxCell>
        <mxCell id="W8AcoZy5W2Z0syqtu2D5-81" value="" style="image;sketch=0;aspect=fixed;html=1;points=[];align=center;fontSize=12;image=img/lib/mscae/VirtualMachineWindows.svg;" parent="W8AcoZy5W2Z0syqtu2D5-75" vertex="1">
          <mxGeometry x="50" y="60" width="50" height="46" as="geometry" />
        </mxCell>
        <mxCell id="W8AcoZy5W2Z0syqtu2D5-82" value="" style="group" parent="1" vertex="1" connectable="0">
          <mxGeometry x="-680" y="440" width="240" height="140" as="geometry" />
        </mxCell>
        <mxCell id="W8AcoZy5W2Z0syqtu2D5-83" value="" style="rounded=0;whiteSpace=wrap;html=1;align=left;" parent="W8AcoZy5W2Z0syqtu2D5-82" vertex="1">
          <mxGeometry width="230" height="140" as="geometry" />
        </mxCell>
        <mxCell id="W8AcoZy5W2Z0syqtu2D5-84" value="&lt;b&gt;CRM&lt;/b&gt;" style="text;html=1;align=center;verticalAlign=middle;whiteSpace=wrap;rounded=0;" parent="W8AcoZy5W2Z0syqtu2D5-82" vertex="1">
          <mxGeometry y="5.5" width="240" height="30" as="geometry" />
        </mxCell>
        <mxCell id="W8AcoZy5W2Z0syqtu2D5-85" value="" style="shape=image;verticalLabelPosition=bottom;labelBackgroundColor=#ffffff;verticalAlign=top;aspect=fixed;imageAspect=0;image=data:image/svg+xml,PHN2ZyB4bWxuczpjYz0iaHR0cDovL2NyZWF0aXZlY29tbW9ucy5vcmcvbnMjIiB4bWxuczpkYz0iaHR0cDovL3B1cmwub3JnL2RjL2VsZW1lbnRzLzEuMS8iIHhtbG5zOmlua3NjYXBlPSJodHRwOi8vd3d3Lmlua3NjYXBlLm9yZy9uYW1lc3BhY2VzL2lua3NjYXBlIiB4bWxuczpyZGY9Imh0dHA6Ly93d3cudzMub3JnLzE5OTkvMDIvMjItcmRmLXN5bnRheC1ucyMiIHhtbG5zOnNvZGlwb2RpPSJodHRwOi8vc29kaXBvZGkuc291cmNlZm9yZ2UubmV0L0RURC9zb2RpcG9kaS0wLmR0ZCIgeG1sbnM6c3ZnPSJodHRwOi8vd3d3LnczLm9yZy8yMDAwL3N2ZyIgeG1sbnM9Imh0dHA6Ly93d3cudzMub3JnLzIwMDAvc3ZnIiB4bWxuczp4bGluaz0iaHR0cDovL3d3dy53My5vcmcvMTk5OS94bGluayIgdmVyc2lvbj0iMS4xIiBpZD0ic3ZnMTM4NzI0IiBpbmtzY2FwZTp2ZXJzaW9uPSIwLjkyLjMgKDI0MDU1NDYsIDIwMTgtMDMtMTEpIiBzb2RpcG9kaTpkb2NuYW1lPSJhenVyZV92aXJ0dWFsX21hY2hpbmUuc3ZnIiB4PSIwcHgiIHk9IjBweCIgdmlld0JveD0iMCAwIDgwLjMzIDU5LjA2IiBzdHlsZT0iZW5hYmxlLWJhY2tncm91bmQ6bmV3IDAgMCA4MC4zMyA1OS4wNjsiIHhtbDpzcGFjZT0icHJlc2VydmUiPiYjeGE7PHNvZGlwb2RpOm5hbWVkdmlldyBib3JkZXJjb2xvcj0iIzY2NjY2NiIgYm9yZGVyb3BhY2l0eT0iMSIgZml0LW1hcmdpbi1ib3R0b209IjAiIGZpdC1tYXJnaW4tbGVmdD0iMCIgZml0LW1hcmdpbi1yaWdodD0iMCIgZml0LW1hcmdpbi10b3A9IjAiIGdyaWR0b2xlcmFuY2U9IjEwIiBndWlkZXRvbGVyYW5jZT0iMTAiIGlkPSJuYW1lZHZpZXcxMzg3MjYiIGlua3NjYXBlOmN1cnJlbnQtbGF5ZXI9InN2ZzEzODcyNCIgaW5rc2NhcGU6Y3g9IjUzLjUzMTY3NyIgaW5rc2NhcGU6Y3k9IjM5LjM3MTEzMyIgaW5rc2NhcGU6cGFnZW9wYWNpdHk9IjAiIGlua3NjYXBlOnBhZ2VzaGFkb3c9IjIiIGlua3NjYXBlOndpbmRvdy1oZWlnaHQ9IjEwMTciIGlua3NjYXBlOndpbmRvdy1tYXhpbWl6ZWQ9IjEiIGlua3NjYXBlOndpbmRvdy13aWR0aD0iMTkyMCIgaW5rc2NhcGU6d2luZG93LXg9Ii04IiBpbmtzY2FwZTp3aW5kb3cteT0iLTgiIGlua3NjYXBlOnpvb209IjEwLjczNjY4NyIgb2JqZWN0dG9sZXJhbmNlPSIxMCIgcGFnZWNvbG9yPSIjZmZmZmZmIiBzaG93Z3JpZD0iZmFsc2UiPiYjeGE7CTwvc29kaXBvZGk6bmFtZWR2aWV3PiYjeGE7PGcgaWQ9ImcxMzg3MjIiIHRyYW5zZm9ybT0idHJhbnNsYXRlKC0wLjc2MjAwMjY1LC0wLjc0OTk5NDI3KSI+JiN4YTsJPHRpdGxlIGlkPSJ0aXRsZTEzODY5MiI+UGFnZS0xPC90aXRsZT4mI3hhOwk8ZyBpZD0iZ3JvdXA4NjIyLTEiIHRyYW5zZm9ybT0idHJhbnNsYXRlKDAuNzUwMTI0LC0wLjc1MDkwNikiPiYjeGE7CQk8dGl0bGUgaWQ9InRpdGxlMTM4Njk0Ij5BenVyZSBWaXJ0dWFsIE1hY2hpbmU8L3RpdGxlPiYjeGE7CQk8ZyBpZD0ic2hhcGU4NjIzLTIiIHRyYW5zZm9ybT0idHJhbnNsYXRlKDI2LjUwNDcsLTcuNDc3NSkiPiYjeGE7CQkJPHRpdGxlIGlkPSJ0aXRsZTEzODY5NiI+cGF0aDYyMDM8L3RpdGxlPiYjeGE7CQkJPHBhdGggaWQ9InBhdGgxMzg2OTgiIGlua3NjYXBlOmNvbm5lY3Rvci1jdXJ2YXR1cmU9IjAiIHN0eWxlPSJmaWxsOiNDNkUxRjY7IiBkPSJNNDMuMjIsNjAuNTZIMTQuNjVjLTIuNzMsMC00LjQ2LDAtNS43My0wLjEzICAgICBIOC42N2MtMS0wLjEtMS45OC0wLjM3LTIuOS0wLjhsLTAuMTUtMC4wNmMtNC45MS0yLjMtNy4wMy04LjE1LTQuNzMtMTMuMDZjMS4yNi0yLjY5LDMuNjctNC42Nyw2LjU1LTUuMzggICAgIGMxLjQzLTAuMzQsMi45My0wLjM2LDQuMzctMC4wNmMxLjQ5LTQuMjMsNS40Ny03LjA3LDkuOTUtNy4xMmMxLjYxLTAuMDEsMy4yLDAuMzYsNC42NSwxLjA4YzEuODYtMy4wNSw1LjE3LTQuOTEsOC43NC00LjkyICAgICBjNS4xNiwwLjA5LDkuNSwzLjg5LDEwLjI2LDljNS44NSwxLjM1LDkuNSw3LjIsOC4xNCwxMy4wNWMtMC45NCw0LjA4LTQuMTUsNy4yNS04LjIzLDguMTZDNDQuNjMsNjAuNDgsNDMuOTMsNjAuNTYsNDMuMjIsNjAuNTZ6ICAgICAiLz4mI3hhOwkJPC9nPiYjeGE7CQk8ZyBpZD0ic2hhcGU4NjI0LTQiIHRyYW5zZm9ybT0idHJhbnNsYXRlKDMwLjQ4NTQsLTguODEyNSkiPiYjeGE7CQkJPHRpdGxlIGlkPSJ0aXRsZTEzODcwMSI+cmVjdDYyMDU8L3RpdGxlPiYjeGE7CQkJPHJlY3QgaWQ9InJlY3QxMzg3MDMiIHg9IjAiIHk9IjEwLjMxIiBzdHlsZT0iZmlsbDojMzMzMzMzOyIgd2lkdGg9IjMwLjc1IiBoZWlnaHQ9IjUwLjI1Ii8+JiN4YTsJCTwvZz4mI3hhOwkJPGcgaWQ9InNoYXBlODYyNS02IiB0cmFuc2Zvcm09InRyYW5zbGF0ZSgzNS43MzU0LC00OS4zMTI1KSI+JiN4YTsJCQk8dGl0bGUgaWQ9InRpdGxlMTM4NzA2Ij5yZWN0NjIwNzwvdGl0bGU+JiN4YTsJCQk8cmVjdCBpZD0icmVjdDEzODcwOCIgeD0iMCIgeT0iNTYuMDYiIHN0eWxlPSJmaWxsOiM5MDkwOTA7IiB3aWR0aD0iMjAuMjUiIGhlaWdodD0iNC41Ii8+JiN4YTsJCTwvZz4mI3hhOwkJPGcgaWQ9InNoYXBlODYyNi04IiB0cmFuc2Zvcm09InRyYW5zbGF0ZSgzNS43MzU0LC0zOS41NjI1KSI+JiN4YTsJCQk8dGl0bGUgaWQ9InRpdGxlMTM4NzExIj5yZWN0NjIwOTwvdGl0bGU+JiN4YTsJCQk8cmVjdCBpZD0icmVjdDEzODcxMyIgeD0iMCIgeT0iNTYuMDYiIHN0eWxlPSJmaWxsOiM5MDkwOTA7IiB3aWR0aD0iMjAuMjUiIGhlaWdodD0iNC41Ii8+JiN4YTsJCTwvZz4mI3hhOwkJPGcgaWQ9InNoYXBlODYyNy0xMCI+JiN4YTsJCQk8dGl0bGUgaWQ9InRpdGxlMTM4NzE2Ij5wYXRoNjIxOTwvdGl0bGU+JiN4YTsJCQk8cGF0aCBpZD0icGF0aDEzODcxOCIgaW5rc2NhcGU6Y29ubmVjdG9yLWN1cnZhdHVyZT0iMCIgc3R5bGU9ImZpbGw6I0FBRDJGMjsiIGQ9Ik0xMC40OSw2MC4yOUMzLjI2LDU4LjY2LTEuMjksNTEuNDgsMC4zNCw0NC4yNSAgICAgYzEuMTMtNS4wMiw1LjAzLTguOTUsMTAuMDQtMTAuMTNjMC45NC02LjMsNi4zLTExLDEyLjY3LTExLjFjNC40LDAuMDEsOC40OSwyLjMsMTAuNzksNi4wNmMxLjc3LTAuODgsMy43Mi0xLjM0LDUuNjktMS4zNCAgICAgYzUuNTMsMC4wNSwxMC40NCwzLjU1LDEyLjI5LDguNzZjMS43OC0wLjM4LDMuNjMtMC4zNSw1LjQsMC4wN2M2LjUxLDEuNTksMTAuNDksOC4xNSw4LjksMTQuNjZjLTAuODcsMy41Ny0zLjMyLDYuNTUtNi42NSw4LjExICAgICBsLTAuMTksMC4wOGMtMS4xMywwLjUzLTIuMzUsMC44Ni0zLjU5LDAuOThoLTAuM2MtMS41OCwwLjEzLTMuNzEsMC4xNi03LjA4LDAuMTZIMTMuMDZDMTIuMiw2MC41NywxMS4zMyw2MC40OCwxMC40OSw2MC4yOXoiLz4mI3hhOwkJPC9nPiYjeGE7CTwvZz4mI3hhOzwvZz4mI3hhOzwvc3ZnPg==;" parent="W8AcoZy5W2Z0syqtu2D5-82" vertex="1">
          <mxGeometry x="5" y="35.500000000000455" width="80" height="59" as="geometry" />
        </mxCell>
        <mxCell id="W8AcoZy5W2Z0syqtu2D5-86" value="" style="shape=image;verticalLabelPosition=bottom;labelBackgroundColor=#ffffff;verticalAlign=top;aspect=fixed;imageAspect=0;image=data:image/svg+xml,PHN2ZyB4bWxuczpkYz0iaHR0cDovL3B1cmwub3JnL2RjL2VsZW1lbnRzLzEuMS8iIHhtbG5zOmNjPSJodHRwOi8vY3JlYXRpdmVjb21tb25zLm9yZy9ucyMiIHhtbG5zOnJkZj0iaHR0cDovL3d3dy53My5vcmcvMTk5OS8wMi8yMi1yZGYtc3ludGF4LW5zIyIgeG1sbnM6c3ZnPSJodHRwOi8vd3d3LnczLm9yZy8yMDAwL3N2ZyIgeG1sbnM9Imh0dHA6Ly93d3cudzMub3JnLzIwMDAvc3ZnIiB4bWxuczpzb2RpcG9kaT0iaHR0cDovL3NvZGlwb2RpLnNvdXJjZWZvcmdlLm5ldC9EVEQvc29kaXBvZGktMC5kdGQiIHhtbG5zOmlua3NjYXBlPSJodHRwOi8vd3d3Lmlua3NjYXBlLm9yZy9uYW1lc3BhY2VzL2lua3NjYXBlIiB2ZXJzaW9uPSIxLjEiIGlkPSJzdmc2NjA5NiIgaW5rc2NhcGU6dmVyc2lvbj0iMC45Mi4zICgyNDA1NTQ2LCAyMDE4LTAzLTExKSIgc29kaXBvZGk6ZG9jbmFtZT0iYXp1cmVfdm1fc2NhbGVfc2V0LnN2ZyIgeD0iMHB4IiB5PSIwcHgiIHZpZXdCb3g9IjAgMCAzNy41IDM3LjUiIHhtbDpzcGFjZT0icHJlc2VydmUiIHdpZHRoPSIzNy41IiBoZWlnaHQ9IjM3LjUiPjxtZXRhZGF0YSBpZD0ibWV0YWRhdGEyMDk1NyI+PHJkZjpSREY+PGNjOldvcmsgcmRmOmFib3V0PSIiPjxkYzpmb3JtYXQ+aW1hZ2Uvc3ZnK3htbDwvZGM6Zm9ybWF0PjxkYzp0eXBlIHJkZjpyZXNvdXJjZT0iaHR0cDovL3B1cmwub3JnL2RjL2RjbWl0eXBlL1N0aWxsSW1hZ2UiLz48ZGM6dGl0bGUvPjwvY2M6V29yaz48L3JkZjpSREY+PC9tZXRhZGF0YT48ZGVmcyBpZD0iZGVmczIwOTU1Ii8+JiN4YTs8ZmlsdGVyIGlkPSJmaWx0ZXJfMiI+JiN4YTsJPGZlR2F1c3NpYW5CbHVyIGlkPSJmZUdhdXNzaWFuQmx1cjY1OTMzIiBzdGREZXZpYXRpb249IjIiLz4mI3hhOzwvZmlsdGVyPiYjeGE7PHNvZGlwb2RpOm5hbWVkdmlldyBib3JkZXJjb2xvcj0iIzY2NjY2NiIgYm9yZGVyb3BhY2l0eT0iMSIgZml0LW1hcmdpbi1ib3R0b209IjAiIGZpdC1tYXJnaW4tbGVmdD0iMCIgZml0LW1hcmdpbi1yaWdodD0iMCIgZml0LW1hcmdpbi10b3A9IjAiIGdyaWR0b2xlcmFuY2U9IjEwIiBndWlkZXRvbGVyYW5jZT0iMTAiIGlkPSJuYW1lZHZpZXc2NjA5OCIgaW5rc2NhcGU6Y3VycmVudC1sYXllcj0ic3ZnNjYwOTYiIGlua3NjYXBlOmN4PSItNS43MTM2Mjk5IiBpbmtzY2FwZTpjeT0iOC42NTU1MTUzIiBpbmtzY2FwZTpwYWdlb3BhY2l0eT0iMCIgaW5rc2NhcGU6cGFnZXNoYWRvdz0iMiIgaW5rc2NhcGU6d2luZG93LWhlaWdodD0iMTAxNyIgaW5rc2NhcGU6d2luZG93LW1heGltaXplZD0iMSIgaW5rc2NhcGU6d2luZG93LXdpZHRoPSIxOTIwIiBpbmtzY2FwZTp3aW5kb3cteD0iLTgiIGlua3NjYXBlOndpbmRvdy15PSItOCIgaW5rc2NhcGU6em9vbT0iMTAuNTcwMDIyIiBvYmplY3R0b2xlcmFuY2U9IjEwIiBwYWdlY29sb3I9IiNmZmZmZmYiIHNob3dncmlkPSJmYWxzZSI+JiN4YTsJPC9zb2RpcG9kaTpuYW1lZHZpZXc+JiN4YTsmI3hhOzxwYXRoIGlkPSJwYXRoNjU5NDYiIGlua3NjYXBlOmNvbm5lY3Rvci1jdXJ2YXR1cmU9IjAiIHN0eWxlPSJmaWxsOiNhMGExYTIiIGQ9Ik0gMjYuNzksMCBIIDEuNTUgQyAwLjY5LDAgMCwwLjc3IDAsMS42MiBWIDE5LjIgYyAwLDAuODUgMC42OSwxLjYxIDEuNTUsMS42MSBoIDI1LjI0IGMgMC44NiwwIDEuNzIsLTAuNzYgMS43MiwtMS42MSBWIDEuNjIgQyAyOC41MSwwLjc2IDI3LjY1LDAgMjYuNzksMCBaIi8+JiN4YTsmI3hhOzxwYXRoIGlkPSJwYXRoNjU5NTQiIGlua3NjYXBlOmNvbm5lY3Rvci1jdXJ2YXR1cmU9IjAiIHN0eWxlPSJmaWxsOiNmZmZmZmY7ZmlsbC1vcGFjaXR5OjAuMiIgZD0iTSAyNi44MSwwIEMgMjYuOCwwIDI2LjgsMCAyNi43OSwwIEggMS41NSBDIDAuNjksMCAwLDAuNzcgMCwxLjYyIFYgMTkuMiBjIDAsMC44NSAwLjY5LDEuNjEgMS41NSwxLjYxIGggMC42IHoiLz4mI3hhOyYjeGE7PHBhdGggaWQ9InBhdGg2NTk2MiIgaW5rc2NhcGU6Y29ubmVjdG9yLWN1cnZhdHVyZT0iMCIgc3R5bGU9ImZpbGw6IzU5YjRkOSIgZD0iTSAyNi4zNSwxOC42MiBIIDIuMTYgViAyLjE5IEwgMjYuMzUsMi4xNiBaIi8+JiN4YTsmI3hhOzxwYXRoIGlkPSJwYXRoNjU5NzAiIGlua3NjYXBlOmNvbm5lY3Rvci1jdXJ2YXR1cmU9IjAiIHN0eWxlPSJmaWxsOiNiOGQ0MzIiIGQ9Im0gMTQuNTUsMS4yIGMgMCwwLjIyIC0wLjE4LDAuNCAtMC40MSwwLjQgLTAuMjIsMCAtMC40LC0wLjE4IC0wLjQsLTAuNCAwLC0wLjIzIDAuMTgsLTAuNDEgMC40LC0wLjQxIDAuMjMsMCAwLjQxLDAuMTggMC40MSwwLjQxIHoiLz4mI3hhOyYjeGE7PHBhdGggaWQ9InBhdGg2NTk3OCIgaW5rc2NhcGU6Y29ubmVjdG9yLWN1cnZhdHVyZT0iMCIgc3R5bGU9ImZpbGw6I2ZmZmZmZiIgZD0iTSAxNC41Nyw5LjkxIEMgMTQuNTUsOS45MSAxNC41Miw5LjkgMTQuNSw5Ljg5IEwgOS40Nyw2Ljk5IEMgOS40Myw2Ljk3IDkuNCw2LjkyIDkuNCw2Ljg2IDkuNCw2LjgxIDkuNDMsNi43NiA5LjQ3LDYuNzMgbCA1LC0yLjg3IGMgMC4wNCwtMC4wMyAwLjEsLTAuMDMgMC4xNSwwIGwgNS4wMiwyLjg5IGMgMC4wNCwwLjAzIDAuMDcsMC4wOCAwLjA3LDAuMTMgMCwwLjA2IC0wLjAyLDAuMTEgLTAuMDcsMC4xMyBMIDE0LjY1LDkuODkgQyAxNC42Myw5LjkgMTQuNiw5LjkxIDE0LjU3LDkuOTEgWiIvPiYjeGE7JiN4YTs8cGF0aCBpZD0icGF0aDY1OTg2IiBpbmtzY2FwZTpjb25uZWN0b3ItY3VydmF0dXJlPSIwIiBzdHlsZT0iZmlsbDojYTBhMWEyIiBkPSJNIDMxLjI1LDUuNTkgSCA2LjAxIGMgLTAuODYsMCAtMS41NSwwLjc3IC0xLjU1LDEuNjIgdiAxNy41OCBjIDAsMC44NSAwLjY5LDEuNjEgMS41NSwxLjYxIGggMjUuMjQgYyAwLjg2LDAgMS43MiwtMC43NiAxLjcyLC0xLjYxIFYgNy4yMSBjIDAsLTAuODYgLTAuODYsLTEuNjIgLTEuNzIsLTEuNjIgeiIvPiYjeGE7JiN4YTs8cGF0aCBpZD0icGF0aDY1OTk0IiBpbmtzY2FwZTpjb25uZWN0b3ItY3VydmF0dXJlPSIwIiBzdHlsZT0iZmlsbDojZmZmZmZmO2ZpbGwtb3BhY2l0eTowLjIiIGQ9Im0gMzEuMjcsNS41OSBjIC0wLjAxLDAgLTAuMDEsMCAtMC4wMiwwIEggNi4wMSBjIC0wLjg2LDAgLTEuNTUsMC43NyAtMS41NSwxLjYyIHYgMTcuNTggYyAwLDAuODUgMC42OSwxLjYxIDEuNTUsMS42MSBoIDAuNiB6Ii8+JiN4YTsmI3hhOzxwYXRoIGlkPSJwYXRoNjYwMDIiIGlua3NjYXBlOmNvbm5lY3Rvci1jdXJ2YXR1cmU9IjAiIHN0eWxlPSJmaWxsOiM1OWI0ZDkiIGQ9Ik0gMzAuODEsMjQuMjEgSCA2LjYyIFYgNy43OCBMIDMwLjgxLDcuNzUgYyAwLDAgMCwxNi40NiAwLDE2LjQ2IHoiLz4mI3hhOyYjeGE7PHBhdGggaWQ9InBhdGg2NjAxMCIgaW5rc2NhcGU6Y29ubmVjdG9yLWN1cnZhdHVyZT0iMCIgc3R5bGU9ImZpbGw6I2I4ZDQzMiIgZD0ibSAxOS4wMSw2Ljc5IGMgMCwwLjIyIC0wLjE4LDAuNCAtMC40MSwwLjQgLTAuMjIsMCAtMC40LC0wLjE4IC0wLjQsLTAuNCAwLC0wLjIzIDAuMTgsLTAuNDEgMC40LC0wLjQxIDAuMjMsMCAwLjQxLDAuMTggMC40MSwwLjQxIHoiLz4mI3hhOyYjeGE7PHBhdGggaWQ9InBhdGg2NjAxOCIgaW5rc2NhcGU6Y29ubmVjdG9yLWN1cnZhdHVyZT0iMCIgc3R5bGU9ImZpbGw6I2ZmZmZmZiIgZD0ibSAxOS4wMywxNS41IGMgLTAuMDIsMCAtMC4wNSwtMC4wMSAtMC4wNywtMC4wMiBsIC01LjAzLC0yLjkgYyAtMC4wNCwtMC4wMiAtMC4wNywtMC4wNyAtMC4wNywtMC4xMyAwLC0wLjA1IDAuMDMsLTAuMSAwLjA3LC0wLjEzIGwgNSwtMi44NyBjIDAuMDQsLTAuMDMgMC4xLC0wLjAzIDAuMTUsMCBsIDUuMDIsMi44OSBjIDAuMDQsMC4wMyAwLjA3LDAuMDggMC4wNywwLjEzIDAsMC4wNiAtMC4wMiwwLjExIC0wLjA3LDAuMTMgbCAtNC45OSwyLjg4IGMgLTAuMDMsMC4wMSAtMC4wNSwwLjAyIC0wLjA4LDAuMDIgeiIvPiYjeGE7JiN4YTs8cGF0aCBpZD0icGF0aDY2MDI2IiBpbmtzY2FwZTpjb25uZWN0b3ItY3VydmF0dXJlPSIwIiBzdHlsZT0iZmlsbDojN2E3YTdhIiBkPSJNIDI3LjQ4LDMyLjAyIEggMjYuOCAyMC4wNyAxOS43MiBjIDAuOTMsMy4yOSAtMC4zMiwzLjc2IC01LjgsMy43NiB2IDEuNzIgaCA2Ljk3IDUuMDkgNi41OCB2IC0xLjcyIGMgLTUuNDgsMCAtNi4wMiwtMC40NyAtNS4wOCwtMy43NiB6Ii8+JiN4YTsmI3hhOzxwYXRoIGlkPSJwYXRoNjYwMzQiIGlua3NjYXBlOmNvbm5lY3Rvci1jdXJ2YXR1cmU9IjAiIHN0eWxlPSJmaWxsOiNhMGExYTIiIGQ9Ik0gMzUuNzgsMTEuMjIgSCAxMC41NCBjIC0wLjg2LDAgLTEuNTUsMC43NyAtMS41NSwxLjYyIHYgMTcuNTggYyAwLDAuODUgMC42OSwxLjYxIDEuNTUsMS42MSBoIDI1LjI0IGMgMC44NiwwIDEuNzIsLTAuNzYgMS43MiwtMS42MSBWIDEyLjg0IGMgMCwtMC44NSAtMC44NiwtMS42MiAtMS43MiwtMS42MiB6Ii8+JiN4YTsmI3hhOzxwYXRoIGlkPSJwYXRoNjYwNDIiIGlua3NjYXBlOmNvbm5lY3Rvci1jdXJ2YXR1cmU9IjAiIHN0eWxlPSJmaWxsOiNmZmZmZmY7ZmlsbC1vcGFjaXR5OjAuMiIgZD0ibSAzNS43OSwxMS4yMiBjIC0wLjAxLDAgLTAuMDEsMCAtMC4wMiwwIEggMTAuNTMgYyAtMC44NiwwIC0xLjU1LDAuNzcgLTEuNTUsMS42MiB2IDE3LjU4IGMgMCwwLjg1IDAuNjksMS42MSAxLjU1LDEuNjEgaCAwLjYgeiIvPiYjeGE7JiN4YTs8cGF0aCBpZD0icGF0aDY2MDUwIiBpbmtzY2FwZTpjb25uZWN0b3ItY3VydmF0dXJlPSIwIiBzdHlsZT0iZmlsbDojNTliNGQ5IiBkPSJNIDM1LjM0LDI5Ljg0IEggMTEuMTUgViAxMy40MSBsIDI0LjE5LC0wLjAzIHoiLz4mI3hhOyYjeGE7PHJlY3QgaWQ9InJlY3Q2NjA1OCIgeD0iMTMuOTE5OTk4IiB5PSIzNS43Nzk5OTkiIHN0eWxlPSJmaWxsOiNhMGExYTIiIHdpZHRoPSIxOC42Mzk5OTkiIGhlaWdodD0iMS43MiIvPiYjeGE7JiN4YTs8cGF0aCBpZD0icGF0aDY2MDY2IiBpbmtzY2FwZTpjb25uZWN0b3ItY3VydmF0dXJlPSIwIiBzdHlsZT0iZmlsbDojYjhkNDMyIiBkPSJtIDIzLjU0LDEyLjQxIGMgMCwwLjIyIC0wLjE4LDAuNCAtMC40MSwwLjQgLTAuMjIsMCAtMC40LC0wLjE4IC0wLjQsLTAuNCAwLC0wLjIzIDAuMTgsLTAuNDEgMC40LC0wLjQxIDAuMjMsMCAwLjQxLDAuMTggMC40MSwwLjQxIHoiLz4mI3hhOyYjeGE7PHBhdGggaWQ9InBhdGg2NjA3NCIgaW5rc2NhcGU6Y29ubmVjdG9yLWN1cnZhdHVyZT0iMCIgc3R5bGU9ImZpbGw6I2ZmZmZmZiIgZD0ibSAyMy41NSwyMS4xMiBjIC0wLjAyLDAgLTAuMDUsLTAuMDEgLTAuMDcsLTAuMDIgbCAtNS4wMywtMi45IGMgLTAuMDQsLTAuMDIgLTAuMDcsLTAuMDcgLTAuMDcsLTAuMTMgMCwtMC4wNSAwLjAzLC0wLjEgMC4wNywtMC4xMyBsIDUsLTIuODcgYyAwLjA0LC0wLjAzIDAuMSwtMC4wMyAwLjE1LDAgbCA1LjAyLDIuODkgYyAwLjA0LDAuMDMgMC4wNywwLjA4IDAuMDcsMC4xMyAwLDAuMDYgLTAuMDIsMC4xMSAtMC4wNywwLjEzIGwgLTQuOTksMi44OCBjIC0wLjAyLDAuMDEgLTAuMDUsMC4wMiAtMC4wOCwwLjAyIHoiLz4mI3hhOyYjeGE7PHBhdGggaWQ9InBhdGg2NjA4MiIgaW5rc2NhcGU6Y29ubmVjdG9yLWN1cnZhdHVyZT0iMCIgc3R5bGU9ImZpbGw6I2ZmZmZmZjtmaWxsLW9wYWNpdHk6MC43IiBkPSJtIDIyLjgzLDI4LjE2IGMgLTAuMDMsMCAtMC4wNSwtMC4wMSAtMC4wOCwtMC4wMiBsIC01LC0yLjg5IEMgMTcuNywyNS4yMyAxNy42NywyNS4xOCAxNy42NywyNS4xMiB2IC01Ljc5IGMgMCwtMC4wNSAwLjAzLC0wLjEgMC4wOCwtMC4xMyAwLjA0LC0wLjAzIDAuMSwtMC4wMyAwLjE1LDAgbCA1LjAxLDIuODkgYyAwLjA0LDAuMDMgMC4wNywwLjA3IDAuMDcsMC4xMyB2IDUuNzkgYyAwLDAuMDUgLTAuMDMsMC4xIC0wLjA3LDAuMTMgLTAuMDMsMC4wMSAtMC4wNSwwLjAyIC0wLjA4LDAuMDIgeiIvPiYjeGE7JiN4YTs8cGF0aCBpZD0icGF0aDY2MDkwIiBpbmtzY2FwZTpjb25uZWN0b3ItY3VydmF0dXJlPSIwIiBzdHlsZT0iZmlsbDojZmZmZmZmO2ZpbGwtb3BhY2l0eTowLjQiIGQ9Im0gMjQuMjUsMjguMTYgYyAtMC4wMywwIC0wLjA1LC0wLjAxIC0wLjA4LC0wLjAyIC0wLjA0LC0wLjAzIC0wLjA3LC0wLjA4IC0wLjA3LC0wLjEzIHYgLTUuNzYgYyAwLC0wLjA1IDAuMDMsLTAuMSAwLjA3LC0wLjEzIGwgNS4wMSwtMi44OCBjIDAuMDUsLTAuMDMgMC4xLC0wLjAzIDAuMTUsMCAwLjA1LDAuMDMgMC4wOCwwLjA4IDAuMDgsMC4xMyB2IDUuNzUgYyAwLDAuMDYgLTAuMDMsMC4xMSAtMC4wOCwwLjE0IGwgLTUsMi44OCBjIC0wLjAzLDAuMDEgLTAuMDUsMC4wMiAtMC4wOCwwLjAyIHoiLz4mI3hhOzwvc3ZnPg==;" parent="W8AcoZy5W2Z0syqtu2D5-82" vertex="1">
          <mxGeometry x="130" y="35.5" width="84" height="84" as="geometry" />
        </mxCell>
        <mxCell id="W8AcoZy5W2Z0syqtu2D5-87" value="" style="image;sketch=0;aspect=fixed;html=1;points=[];align=center;fontSize=12;image=img/lib/mscae/VM_Linux.svg;" parent="W8AcoZy5W2Z0syqtu2D5-82" vertex="1">
          <mxGeometry x="50" y="70" width="50" height="46" as="geometry" />
        </mxCell>
        <mxCell id="W8AcoZy5W2Z0syqtu2D5-88" value="" style="group" parent="1" vertex="1" connectable="0">
          <mxGeometry x="-520" y="980" width="240" height="140" as="geometry" />
        </mxCell>
        <mxCell id="W8AcoZy5W2Z0syqtu2D5-89" value="" style="rounded=0;whiteSpace=wrap;html=1;align=left;" parent="W8AcoZy5W2Z0syqtu2D5-88" vertex="1">
          <mxGeometry width="230" height="140" as="geometry" />
        </mxCell>
        <mxCell id="W8AcoZy5W2Z0syqtu2D5-90" value="&lt;b&gt;Business Analytics&lt;/b&gt;" style="text;html=1;align=center;verticalAlign=middle;whiteSpace=wrap;rounded=0;" parent="W8AcoZy5W2Z0syqtu2D5-88" vertex="1">
          <mxGeometry y="5.5" width="240" height="30" as="geometry" />
        </mxCell>
        <mxCell id="W8AcoZy5W2Z0syqtu2D5-91" value="" style="shape=image;verticalLabelPosition=bottom;labelBackgroundColor=#ffffff;verticalAlign=top;aspect=fixed;imageAspect=0;image=data:image/svg+xml,PHN2ZyB4bWxuczpjYz0iaHR0cDovL2NyZWF0aXZlY29tbW9ucy5vcmcvbnMjIiB4bWxuczpkYz0iaHR0cDovL3B1cmwub3JnL2RjL2VsZW1lbnRzLzEuMS8iIHhtbG5zOmlua3NjYXBlPSJodHRwOi8vd3d3Lmlua3NjYXBlLm9yZy9uYW1lc3BhY2VzL2lua3NjYXBlIiB4bWxuczpyZGY9Imh0dHA6Ly93d3cudzMub3JnLzE5OTkvMDIvMjItcmRmLXN5bnRheC1ucyMiIHhtbG5zOnNvZGlwb2RpPSJodHRwOi8vc29kaXBvZGkuc291cmNlZm9yZ2UubmV0L0RURC9zb2RpcG9kaS0wLmR0ZCIgeG1sbnM6c3ZnPSJodHRwOi8vd3d3LnczLm9yZy8yMDAwL3N2ZyIgeG1sbnM9Imh0dHA6Ly93d3cudzMub3JnLzIwMDAvc3ZnIiB4bWxuczp4bGluaz0iaHR0cDovL3d3dy53My5vcmcvMTk5OS94bGluayIgdmVyc2lvbj0iMS4xIiBpZD0ic3ZnMTM4NzI0IiBpbmtzY2FwZTp2ZXJzaW9uPSIwLjkyLjMgKDI0MDU1NDYsIDIwMTgtMDMtMTEpIiBzb2RpcG9kaTpkb2NuYW1lPSJhenVyZV92aXJ0dWFsX21hY2hpbmUuc3ZnIiB4PSIwcHgiIHk9IjBweCIgdmlld0JveD0iMCAwIDgwLjMzIDU5LjA2IiBzdHlsZT0iZW5hYmxlLWJhY2tncm91bmQ6bmV3IDAgMCA4MC4zMyA1OS4wNjsiIHhtbDpzcGFjZT0icHJlc2VydmUiPiYjeGE7PHNvZGlwb2RpOm5hbWVkdmlldyBib3JkZXJjb2xvcj0iIzY2NjY2NiIgYm9yZGVyb3BhY2l0eT0iMSIgZml0LW1hcmdpbi1ib3R0b209IjAiIGZpdC1tYXJnaW4tbGVmdD0iMCIgZml0LW1hcmdpbi1yaWdodD0iMCIgZml0LW1hcmdpbi10b3A9IjAiIGdyaWR0b2xlcmFuY2U9IjEwIiBndWlkZXRvbGVyYW5jZT0iMTAiIGlkPSJuYW1lZHZpZXcxMzg3MjYiIGlua3NjYXBlOmN1cnJlbnQtbGF5ZXI9InN2ZzEzODcyNCIgaW5rc2NhcGU6Y3g9IjUzLjUzMTY3NyIgaW5rc2NhcGU6Y3k9IjM5LjM3MTEzMyIgaW5rc2NhcGU6cGFnZW9wYWNpdHk9IjAiIGlua3NjYXBlOnBhZ2VzaGFkb3c9IjIiIGlua3NjYXBlOndpbmRvdy1oZWlnaHQ9IjEwMTciIGlua3NjYXBlOndpbmRvdy1tYXhpbWl6ZWQ9IjEiIGlua3NjYXBlOndpbmRvdy13aWR0aD0iMTkyMCIgaW5rc2NhcGU6d2luZG93LXg9Ii04IiBpbmtzY2FwZTp3aW5kb3cteT0iLTgiIGlua3NjYXBlOnpvb209IjEwLjczNjY4NyIgb2JqZWN0dG9sZXJhbmNlPSIxMCIgcGFnZWNvbG9yPSIjZmZmZmZmIiBzaG93Z3JpZD0iZmFsc2UiPiYjeGE7CTwvc29kaXBvZGk6bmFtZWR2aWV3PiYjeGE7PGcgaWQ9ImcxMzg3MjIiIHRyYW5zZm9ybT0idHJhbnNsYXRlKC0wLjc2MjAwMjY1LC0wLjc0OTk5NDI3KSI+JiN4YTsJPHRpdGxlIGlkPSJ0aXRsZTEzODY5MiI+UGFnZS0xPC90aXRsZT4mI3hhOwk8ZyBpZD0iZ3JvdXA4NjIyLTEiIHRyYW5zZm9ybT0idHJhbnNsYXRlKDAuNzUwMTI0LC0wLjc1MDkwNikiPiYjeGE7CQk8dGl0bGUgaWQ9InRpdGxlMTM4Njk0Ij5BenVyZSBWaXJ0dWFsIE1hY2hpbmU8L3RpdGxlPiYjeGE7CQk8ZyBpZD0ic2hhcGU4NjIzLTIiIHRyYW5zZm9ybT0idHJhbnNsYXRlKDI2LjUwNDcsLTcuNDc3NSkiPiYjeGE7CQkJPHRpdGxlIGlkPSJ0aXRsZTEzODY5NiI+cGF0aDYyMDM8L3RpdGxlPiYjeGE7CQkJPHBhdGggaWQ9InBhdGgxMzg2OTgiIGlua3NjYXBlOmNvbm5lY3Rvci1jdXJ2YXR1cmU9IjAiIHN0eWxlPSJmaWxsOiNDNkUxRjY7IiBkPSJNNDMuMjIsNjAuNTZIMTQuNjVjLTIuNzMsMC00LjQ2LDAtNS43My0wLjEzICAgICBIOC42N2MtMS0wLjEtMS45OC0wLjM3LTIuOS0wLjhsLTAuMTUtMC4wNmMtNC45MS0yLjMtNy4wMy04LjE1LTQuNzMtMTMuMDZjMS4yNi0yLjY5LDMuNjctNC42Nyw2LjU1LTUuMzggICAgIGMxLjQzLTAuMzQsMi45My0wLjM2LDQuMzctMC4wNmMxLjQ5LTQuMjMsNS40Ny03LjA3LDkuOTUtNy4xMmMxLjYxLTAuMDEsMy4yLDAuMzYsNC42NSwxLjA4YzEuODYtMy4wNSw1LjE3LTQuOTEsOC43NC00LjkyICAgICBjNS4xNiwwLjA5LDkuNSwzLjg5LDEwLjI2LDljNS44NSwxLjM1LDkuNSw3LjIsOC4xNCwxMy4wNWMtMC45NCw0LjA4LTQuMTUsNy4yNS04LjIzLDguMTZDNDQuNjMsNjAuNDgsNDMuOTMsNjAuNTYsNDMuMjIsNjAuNTZ6ICAgICAiLz4mI3hhOwkJPC9nPiYjeGE7CQk8ZyBpZD0ic2hhcGU4NjI0LTQiIHRyYW5zZm9ybT0idHJhbnNsYXRlKDMwLjQ4NTQsLTguODEyNSkiPiYjeGE7CQkJPHRpdGxlIGlkPSJ0aXRsZTEzODcwMSI+cmVjdDYyMDU8L3RpdGxlPiYjeGE7CQkJPHJlY3QgaWQ9InJlY3QxMzg3MDMiIHg9IjAiIHk9IjEwLjMxIiBzdHlsZT0iZmlsbDojMzMzMzMzOyIgd2lkdGg9IjMwLjc1IiBoZWlnaHQ9IjUwLjI1Ii8+JiN4YTsJCTwvZz4mI3hhOwkJPGcgaWQ9InNoYXBlODYyNS02IiB0cmFuc2Zvcm09InRyYW5zbGF0ZSgzNS43MzU0LC00OS4zMTI1KSI+JiN4YTsJCQk8dGl0bGUgaWQ9InRpdGxlMTM4NzA2Ij5yZWN0NjIwNzwvdGl0bGU+JiN4YTsJCQk8cmVjdCBpZD0icmVjdDEzODcwOCIgeD0iMCIgeT0iNTYuMDYiIHN0eWxlPSJmaWxsOiM5MDkwOTA7IiB3aWR0aD0iMjAuMjUiIGhlaWdodD0iNC41Ii8+JiN4YTsJCTwvZz4mI3hhOwkJPGcgaWQ9InNoYXBlODYyNi04IiB0cmFuc2Zvcm09InRyYW5zbGF0ZSgzNS43MzU0LC0zOS41NjI1KSI+JiN4YTsJCQk8dGl0bGUgaWQ9InRpdGxlMTM4NzExIj5yZWN0NjIwOTwvdGl0bGU+JiN4YTsJCQk8cmVjdCBpZD0icmVjdDEzODcxMyIgeD0iMCIgeT0iNTYuMDYiIHN0eWxlPSJmaWxsOiM5MDkwOTA7IiB3aWR0aD0iMjAuMjUiIGhlaWdodD0iNC41Ii8+JiN4YTsJCTwvZz4mI3hhOwkJPGcgaWQ9InNoYXBlODYyNy0xMCI+JiN4YTsJCQk8dGl0bGUgaWQ9InRpdGxlMTM4NzE2Ij5wYXRoNjIxOTwvdGl0bGU+JiN4YTsJCQk8cGF0aCBpZD0icGF0aDEzODcxOCIgaW5rc2NhcGU6Y29ubmVjdG9yLWN1cnZhdHVyZT0iMCIgc3R5bGU9ImZpbGw6I0FBRDJGMjsiIGQ9Ik0xMC40OSw2MC4yOUMzLjI2LDU4LjY2LTEuMjksNTEuNDgsMC4zNCw0NC4yNSAgICAgYzEuMTMtNS4wMiw1LjAzLTguOTUsMTAuMDQtMTAuMTNjMC45NC02LjMsNi4zLTExLDEyLjY3LTExLjFjNC40LDAuMDEsOC40OSwyLjMsMTAuNzksNi4wNmMxLjc3LTAuODgsMy43Mi0xLjM0LDUuNjktMS4zNCAgICAgYzUuNTMsMC4wNSwxMC40NCwzLjU1LDEyLjI5LDguNzZjMS43OC0wLjM4LDMuNjMtMC4zNSw1LjQsMC4wN2M2LjUxLDEuNTksMTAuNDksOC4xNSw4LjksMTQuNjZjLTAuODcsMy41Ny0zLjMyLDYuNTUtNi42NSw4LjExICAgICBsLTAuMTksMC4wOGMtMS4xMywwLjUzLTIuMzUsMC44Ni0zLjU5LDAuOThoLTAuM2MtMS41OCwwLjEzLTMuNzEsMC4xNi03LjA4LDAuMTZIMTMuMDZDMTIuMiw2MC41NywxMS4zMyw2MC40OCwxMC40OSw2MC4yOXoiLz4mI3hhOwkJPC9nPiYjeGE7CTwvZz4mI3hhOzwvZz4mI3hhOzwvc3ZnPg==;" parent="W8AcoZy5W2Z0syqtu2D5-88" vertex="1">
          <mxGeometry x="5" y="35.500000000000455" width="80" height="59" as="geometry" />
        </mxCell>
        <mxCell id="W8AcoZy5W2Z0syqtu2D5-92" value="" style="shape=image;verticalLabelPosition=bottom;labelBackgroundColor=#ffffff;verticalAlign=top;aspect=fixed;imageAspect=0;image=data:image/svg+xml,PHN2ZyB4bWxuczpkYz0iaHR0cDovL3B1cmwub3JnL2RjL2VsZW1lbnRzLzEuMS8iIHhtbG5zOmNjPSJodHRwOi8vY3JlYXRpdmVjb21tb25zLm9yZy9ucyMiIHhtbG5zOnJkZj0iaHR0cDovL3d3dy53My5vcmcvMTk5OS8wMi8yMi1yZGYtc3ludGF4LW5zIyIgeG1sbnM6c3ZnPSJodHRwOi8vd3d3LnczLm9yZy8yMDAwL3N2ZyIgeG1sbnM9Imh0dHA6Ly93d3cudzMub3JnLzIwMDAvc3ZnIiB4bWxuczpzb2RpcG9kaT0iaHR0cDovL3NvZGlwb2RpLnNvdXJjZWZvcmdlLm5ldC9EVEQvc29kaXBvZGktMC5kdGQiIHhtbG5zOmlua3NjYXBlPSJodHRwOi8vd3d3Lmlua3NjYXBlLm9yZy9uYW1lc3BhY2VzL2lua3NjYXBlIiB2ZXJzaW9uPSIxLjEiIGlkPSJzdmc2NjA5NiIgaW5rc2NhcGU6dmVyc2lvbj0iMC45Mi4zICgyNDA1NTQ2LCAyMDE4LTAzLTExKSIgc29kaXBvZGk6ZG9jbmFtZT0iYXp1cmVfdm1fc2NhbGVfc2V0LnN2ZyIgeD0iMHB4IiB5PSIwcHgiIHZpZXdCb3g9IjAgMCAzNy41IDM3LjUiIHhtbDpzcGFjZT0icHJlc2VydmUiIHdpZHRoPSIzNy41IiBoZWlnaHQ9IjM3LjUiPjxtZXRhZGF0YSBpZD0ibWV0YWRhdGEyMDk1NyI+PHJkZjpSREY+PGNjOldvcmsgcmRmOmFib3V0PSIiPjxkYzpmb3JtYXQ+aW1hZ2Uvc3ZnK3htbDwvZGM6Zm9ybWF0PjxkYzp0eXBlIHJkZjpyZXNvdXJjZT0iaHR0cDovL3B1cmwub3JnL2RjL2RjbWl0eXBlL1N0aWxsSW1hZ2UiLz48ZGM6dGl0bGUvPjwvY2M6V29yaz48L3JkZjpSREY+PC9tZXRhZGF0YT48ZGVmcyBpZD0iZGVmczIwOTU1Ii8+JiN4YTs8ZmlsdGVyIGlkPSJmaWx0ZXJfMiI+JiN4YTsJPGZlR2F1c3NpYW5CbHVyIGlkPSJmZUdhdXNzaWFuQmx1cjY1OTMzIiBzdGREZXZpYXRpb249IjIiLz4mI3hhOzwvZmlsdGVyPiYjeGE7PHNvZGlwb2RpOm5hbWVkdmlldyBib3JkZXJjb2xvcj0iIzY2NjY2NiIgYm9yZGVyb3BhY2l0eT0iMSIgZml0LW1hcmdpbi1ib3R0b209IjAiIGZpdC1tYXJnaW4tbGVmdD0iMCIgZml0LW1hcmdpbi1yaWdodD0iMCIgZml0LW1hcmdpbi10b3A9IjAiIGdyaWR0b2xlcmFuY2U9IjEwIiBndWlkZXRvbGVyYW5jZT0iMTAiIGlkPSJuYW1lZHZpZXc2NjA5OCIgaW5rc2NhcGU6Y3VycmVudC1sYXllcj0ic3ZnNjYwOTYiIGlua3NjYXBlOmN4PSItNS43MTM2Mjk5IiBpbmtzY2FwZTpjeT0iOC42NTU1MTUzIiBpbmtzY2FwZTpwYWdlb3BhY2l0eT0iMCIgaW5rc2NhcGU6cGFnZXNoYWRvdz0iMiIgaW5rc2NhcGU6d2luZG93LWhlaWdodD0iMTAxNyIgaW5rc2NhcGU6d2luZG93LW1heGltaXplZD0iMSIgaW5rc2NhcGU6d2luZG93LXdpZHRoPSIxOTIwIiBpbmtzY2FwZTp3aW5kb3cteD0iLTgiIGlua3NjYXBlOndpbmRvdy15PSItOCIgaW5rc2NhcGU6em9vbT0iMTAuNTcwMDIyIiBvYmplY3R0b2xlcmFuY2U9IjEwIiBwYWdlY29sb3I9IiNmZmZmZmYiIHNob3dncmlkPSJmYWxzZSI+JiN4YTsJPC9zb2RpcG9kaTpuYW1lZHZpZXc+JiN4YTsmI3hhOzxwYXRoIGlkPSJwYXRoNjU5NDYiIGlua3NjYXBlOmNvbm5lY3Rvci1jdXJ2YXR1cmU9IjAiIHN0eWxlPSJmaWxsOiNhMGExYTIiIGQ9Ik0gMjYuNzksMCBIIDEuNTUgQyAwLjY5LDAgMCwwLjc3IDAsMS42MiBWIDE5LjIgYyAwLDAuODUgMC42OSwxLjYxIDEuNTUsMS42MSBoIDI1LjI0IGMgMC44NiwwIDEuNzIsLTAuNzYgMS43MiwtMS42MSBWIDEuNjIgQyAyOC41MSwwLjc2IDI3LjY1LDAgMjYuNzksMCBaIi8+JiN4YTsmI3hhOzxwYXRoIGlkPSJwYXRoNjU5NTQiIGlua3NjYXBlOmNvbm5lY3Rvci1jdXJ2YXR1cmU9IjAiIHN0eWxlPSJmaWxsOiNmZmZmZmY7ZmlsbC1vcGFjaXR5OjAuMiIgZD0iTSAyNi44MSwwIEMgMjYuOCwwIDI2LjgsMCAyNi43OSwwIEggMS41NSBDIDAuNjksMCAwLDAuNzcgMCwxLjYyIFYgMTkuMiBjIDAsMC44NSAwLjY5LDEuNjEgMS41NSwxLjYxIGggMC42IHoiLz4mI3hhOyYjeGE7PHBhdGggaWQ9InBhdGg2NTk2MiIgaW5rc2NhcGU6Y29ubmVjdG9yLWN1cnZhdHVyZT0iMCIgc3R5bGU9ImZpbGw6IzU5YjRkOSIgZD0iTSAyNi4zNSwxOC42MiBIIDIuMTYgViAyLjE5IEwgMjYuMzUsMi4xNiBaIi8+JiN4YTsmI3hhOzxwYXRoIGlkPSJwYXRoNjU5NzAiIGlua3NjYXBlOmNvbm5lY3Rvci1jdXJ2YXR1cmU9IjAiIHN0eWxlPSJmaWxsOiNiOGQ0MzIiIGQ9Im0gMTQuNTUsMS4yIGMgMCwwLjIyIC0wLjE4LDAuNCAtMC40MSwwLjQgLTAuMjIsMCAtMC40LC0wLjE4IC0wLjQsLTAuNCAwLC0wLjIzIDAuMTgsLTAuNDEgMC40LC0wLjQxIDAuMjMsMCAwLjQxLDAuMTggMC40MSwwLjQxIHoiLz4mI3hhOyYjeGE7PHBhdGggaWQ9InBhdGg2NTk3OCIgaW5rc2NhcGU6Y29ubmVjdG9yLWN1cnZhdHVyZT0iMCIgc3R5bGU9ImZpbGw6I2ZmZmZmZiIgZD0iTSAxNC41Nyw5LjkxIEMgMTQuNTUsOS45MSAxNC41Miw5LjkgMTQuNSw5Ljg5IEwgOS40Nyw2Ljk5IEMgOS40Myw2Ljk3IDkuNCw2LjkyIDkuNCw2Ljg2IDkuNCw2LjgxIDkuNDMsNi43NiA5LjQ3LDYuNzMgbCA1LC0yLjg3IGMgMC4wNCwtMC4wMyAwLjEsLTAuMDMgMC4xNSwwIGwgNS4wMiwyLjg5IGMgMC4wNCwwLjAzIDAuMDcsMC4wOCAwLjA3LDAuMTMgMCwwLjA2IC0wLjAyLDAuMTEgLTAuMDcsMC4xMyBMIDE0LjY1LDkuODkgQyAxNC42Myw5LjkgMTQuNiw5LjkxIDE0LjU3LDkuOTEgWiIvPiYjeGE7JiN4YTs8cGF0aCBpZD0icGF0aDY1OTg2IiBpbmtzY2FwZTpjb25uZWN0b3ItY3VydmF0dXJlPSIwIiBzdHlsZT0iZmlsbDojYTBhMWEyIiBkPSJNIDMxLjI1LDUuNTkgSCA2LjAxIGMgLTAuODYsMCAtMS41NSwwLjc3IC0xLjU1LDEuNjIgdiAxNy41OCBjIDAsMC44NSAwLjY5LDEuNjEgMS41NSwxLjYxIGggMjUuMjQgYyAwLjg2LDAgMS43MiwtMC43NiAxLjcyLC0xLjYxIFYgNy4yMSBjIDAsLTAuODYgLTAuODYsLTEuNjIgLTEuNzIsLTEuNjIgeiIvPiYjeGE7JiN4YTs8cGF0aCBpZD0icGF0aDY1OTk0IiBpbmtzY2FwZTpjb25uZWN0b3ItY3VydmF0dXJlPSIwIiBzdHlsZT0iZmlsbDojZmZmZmZmO2ZpbGwtb3BhY2l0eTowLjIiIGQ9Im0gMzEuMjcsNS41OSBjIC0wLjAxLDAgLTAuMDEsMCAtMC4wMiwwIEggNi4wMSBjIC0wLjg2LDAgLTEuNTUsMC43NyAtMS41NSwxLjYyIHYgMTcuNTggYyAwLDAuODUgMC42OSwxLjYxIDEuNTUsMS42MSBoIDAuNiB6Ii8+JiN4YTsmI3hhOzxwYXRoIGlkPSJwYXRoNjYwMDIiIGlua3NjYXBlOmNvbm5lY3Rvci1jdXJ2YXR1cmU9IjAiIHN0eWxlPSJmaWxsOiM1OWI0ZDkiIGQ9Ik0gMzAuODEsMjQuMjEgSCA2LjYyIFYgNy43OCBMIDMwLjgxLDcuNzUgYyAwLDAgMCwxNi40NiAwLDE2LjQ2IHoiLz4mI3hhOyYjeGE7PHBhdGggaWQ9InBhdGg2NjAxMCIgaW5rc2NhcGU6Y29ubmVjdG9yLWN1cnZhdHVyZT0iMCIgc3R5bGU9ImZpbGw6I2I4ZDQzMiIgZD0ibSAxOS4wMSw2Ljc5IGMgMCwwLjIyIC0wLjE4LDAuNCAtMC40MSwwLjQgLTAuMjIsMCAtMC40LC0wLjE4IC0wLjQsLTAuNCAwLC0wLjIzIDAuMTgsLTAuNDEgMC40LC0wLjQxIDAuMjMsMCAwLjQxLDAuMTggMC40MSwwLjQxIHoiLz4mI3hhOyYjeGE7PHBhdGggaWQ9InBhdGg2NjAxOCIgaW5rc2NhcGU6Y29ubmVjdG9yLWN1cnZhdHVyZT0iMCIgc3R5bGU9ImZpbGw6I2ZmZmZmZiIgZD0ibSAxOS4wMywxNS41IGMgLTAuMDIsMCAtMC4wNSwtMC4wMSAtMC4wNywtMC4wMiBsIC01LjAzLC0yLjkgYyAtMC4wNCwtMC4wMiAtMC4wNywtMC4wNyAtMC4wNywtMC4xMyAwLC0wLjA1IDAuMDMsLTAuMSAwLjA3LC0wLjEzIGwgNSwtMi44NyBjIDAuMDQsLTAuMDMgMC4xLC0wLjAzIDAuMTUsMCBsIDUuMDIsMi44OSBjIDAuMDQsMC4wMyAwLjA3LDAuMDggMC4wNywwLjEzIDAsMC4wNiAtMC4wMiwwLjExIC0wLjA3LDAuMTMgbCAtNC45OSwyLjg4IGMgLTAuMDMsMC4wMSAtMC4wNSwwLjAyIC0wLjA4LDAuMDIgeiIvPiYjeGE7JiN4YTs8cGF0aCBpZD0icGF0aDY2MDI2IiBpbmtzY2FwZTpjb25uZWN0b3ItY3VydmF0dXJlPSIwIiBzdHlsZT0iZmlsbDojN2E3YTdhIiBkPSJNIDI3LjQ4LDMyLjAyIEggMjYuOCAyMC4wNyAxOS43MiBjIDAuOTMsMy4yOSAtMC4zMiwzLjc2IC01LjgsMy43NiB2IDEuNzIgaCA2Ljk3IDUuMDkgNi41OCB2IC0xLjcyIGMgLTUuNDgsMCAtNi4wMiwtMC40NyAtNS4wOCwtMy43NiB6Ii8+JiN4YTsmI3hhOzxwYXRoIGlkPSJwYXRoNjYwMzQiIGlua3NjYXBlOmNvbm5lY3Rvci1jdXJ2YXR1cmU9IjAiIHN0eWxlPSJmaWxsOiNhMGExYTIiIGQ9Ik0gMzUuNzgsMTEuMjIgSCAxMC41NCBjIC0wLjg2LDAgLTEuNTUsMC43NyAtMS41NSwxLjYyIHYgMTcuNTggYyAwLDAuODUgMC42OSwxLjYxIDEuNTUsMS42MSBoIDI1LjI0IGMgMC44NiwwIDEuNzIsLTAuNzYgMS43MiwtMS42MSBWIDEyLjg0IGMgMCwtMC44NSAtMC44NiwtMS42MiAtMS43MiwtMS42MiB6Ii8+JiN4YTsmI3hhOzxwYXRoIGlkPSJwYXRoNjYwNDIiIGlua3NjYXBlOmNvbm5lY3Rvci1jdXJ2YXR1cmU9IjAiIHN0eWxlPSJmaWxsOiNmZmZmZmY7ZmlsbC1vcGFjaXR5OjAuMiIgZD0ibSAzNS43OSwxMS4yMiBjIC0wLjAxLDAgLTAuMDEsMCAtMC4wMiwwIEggMTAuNTMgYyAtMC44NiwwIC0xLjU1LDAuNzcgLTEuNTUsMS42MiB2IDE3LjU4IGMgMCwwLjg1IDAuNjksMS42MSAxLjU1LDEuNjEgaCAwLjYgeiIvPiYjeGE7JiN4YTs8cGF0aCBpZD0icGF0aDY2MDUwIiBpbmtzY2FwZTpjb25uZWN0b3ItY3VydmF0dXJlPSIwIiBzdHlsZT0iZmlsbDojNTliNGQ5IiBkPSJNIDM1LjM0LDI5Ljg0IEggMTEuMTUgViAxMy40MSBsIDI0LjE5LC0wLjAzIHoiLz4mI3hhOyYjeGE7PHJlY3QgaWQ9InJlY3Q2NjA1OCIgeD0iMTMuOTE5OTk4IiB5PSIzNS43Nzk5OTkiIHN0eWxlPSJmaWxsOiNhMGExYTIiIHdpZHRoPSIxOC42Mzk5OTkiIGhlaWdodD0iMS43MiIvPiYjeGE7JiN4YTs8cGF0aCBpZD0icGF0aDY2MDY2IiBpbmtzY2FwZTpjb25uZWN0b3ItY3VydmF0dXJlPSIwIiBzdHlsZT0iZmlsbDojYjhkNDMyIiBkPSJtIDIzLjU0LDEyLjQxIGMgMCwwLjIyIC0wLjE4LDAuNCAtMC40MSwwLjQgLTAuMjIsMCAtMC40LC0wLjE4IC0wLjQsLTAuNCAwLC0wLjIzIDAuMTgsLTAuNDEgMC40LC0wLjQxIDAuMjMsMCAwLjQxLDAuMTggMC40MSwwLjQxIHoiLz4mI3hhOyYjeGE7PHBhdGggaWQ9InBhdGg2NjA3NCIgaW5rc2NhcGU6Y29ubmVjdG9yLWN1cnZhdHVyZT0iMCIgc3R5bGU9ImZpbGw6I2ZmZmZmZiIgZD0ibSAyMy41NSwyMS4xMiBjIC0wLjAyLDAgLTAuMDUsLTAuMDEgLTAuMDcsLTAuMDIgbCAtNS4wMywtMi45IGMgLTAuMDQsLTAuMDIgLTAuMDcsLTAuMDcgLTAuMDcsLTAuMTMgMCwtMC4wNSAwLjAzLC0wLjEgMC4wNywtMC4xMyBsIDUsLTIuODcgYyAwLjA0LC0wLjAzIDAuMSwtMC4wMyAwLjE1LDAgbCA1LjAyLDIuODkgYyAwLjA0LDAuMDMgMC4wNywwLjA4IDAuMDcsMC4xMyAwLDAuMDYgLTAuMDIsMC4xMSAtMC4wNywwLjEzIGwgLTQuOTksMi44OCBjIC0wLjAyLDAuMDEgLTAuMDUsMC4wMiAtMC4wOCwwLjAyIHoiLz4mI3hhOyYjeGE7PHBhdGggaWQ9InBhdGg2NjA4MiIgaW5rc2NhcGU6Y29ubmVjdG9yLWN1cnZhdHVyZT0iMCIgc3R5bGU9ImZpbGw6I2ZmZmZmZjtmaWxsLW9wYWNpdHk6MC43IiBkPSJtIDIyLjgzLDI4LjE2IGMgLTAuMDMsMCAtMC4wNSwtMC4wMSAtMC4wOCwtMC4wMiBsIC01LC0yLjg5IEMgMTcuNywyNS4yMyAxNy42NywyNS4xOCAxNy42NywyNS4xMiB2IC01Ljc5IGMgMCwtMC4wNSAwLjAzLC0wLjEgMC4wOCwtMC4xMyAwLjA0LC0wLjAzIDAuMSwtMC4wMyAwLjE1LDAgbCA1LjAxLDIuODkgYyAwLjA0LDAuMDMgMC4wNywwLjA3IDAuMDcsMC4xMyB2IDUuNzkgYyAwLDAuMDUgLTAuMDMsMC4xIC0wLjA3LDAuMTMgLTAuMDMsMC4wMSAtMC4wNSwwLjAyIC0wLjA4LDAuMDIgeiIvPiYjeGE7JiN4YTs8cGF0aCBpZD0icGF0aDY2MDkwIiBpbmtzY2FwZTpjb25uZWN0b3ItY3VydmF0dXJlPSIwIiBzdHlsZT0iZmlsbDojZmZmZmZmO2ZpbGwtb3BhY2l0eTowLjQiIGQ9Im0gMjQuMjUsMjguMTYgYyAtMC4wMywwIC0wLjA1LC0wLjAxIC0wLjA4LC0wLjAyIC0wLjA0LC0wLjAzIC0wLjA3LC0wLjA4IC0wLjA3LC0wLjEzIHYgLTUuNzYgYyAwLC0wLjA1IDAuMDMsLTAuMSAwLjA3LC0wLjEzIGwgNS4wMSwtMi44OCBjIDAuMDUsLTAuMDMgMC4xLC0wLjAzIDAuMTUsMCAwLjA1LDAuMDMgMC4wOCwwLjA4IDAuMDgsMC4xMyB2IDUuNzUgYyAwLDAuMDYgLTAuMDMsMC4xMSAtMC4wOCwwLjE0IGwgLTUsMi44OCBjIC0wLjAzLDAuMDEgLTAuMDUsMC4wMiAtMC4wOCwwLjAyIHoiLz4mI3hhOzwvc3ZnPg==;" parent="W8AcoZy5W2Z0syqtu2D5-88" vertex="1">
          <mxGeometry x="130" y="35.5" width="84" height="84" as="geometry" />
        </mxCell>
        <mxCell id="W8AcoZy5W2Z0syqtu2D5-93" value="" style="image;sketch=0;aspect=fixed;html=1;points=[];align=center;fontSize=12;image=img/lib/mscae/VM_Linux.svg;" parent="W8AcoZy5W2Z0syqtu2D5-88" vertex="1">
          <mxGeometry x="50" y="70" width="50" height="46" as="geometry" />
        </mxCell>
        <mxCell id="W8AcoZy5W2Z0syqtu2D5-101" value="On Premises" style="text;html=1;align=center;verticalAlign=middle;whiteSpace=wrap;rounded=0;fontStyle=1;fontSize=18;" parent="1" vertex="1">
          <mxGeometry x="-1600" y="450" width="169" height="30" as="geometry" />
        </mxCell>
        <mxCell id="W8AcoZy5W2Z0syqtu2D5-102" value="Azure Cloud" style="text;html=1;align=center;verticalAlign=middle;whiteSpace=wrap;rounded=0;fontStyle=1;fontSize=18;" parent="1" vertex="1">
          <mxGeometry x="-903.5" y="420" width="153.5" height="40" as="geometry" />
        </mxCell>
        <mxCell id="W8AcoZy5W2Z0syqtu2D5-105" value="" style="group" parent="1" vertex="1" connectable="0">
          <mxGeometry x="-511.75" y="205" width="250" height="160" as="geometry" />
        </mxCell>
        <mxCell id="W8AcoZy5W2Z0syqtu2D5-106" value="" style="rounded=0;whiteSpace=wrap;html=1;align=left;" parent="W8AcoZy5W2Z0syqtu2D5-105" vertex="1">
          <mxGeometry width="249.99999999999997" height="160" as="geometry" />
        </mxCell>
        <mxCell id="W8AcoZy5W2Z0syqtu2D5-107" value="&lt;b&gt;Standard On Premises Deployment&lt;/b&gt;" style="text;html=1;align=center;verticalAlign=middle;whiteSpace=wrap;rounded=0;" parent="W8AcoZy5W2Z0syqtu2D5-105" vertex="1">
          <mxGeometry x="21.551724137931032" y="8.421052631578947" width="206.8965517241379" height="25.263157894736842" as="geometry" />
        </mxCell>
        <mxCell id="W8AcoZy5W2Z0syqtu2D5-110" value="" style="sketch=0;aspect=fixed;pointerEvents=1;shadow=0;dashed=0;html=1;strokeColor=none;labelPosition=center;verticalLabelPosition=bottom;verticalAlign=top;align=center;fillColor=#00188D;shape=mxgraph.azure.virtual_machine_feature" parent="W8AcoZy5W2Z0syqtu2D5-105" vertex="1">
          <mxGeometry x="21.551724137931032" y="44.63157894736842" width="42.10526315789473" height="37.89473684210526" as="geometry" />
        </mxCell>
        <mxCell id="W8AcoZy5W2Z0syqtu2D5-111" value="" style="sketch=0;aspect=fixed;pointerEvents=1;shadow=0;dashed=0;html=1;strokeColor=none;labelPosition=center;verticalLabelPosition=bottom;verticalAlign=top;align=center;fillColor=#00188D;shape=mxgraph.azure.virtual_machine_feature" parent="W8AcoZy5W2Z0syqtu2D5-105" vertex="1">
          <mxGeometry x="77.58620689655172" y="45.473684210526315" width="42.10526315789473" height="37.89473684210526" as="geometry" />
        </mxCell>
        <mxCell id="W8AcoZy5W2Z0syqtu2D5-114" value="ProxMox Virtual Machines" style="text;html=1;align=center;verticalAlign=middle;whiteSpace=wrap;rounded=0;" parent="W8AcoZy5W2Z0syqtu2D5-105" vertex="1">
          <mxGeometry x="21.551724137931032" y="94.3157894736842" width="94.82758620689654" height="25.263157894736842" as="geometry" />
        </mxCell>
        <mxCell id="W8AcoZy5W2Z0syqtu2D5-115" value="" style="group" parent="1" vertex="1" connectable="0">
          <mxGeometry x="-150" y="440" width="273" height="140" as="geometry" />
        </mxCell>
        <mxCell id="W8AcoZy5W2Z0syqtu2D5-41" value="" style="rounded=0;whiteSpace=wrap;html=1;align=left;" parent="W8AcoZy5W2Z0syqtu2D5-115" vertex="1">
          <mxGeometry width="273" height="140" as="geometry" />
        </mxCell>
        <mxCell id="W8AcoZy5W2Z0syqtu2D5-42" value="" style="shape=image;verticalLabelPosition=bottom;labelBackgroundColor=#ffffff;verticalAlign=top;aspect=fixed;imageAspect=0;image=data:image/svg+xml,PHN2ZyB4bWxuczpkYz0iaHR0cDovL3B1cmwub3JnL2RjL2VsZW1lbnRzLzEuMS8iIHhtbG5zOmNjPSJodHRwOi8vY3JlYXRpdmVjb21tb25zLm9yZy9ucyMiIHhtbG5zOnJkZj0iaHR0cDovL3d3dy53My5vcmcvMTk5OS8wMi8yMi1yZGYtc3ludGF4LW5zIyIgeG1sbnM6c3ZnPSJodHRwOi8vd3d3LnczLm9yZy8yMDAwL3N2ZyIgeG1sbnM9Imh0dHA6Ly93d3cudzMub3JnLzIwMDAvc3ZnIiB4bWxuczpzb2RpcG9kaT0iaHR0cDovL3NvZGlwb2RpLnNvdXJjZWZvcmdlLm5ldC9EVEQvc29kaXBvZGktMC5kdGQiIHhtbG5zOmlua3NjYXBlPSJodHRwOi8vd3d3Lmlua3NjYXBlLm9yZy9uYW1lc3BhY2VzL2lua3NjYXBlIiB2ZXJzaW9uPSIxLjEiIGlkPSJzdmcxNTU1MjEiIGlua3NjYXBlOnZlcnNpb249IjAuOTIuMyAoMjQwNTU0NiwgMjAxOC0wMy0xMSkiIHNvZGlwb2RpOmRvY25hbWU9ImF6dXJlX2FwcF9zZXJ2aWNlXzEuc3ZnIiB4PSIwcHgiIHk9IjBweCIgdmlld0JveD0iMCAwIDY2LjM3IDY2LjIxIiB4bWw6c3BhY2U9InByZXNlcnZlIiB3aWR0aD0iNjYuMzcwMDAzIiBoZWlnaHQ9IjY2LjIwOTk5OSI+PG1ldGFkYXRhIGlkPSJtZXRhZGF0YTE4NzY2Ij48cmRmOlJERj48Y2M6V29yayByZGY6YWJvdXQ9IiI+PGRjOmZvcm1hdD5pbWFnZS9zdmcreG1sPC9kYzpmb3JtYXQ+PGRjOnR5cGUgcmRmOnJlc291cmNlPSJodHRwOi8vcHVybC5vcmcvZGMvZGNtaXR5cGUvU3RpbGxJbWFnZSIvPjxkYzp0aXRsZS8+PC9jYzpXb3JrPjwvcmRmOlJERj48L21ldGFkYXRhPjxkZWZzIGlkPSJkZWZzMTg3NjQiLz4mI3hhOzxmaWx0ZXIgaWQ9ImZpbHRlcl8yIj4mI3hhOwk8ZmVHYXVzc2lhbkJsdXIgaWQ9ImZlR2F1c3NpYW5CbHVyMTU1NDY3IiBzdGREZXZpYXRpb249IjIiLz4mI3hhOzwvZmlsdGVyPiYjeGE7PHNvZGlwb2RpOm5hbWVkdmlldyBib3JkZXJjb2xvcj0iIzY2NjY2NiIgYm9yZGVyb3BhY2l0eT0iMSIgZml0LW1hcmdpbi1ib3R0b209IjAiIGZpdC1tYXJnaW4tbGVmdD0iMCIgZml0LW1hcmdpbi1yaWdodD0iMCIgZml0LW1hcmdpbi10b3A9IjAiIGdyaWR0b2xlcmFuY2U9IjEwIiBndWlkZXRvbGVyYW5jZT0iMTAiIGlkPSJuYW1lZHZpZXcxNTU1MjMiIGlua3NjYXBlOmN1cnJlbnQtbGF5ZXI9InN2ZzE1NTUyMSIgaW5rc2NhcGU6Y3g9IjE4LjQxNjAxNyIgaW5rc2NhcGU6Y3k9IjIzLjY2MTEzMSIgaW5rc2NhcGU6cGFnZW9wYWNpdHk9IjAiIGlua3NjYXBlOnBhZ2VzaGFkb3c9IjIiIGlua3NjYXBlOndpbmRvdy1oZWlnaHQ9IjEwMTciIGlua3NjYXBlOndpbmRvdy1tYXhpbWl6ZWQ9IjEiIGlua3NjYXBlOndpbmRvdy13aWR0aD0iMTkyMCIgaW5rc2NhcGU6d2luZG93LXg9Ii04IiBpbmtzY2FwZTp3aW5kb3cteT0iLTgiIGlua3NjYXBlOnpvb209IjYuODUwMDQ2MiIgb2JqZWN0dG9sZXJhbmNlPSIxMCIgcGFnZWNvbG9yPSIjZmZmZmZmIiBzaG93Z3JpZD0iZmFsc2UiPiYjeGE7CTwvc29kaXBvZGk6bmFtZWR2aWV3PiYjeGE7JiN4YTs8cGF0aCBpZD0icGF0aDE1NTQ4MiIgaW5rc2NhcGU6Y29ubmVjdG9yLWN1cnZhdHVyZT0iMCIgc3R5bGU9ImZpbGw6IzNmNTc2NSIgZD0iTSAyNi44MSw2MS42OCBIIDQuNjggViAzOS43MiBoIDQuMzYgYyAtMC40OCwtMS4yOSAtMC44LC0yLjc0IC0wLjgsLTQuMzYgMCwwIDAsLTAuMTYgMCwtMC4zMiBIIDAgViA2Ni4yMSBIIDMxLjMzIFYgNDcuOCBoIC00LjUyIHoiLz4mI3hhOyYjeGE7PHBhdGggaWQ9InBhdGgxNTU0OTAiIGlua3NjYXBlOmNvbm5lY3Rvci1jdXJ2YXR1cmU9IjAiIHN0eWxlPSJmaWxsOiMzZjU3NjUiIGQ9Im0gNTcuNjUsMzkuNzIgaCA0LjA0IFYgNjEuNjggSCAzOS41NiBWIDQ3LjggSCAzNS4wNCBWIDY2LjIxIEggNjYuMzcgViAzNS4wNCBoIC05Ljg1IGMgMC44MSwxLjI5IDEuMTMsMi43NCAxLjEzLDQuMzYgMCwwLjE2IDAsMC4xNiAwLDAuMzIgeiIvPiYjeGE7JiN4YTs8cGF0aCBpZD0icGF0aDE1NTQ5OCIgaW5rc2NhcGU6Y29ubmVjdG9yLWN1cnZhdHVyZT0iMCIgc3R5bGU9ImZpbGw6IzNmNTc2NSIgZD0iTSA0LjY4LDI2LjY0IFYgNC42OCBoIDIyLjEzIHYgMTIuNzYgYyAxLjQ1LC0wLjk3IDIuOSwtMS43OCA0LjUyLC0yLjI2IFYgMC4xNiBIIDAuMTYgViAzMS4zMyBIIDkuMiBjIDAuNjUsLTEuNzggMS42MiwtMy4yMyAyLjkxLC00LjUzIHoiLz4mI3hhOyYjeGE7PHBhdGggaWQ9InBhdGgxNTU1MDYiIGlua3NjYXBlOmNvbm5lY3Rvci1jdXJ2YXR1cmU9IjAiIHN0eWxlPSJmaWxsOiMzZjU3NjUiIGQ9Ik0gMzkuNTYsMTQuODYgViA0LjY4IGggMjIuMTMgdiAyMS45NiBoIC05LjUzIGMgMC4zMiwxLjQ2IDAuNjQsMi45MSAwLjY0LDQuMzYgdiAwLjE3IEggNjYuMzcgViAwIEggMzUuMDQgdiAxNC4zNyBjIDAuMzIsMCAwLjgxLDAgMS4xMywwIDEuMTMsMCAyLjI2LDAuMTYgMy4zOSwwLjQ5IHoiLz4mI3hhOyYjeGE7PHBhdGggaWQ9InBhdGgxNTU1MTUiIGlua3NjYXBlOmNvbm5lY3Rvci1jdXJ2YXR1cmU9IjAiIHN0eWxlPSJmaWxsOiMzZjU3NjUiIGQ9Im0gNTQuMjYsMzkuNCBjIDAsLTIuNzQgLTIuMjYsLTUgLTQuODUsLTUgLTAuMTYsMCAtMC4zMiwwIC0wLjY0LDAgMC4zMiwtMS4xMyAwLjQ4LC0yLjI3IDAuNDgsLTMuNTYgMCwtNy4yNiAtNS44MSwtMTMuMjQgLTEzLjA4LC0xMy4yNCAtNS44MSwwIC0xMC42NiwzLjcyIC0xMi40Myw5LjA0IC0wLjk3LC0wLjMyIC0xLjk0LC0wLjQ4IC0yLjkxLC0wLjQ4IC01LDAgLTguODgsNC4wNCAtOC44OCw5LjA0IDAsNS4wMSA0LjA0LDkuMDUgOC44OCw5LjA1IEggNDkuOSBjIDIuNDIsLTAuMTcgNC4zNiwtMi4yNiA0LjM2LC00Ljg1IHoiLz4mI3hhOzwvc3ZnPg==;" parent="W8AcoZy5W2Z0syqtu2D5-115" vertex="1">
          <mxGeometry x="30" y="64" width="50" height="50" as="geometry" />
        </mxCell>
        <mxCell id="W8AcoZy5W2Z0syqtu2D5-43" value="" style="image;aspect=fixed;html=1;points=[];align=center;fontSize=12;image=img/lib/azure2/preview/Static_Apps.svg;" parent="W8AcoZy5W2Z0syqtu2D5-115" vertex="1">
          <mxGeometry x="111.01999999999998" y="64" width="62.96" height="50" as="geometry" />
        </mxCell>
        <mxCell id="W8AcoZy5W2Z0syqtu2D5-44" value="&lt;b&gt;HR Software&lt;/b&gt;" style="text;html=1;align=center;verticalAlign=middle;whiteSpace=wrap;rounded=0;" parent="W8AcoZy5W2Z0syqtu2D5-115" vertex="1">
          <mxGeometry x="22.5" y="20" width="240" height="20" as="geometry" />
        </mxCell>
        <mxCell id="W8AcoZy5W2Z0syqtu2D5-45" value="" style="image;aspect=fixed;html=1;points=[];align=center;fontSize=12;image=img/lib/azure2/databases/Azure_Database_PostgreSQL_Server.svg;" parent="W8AcoZy5W2Z0syqtu2D5-115" vertex="1">
          <mxGeometry x="203" y="57" width="48" height="64" as="geometry" />
        </mxCell>
        <mxCell id="W8AcoZy5W2Z0syqtu2D5-116" value="" style="group" parent="1" vertex="1" connectable="0">
          <mxGeometry x="-150" y="617" width="273" height="140" as="geometry" />
        </mxCell>
        <mxCell id="W8AcoZy5W2Z0syqtu2D5-29" value="" style="rounded=0;whiteSpace=wrap;html=1;align=left;" parent="W8AcoZy5W2Z0syqtu2D5-116" vertex="1">
          <mxGeometry width="273" height="140" as="geometry" />
        </mxCell>
        <mxCell id="W8AcoZy5W2Z0syqtu2D5-30" value="" style="shape=image;verticalLabelPosition=bottom;labelBackgroundColor=#ffffff;verticalAlign=top;aspect=fixed;imageAspect=0;image=data:image/svg+xml,PHN2ZyB4bWxuczpkYz0iaHR0cDovL3B1cmwub3JnL2RjL2VsZW1lbnRzLzEuMS8iIHhtbG5zOmNjPSJodHRwOi8vY3JlYXRpdmVjb21tb25zLm9yZy9ucyMiIHhtbG5zOnJkZj0iaHR0cDovL3d3dy53My5vcmcvMTk5OS8wMi8yMi1yZGYtc3ludGF4LW5zIyIgeG1sbnM6c3ZnPSJodHRwOi8vd3d3LnczLm9yZy8yMDAwL3N2ZyIgeG1sbnM9Imh0dHA6Ly93d3cudzMub3JnLzIwMDAvc3ZnIiB4bWxuczpzb2RpcG9kaT0iaHR0cDovL3NvZGlwb2RpLnNvdXJjZWZvcmdlLm5ldC9EVEQvc29kaXBvZGktMC5kdGQiIHhtbG5zOmlua3NjYXBlPSJodHRwOi8vd3d3Lmlua3NjYXBlLm9yZy9uYW1lc3BhY2VzL2lua3NjYXBlIiB2ZXJzaW9uPSIxLjEiIGlkPSJzdmcxNTU1MjEiIGlua3NjYXBlOnZlcnNpb249IjAuOTIuMyAoMjQwNTU0NiwgMjAxOC0wMy0xMSkiIHNvZGlwb2RpOmRvY25hbWU9ImF6dXJlX2FwcF9zZXJ2aWNlXzEuc3ZnIiB4PSIwcHgiIHk9IjBweCIgdmlld0JveD0iMCAwIDY2LjM3IDY2LjIxIiB4bWw6c3BhY2U9InByZXNlcnZlIiB3aWR0aD0iNjYuMzcwMDAzIiBoZWlnaHQ9IjY2LjIwOTk5OSI+PG1ldGFkYXRhIGlkPSJtZXRhZGF0YTE4NzY2Ij48cmRmOlJERj48Y2M6V29yayByZGY6YWJvdXQ9IiI+PGRjOmZvcm1hdD5pbWFnZS9zdmcreG1sPC9kYzpmb3JtYXQ+PGRjOnR5cGUgcmRmOnJlc291cmNlPSJodHRwOi8vcHVybC5vcmcvZGMvZGNtaXR5cGUvU3RpbGxJbWFnZSIvPjxkYzp0aXRsZS8+PC9jYzpXb3JrPjwvcmRmOlJERj48L21ldGFkYXRhPjxkZWZzIGlkPSJkZWZzMTg3NjQiLz4mI3hhOzxmaWx0ZXIgaWQ9ImZpbHRlcl8yIj4mI3hhOwk8ZmVHYXVzc2lhbkJsdXIgaWQ9ImZlR2F1c3NpYW5CbHVyMTU1NDY3IiBzdGREZXZpYXRpb249IjIiLz4mI3hhOzwvZmlsdGVyPiYjeGE7PHNvZGlwb2RpOm5hbWVkdmlldyBib3JkZXJjb2xvcj0iIzY2NjY2NiIgYm9yZGVyb3BhY2l0eT0iMSIgZml0LW1hcmdpbi1ib3R0b209IjAiIGZpdC1tYXJnaW4tbGVmdD0iMCIgZml0LW1hcmdpbi1yaWdodD0iMCIgZml0LW1hcmdpbi10b3A9IjAiIGdyaWR0b2xlcmFuY2U9IjEwIiBndWlkZXRvbGVyYW5jZT0iMTAiIGlkPSJuYW1lZHZpZXcxNTU1MjMiIGlua3NjYXBlOmN1cnJlbnQtbGF5ZXI9InN2ZzE1NTUyMSIgaW5rc2NhcGU6Y3g9IjE4LjQxNjAxNyIgaW5rc2NhcGU6Y3k9IjIzLjY2MTEzMSIgaW5rc2NhcGU6cGFnZW9wYWNpdHk9IjAiIGlua3NjYXBlOnBhZ2VzaGFkb3c9IjIiIGlua3NjYXBlOndpbmRvdy1oZWlnaHQ9IjEwMTciIGlua3NjYXBlOndpbmRvdy1tYXhpbWl6ZWQ9IjEiIGlua3NjYXBlOndpbmRvdy13aWR0aD0iMTkyMCIgaW5rc2NhcGU6d2luZG93LXg9Ii04IiBpbmtzY2FwZTp3aW5kb3cteT0iLTgiIGlua3NjYXBlOnpvb209IjYuODUwMDQ2MiIgb2JqZWN0dG9sZXJhbmNlPSIxMCIgcGFnZWNvbG9yPSIjZmZmZmZmIiBzaG93Z3JpZD0iZmFsc2UiPiYjeGE7CTwvc29kaXBvZGk6bmFtZWR2aWV3PiYjeGE7JiN4YTs8cGF0aCBpZD0icGF0aDE1NTQ4MiIgaW5rc2NhcGU6Y29ubmVjdG9yLWN1cnZhdHVyZT0iMCIgc3R5bGU9ImZpbGw6IzNmNTc2NSIgZD0iTSAyNi44MSw2MS42OCBIIDQuNjggViAzOS43MiBoIDQuMzYgYyAtMC40OCwtMS4yOSAtMC44LC0yLjc0IC0wLjgsLTQuMzYgMCwwIDAsLTAuMTYgMCwtMC4zMiBIIDAgViA2Ni4yMSBIIDMxLjMzIFYgNDcuOCBoIC00LjUyIHoiLz4mI3hhOyYjeGE7PHBhdGggaWQ9InBhdGgxNTU0OTAiIGlua3NjYXBlOmNvbm5lY3Rvci1jdXJ2YXR1cmU9IjAiIHN0eWxlPSJmaWxsOiMzZjU3NjUiIGQ9Im0gNTcuNjUsMzkuNzIgaCA0LjA0IFYgNjEuNjggSCAzOS41NiBWIDQ3LjggSCAzNS4wNCBWIDY2LjIxIEggNjYuMzcgViAzNS4wNCBoIC05Ljg1IGMgMC44MSwxLjI5IDEuMTMsMi43NCAxLjEzLDQuMzYgMCwwLjE2IDAsMC4xNiAwLDAuMzIgeiIvPiYjeGE7JiN4YTs8cGF0aCBpZD0icGF0aDE1NTQ5OCIgaW5rc2NhcGU6Y29ubmVjdG9yLWN1cnZhdHVyZT0iMCIgc3R5bGU9ImZpbGw6IzNmNTc2NSIgZD0iTSA0LjY4LDI2LjY0IFYgNC42OCBoIDIyLjEzIHYgMTIuNzYgYyAxLjQ1LC0wLjk3IDIuOSwtMS43OCA0LjUyLC0yLjI2IFYgMC4xNiBIIDAuMTYgViAzMS4zMyBIIDkuMiBjIDAuNjUsLTEuNzggMS42MiwtMy4yMyAyLjkxLC00LjUzIHoiLz4mI3hhOyYjeGE7PHBhdGggaWQ9InBhdGgxNTU1MDYiIGlua3NjYXBlOmNvbm5lY3Rvci1jdXJ2YXR1cmU9IjAiIHN0eWxlPSJmaWxsOiMzZjU3NjUiIGQ9Ik0gMzkuNTYsMTQuODYgViA0LjY4IGggMjIuMTMgdiAyMS45NiBoIC05LjUzIGMgMC4zMiwxLjQ2IDAuNjQsMi45MSAwLjY0LDQuMzYgdiAwLjE3IEggNjYuMzcgViAwIEggMzUuMDQgdiAxNC4zNyBjIDAuMzIsMCAwLjgxLDAgMS4xMywwIDEuMTMsMCAyLjI2LDAuMTYgMy4zOSwwLjQ5IHoiLz4mI3hhOyYjeGE7PHBhdGggaWQ9InBhdGgxNTU1MTUiIGlua3NjYXBlOmNvbm5lY3Rvci1jdXJ2YXR1cmU9IjAiIHN0eWxlPSJmaWxsOiMzZjU3NjUiIGQ9Im0gNTQuMjYsMzkuNCBjIDAsLTIuNzQgLTIuMjYsLTUgLTQuODUsLTUgLTAuMTYsMCAtMC4zMiwwIC0wLjY0LDAgMC4zMiwtMS4xMyAwLjQ4LC0yLjI3IDAuNDgsLTMuNTYgMCwtNy4yNiAtNS44MSwtMTMuMjQgLTEzLjA4LC0xMy4yNCAtNS44MSwwIC0xMC42NiwzLjcyIC0xMi40Myw5LjA0IC0wLjk3LC0wLjMyIC0xLjk0LC0wLjQ4IC0yLjkxLC0wLjQ4IC01LDAgLTguODgsNC4wNCAtOC44OCw5LjA0IDAsNS4wMSA0LjA0LDkuMDUgOC44OCw5LjA1IEggNDkuOSBjIDIuNDIsLTAuMTcgNC4zNiwtMi4yNiA0LjM2LC00Ljg1IHoiLz4mI3hhOzwvc3ZnPg==;" parent="W8AcoZy5W2Z0syqtu2D5-116" vertex="1">
          <mxGeometry x="30" y="64" width="50" height="50" as="geometry" />
        </mxCell>
        <mxCell id="W8AcoZy5W2Z0syqtu2D5-31" value="" style="image;aspect=fixed;html=1;points=[];align=center;fontSize=12;image=img/lib/azure2/preview/Static_Apps.svg;" parent="W8AcoZy5W2Z0syqtu2D5-116" vertex="1">
          <mxGeometry x="111.01999999999998" y="64" width="62.96" height="50" as="geometry" />
        </mxCell>
        <mxCell id="W8AcoZy5W2Z0syqtu2D5-32" value="&lt;b&gt;Shift Management&lt;/b&gt;" style="text;html=1;align=center;verticalAlign=middle;whiteSpace=wrap;rounded=0;" parent="W8AcoZy5W2Z0syqtu2D5-116" vertex="1">
          <mxGeometry x="22.5" y="20" width="240" height="20" as="geometry" />
        </mxCell>
        <mxCell id="W8AcoZy5W2Z0syqtu2D5-35" value="" style="image;aspect=fixed;html=1;points=[];align=center;fontSize=12;image=img/lib/azure2/databases/Azure_Database_PostgreSQL_Server.svg;" parent="W8AcoZy5W2Z0syqtu2D5-116" vertex="1">
          <mxGeometry x="203" y="57" width="48" height="64" as="geometry" />
        </mxCell>
        <mxCell id="W8AcoZy5W2Z0syqtu2D5-117" value="" style="group" parent="1" vertex="1" connectable="0">
          <mxGeometry x="-520" y="700" width="273" height="140" as="geometry" />
        </mxCell>
        <mxCell id="W8AcoZy5W2Z0syqtu2D5-36" value="" style="rounded=0;whiteSpace=wrap;html=1;align=left;" parent="W8AcoZy5W2Z0syqtu2D5-117" vertex="1">
          <mxGeometry width="273" height="140" as="geometry" />
        </mxCell>
        <mxCell id="W8AcoZy5W2Z0syqtu2D5-37" value="" style="shape=image;verticalLabelPosition=bottom;labelBackgroundColor=#ffffff;verticalAlign=top;aspect=fixed;imageAspect=0;image=data:image/svg+xml,PHN2ZyB4bWxuczpkYz0iaHR0cDovL3B1cmwub3JnL2RjL2VsZW1lbnRzLzEuMS8iIHhtbG5zOmNjPSJodHRwOi8vY3JlYXRpdmVjb21tb25zLm9yZy9ucyMiIHhtbG5zOnJkZj0iaHR0cDovL3d3dy53My5vcmcvMTk5OS8wMi8yMi1yZGYtc3ludGF4LW5zIyIgeG1sbnM6c3ZnPSJodHRwOi8vd3d3LnczLm9yZy8yMDAwL3N2ZyIgeG1sbnM9Imh0dHA6Ly93d3cudzMub3JnLzIwMDAvc3ZnIiB4bWxuczpzb2RpcG9kaT0iaHR0cDovL3NvZGlwb2RpLnNvdXJjZWZvcmdlLm5ldC9EVEQvc29kaXBvZGktMC5kdGQiIHhtbG5zOmlua3NjYXBlPSJodHRwOi8vd3d3Lmlua3NjYXBlLm9yZy9uYW1lc3BhY2VzL2lua3NjYXBlIiB2ZXJzaW9uPSIxLjEiIGlkPSJzdmcxNTU1MjEiIGlua3NjYXBlOnZlcnNpb249IjAuOTIuMyAoMjQwNTU0NiwgMjAxOC0wMy0xMSkiIHNvZGlwb2RpOmRvY25hbWU9ImF6dXJlX2FwcF9zZXJ2aWNlXzEuc3ZnIiB4PSIwcHgiIHk9IjBweCIgdmlld0JveD0iMCAwIDY2LjM3IDY2LjIxIiB4bWw6c3BhY2U9InByZXNlcnZlIiB3aWR0aD0iNjYuMzcwMDAzIiBoZWlnaHQ9IjY2LjIwOTk5OSI+PG1ldGFkYXRhIGlkPSJtZXRhZGF0YTE4NzY2Ij48cmRmOlJERj48Y2M6V29yayByZGY6YWJvdXQ9IiI+PGRjOmZvcm1hdD5pbWFnZS9zdmcreG1sPC9kYzpmb3JtYXQ+PGRjOnR5cGUgcmRmOnJlc291cmNlPSJodHRwOi8vcHVybC5vcmcvZGMvZGNtaXR5cGUvU3RpbGxJbWFnZSIvPjxkYzp0aXRsZS8+PC9jYzpXb3JrPjwvcmRmOlJERj48L21ldGFkYXRhPjxkZWZzIGlkPSJkZWZzMTg3NjQiLz4mI3hhOzxmaWx0ZXIgaWQ9ImZpbHRlcl8yIj4mI3hhOwk8ZmVHYXVzc2lhbkJsdXIgaWQ9ImZlR2F1c3NpYW5CbHVyMTU1NDY3IiBzdGREZXZpYXRpb249IjIiLz4mI3hhOzwvZmlsdGVyPiYjeGE7PHNvZGlwb2RpOm5hbWVkdmlldyBib3JkZXJjb2xvcj0iIzY2NjY2NiIgYm9yZGVyb3BhY2l0eT0iMSIgZml0LW1hcmdpbi1ib3R0b209IjAiIGZpdC1tYXJnaW4tbGVmdD0iMCIgZml0LW1hcmdpbi1yaWdodD0iMCIgZml0LW1hcmdpbi10b3A9IjAiIGdyaWR0b2xlcmFuY2U9IjEwIiBndWlkZXRvbGVyYW5jZT0iMTAiIGlkPSJuYW1lZHZpZXcxNTU1MjMiIGlua3NjYXBlOmN1cnJlbnQtbGF5ZXI9InN2ZzE1NTUyMSIgaW5rc2NhcGU6Y3g9IjE4LjQxNjAxNyIgaW5rc2NhcGU6Y3k9IjIzLjY2MTEzMSIgaW5rc2NhcGU6cGFnZW9wYWNpdHk9IjAiIGlua3NjYXBlOnBhZ2VzaGFkb3c9IjIiIGlua3NjYXBlOndpbmRvdy1oZWlnaHQ9IjEwMTciIGlua3NjYXBlOndpbmRvdy1tYXhpbWl6ZWQ9IjEiIGlua3NjYXBlOndpbmRvdy13aWR0aD0iMTkyMCIgaW5rc2NhcGU6d2luZG93LXg9Ii04IiBpbmtzY2FwZTp3aW5kb3cteT0iLTgiIGlua3NjYXBlOnpvb209IjYuODUwMDQ2MiIgb2JqZWN0dG9sZXJhbmNlPSIxMCIgcGFnZWNvbG9yPSIjZmZmZmZmIiBzaG93Z3JpZD0iZmFsc2UiPiYjeGE7CTwvc29kaXBvZGk6bmFtZWR2aWV3PiYjeGE7JiN4YTs8cGF0aCBpZD0icGF0aDE1NTQ4MiIgaW5rc2NhcGU6Y29ubmVjdG9yLWN1cnZhdHVyZT0iMCIgc3R5bGU9ImZpbGw6IzNmNTc2NSIgZD0iTSAyNi44MSw2MS42OCBIIDQuNjggViAzOS43MiBoIDQuMzYgYyAtMC40OCwtMS4yOSAtMC44LC0yLjc0IC0wLjgsLTQuMzYgMCwwIDAsLTAuMTYgMCwtMC4zMiBIIDAgViA2Ni4yMSBIIDMxLjMzIFYgNDcuOCBoIC00LjUyIHoiLz4mI3hhOyYjeGE7PHBhdGggaWQ9InBhdGgxNTU0OTAiIGlua3NjYXBlOmNvbm5lY3Rvci1jdXJ2YXR1cmU9IjAiIHN0eWxlPSJmaWxsOiMzZjU3NjUiIGQ9Im0gNTcuNjUsMzkuNzIgaCA0LjA0IFYgNjEuNjggSCAzOS41NiBWIDQ3LjggSCAzNS4wNCBWIDY2LjIxIEggNjYuMzcgViAzNS4wNCBoIC05Ljg1IGMgMC44MSwxLjI5IDEuMTMsMi43NCAxLjEzLDQuMzYgMCwwLjE2IDAsMC4xNiAwLDAuMzIgeiIvPiYjeGE7JiN4YTs8cGF0aCBpZD0icGF0aDE1NTQ5OCIgaW5rc2NhcGU6Y29ubmVjdG9yLWN1cnZhdHVyZT0iMCIgc3R5bGU9ImZpbGw6IzNmNTc2NSIgZD0iTSA0LjY4LDI2LjY0IFYgNC42OCBoIDIyLjEzIHYgMTIuNzYgYyAxLjQ1LC0wLjk3IDIuOSwtMS43OCA0LjUyLC0yLjI2IFYgMC4xNiBIIDAuMTYgViAzMS4zMyBIIDkuMiBjIDAuNjUsLTEuNzggMS42MiwtMy4yMyAyLjkxLC00LjUzIHoiLz4mI3hhOyYjeGE7PHBhdGggaWQ9InBhdGgxNTU1MDYiIGlua3NjYXBlOmNvbm5lY3Rvci1jdXJ2YXR1cmU9IjAiIHN0eWxlPSJmaWxsOiMzZjU3NjUiIGQ9Ik0gMzkuNTYsMTQuODYgViA0LjY4IGggMjIuMTMgdiAyMS45NiBoIC05LjUzIGMgMC4zMiwxLjQ2IDAuNjQsMi45MSAwLjY0LDQuMzYgdiAwLjE3IEggNjYuMzcgViAwIEggMzUuMDQgdiAxNC4zNyBjIDAuMzIsMCAwLjgxLDAgMS4xMywwIDEuMTMsMCAyLjI2LDAuMTYgMy4zOSwwLjQ5IHoiLz4mI3hhOyYjeGE7PHBhdGggaWQ9InBhdGgxNTU1MTUiIGlua3NjYXBlOmNvbm5lY3Rvci1jdXJ2YXR1cmU9IjAiIHN0eWxlPSJmaWxsOiMzZjU3NjUiIGQ9Im0gNTQuMjYsMzkuNCBjIDAsLTIuNzQgLTIuMjYsLTUgLTQuODUsLTUgLTAuMTYsMCAtMC4zMiwwIC0wLjY0LDAgMC4zMiwtMS4xMyAwLjQ4LC0yLjI3IDAuNDgsLTMuNTYgMCwtNy4yNiAtNS44MSwtMTMuMjQgLTEzLjA4LC0xMy4yNCAtNS44MSwwIC0xMC42NiwzLjcyIC0xMi40Myw5LjA0IC0wLjk3LC0wLjMyIC0xLjk0LC0wLjQ4IC0yLjkxLC0wLjQ4IC01LDAgLTguODgsNC4wNCAtOC44OCw5LjA0IDAsNS4wMSA0LjA0LDkuMDUgOC44OCw5LjA1IEggNDkuOSBjIDIuNDIsLTAuMTcgNC4zNiwtMi4yNiA0LjM2LC00Ljg1IHoiLz4mI3hhOzwvc3ZnPg==;" parent="W8AcoZy5W2Z0syqtu2D5-117" vertex="1">
          <mxGeometry x="30" y="64" width="50" height="50" as="geometry" />
        </mxCell>
        <mxCell id="W8AcoZy5W2Z0syqtu2D5-38" value="" style="image;aspect=fixed;html=1;points=[];align=center;fontSize=12;image=img/lib/azure2/preview/Static_Apps.svg;" parent="W8AcoZy5W2Z0syqtu2D5-117" vertex="1">
          <mxGeometry x="111.01999999999998" y="64" width="62.96" height="50" as="geometry" />
        </mxCell>
        <mxCell id="W8AcoZy5W2Z0syqtu2D5-39" value="&lt;b&gt;Warehouse Management&lt;/b&gt;" style="text;html=1;align=center;verticalAlign=middle;whiteSpace=wrap;rounded=0;" parent="W8AcoZy5W2Z0syqtu2D5-117" vertex="1">
          <mxGeometry x="22.5" y="20" width="240" height="20" as="geometry" />
        </mxCell>
        <mxCell id="W8AcoZy5W2Z0syqtu2D5-40" value="" style="image;aspect=fixed;html=1;points=[];align=center;fontSize=12;image=img/lib/azure2/databases/Azure_Database_PostgreSQL_Server.svg;" parent="W8AcoZy5W2Z0syqtu2D5-117" vertex="1">
          <mxGeometry x="203" y="57" width="48" height="64" as="geometry" />
        </mxCell>
        <mxCell id="W8AcoZy5W2Z0syqtu2D5-118" value="" style="group" parent="1" vertex="1" connectable="0">
          <mxGeometry x="-823.25" y="980" width="273" height="140" as="geometry" />
        </mxCell>
        <mxCell id="W8AcoZy5W2Z0syqtu2D5-46" value="" style="rounded=0;whiteSpace=wrap;html=1;align=left;" parent="W8AcoZy5W2Z0syqtu2D5-118" vertex="1">
          <mxGeometry width="273" height="140" as="geometry" />
        </mxCell>
        <mxCell id="W8AcoZy5W2Z0syqtu2D5-47" value="" style="shape=image;verticalLabelPosition=bottom;labelBackgroundColor=#ffffff;verticalAlign=top;aspect=fixed;imageAspect=0;image=data:image/svg+xml,PHN2ZyB4bWxuczpkYz0iaHR0cDovL3B1cmwub3JnL2RjL2VsZW1lbnRzLzEuMS8iIHhtbG5zOmNjPSJodHRwOi8vY3JlYXRpdmVjb21tb25zLm9yZy9ucyMiIHhtbG5zOnJkZj0iaHR0cDovL3d3dy53My5vcmcvMTk5OS8wMi8yMi1yZGYtc3ludGF4LW5zIyIgeG1sbnM6c3ZnPSJodHRwOi8vd3d3LnczLm9yZy8yMDAwL3N2ZyIgeG1sbnM9Imh0dHA6Ly93d3cudzMub3JnLzIwMDAvc3ZnIiB4bWxuczpzb2RpcG9kaT0iaHR0cDovL3NvZGlwb2RpLnNvdXJjZWZvcmdlLm5ldC9EVEQvc29kaXBvZGktMC5kdGQiIHhtbG5zOmlua3NjYXBlPSJodHRwOi8vd3d3Lmlua3NjYXBlLm9yZy9uYW1lc3BhY2VzL2lua3NjYXBlIiB2ZXJzaW9uPSIxLjEiIGlkPSJzdmcxNTU1MjEiIGlua3NjYXBlOnZlcnNpb249IjAuOTIuMyAoMjQwNTU0NiwgMjAxOC0wMy0xMSkiIHNvZGlwb2RpOmRvY25hbWU9ImF6dXJlX2FwcF9zZXJ2aWNlXzEuc3ZnIiB4PSIwcHgiIHk9IjBweCIgdmlld0JveD0iMCAwIDY2LjM3IDY2LjIxIiB4bWw6c3BhY2U9InByZXNlcnZlIiB3aWR0aD0iNjYuMzcwMDAzIiBoZWlnaHQ9IjY2LjIwOTk5OSI+PG1ldGFkYXRhIGlkPSJtZXRhZGF0YTE4NzY2Ij48cmRmOlJERj48Y2M6V29yayByZGY6YWJvdXQ9IiI+PGRjOmZvcm1hdD5pbWFnZS9zdmcreG1sPC9kYzpmb3JtYXQ+PGRjOnR5cGUgcmRmOnJlc291cmNlPSJodHRwOi8vcHVybC5vcmcvZGMvZGNtaXR5cGUvU3RpbGxJbWFnZSIvPjxkYzp0aXRsZS8+PC9jYzpXb3JrPjwvcmRmOlJERj48L21ldGFkYXRhPjxkZWZzIGlkPSJkZWZzMTg3NjQiLz4mI3hhOzxmaWx0ZXIgaWQ9ImZpbHRlcl8yIj4mI3hhOwk8ZmVHYXVzc2lhbkJsdXIgaWQ9ImZlR2F1c3NpYW5CbHVyMTU1NDY3IiBzdGREZXZpYXRpb249IjIiLz4mI3hhOzwvZmlsdGVyPiYjeGE7PHNvZGlwb2RpOm5hbWVkdmlldyBib3JkZXJjb2xvcj0iIzY2NjY2NiIgYm9yZGVyb3BhY2l0eT0iMSIgZml0LW1hcmdpbi1ib3R0b209IjAiIGZpdC1tYXJnaW4tbGVmdD0iMCIgZml0LW1hcmdpbi1yaWdodD0iMCIgZml0LW1hcmdpbi10b3A9IjAiIGdyaWR0b2xlcmFuY2U9IjEwIiBndWlkZXRvbGVyYW5jZT0iMTAiIGlkPSJuYW1lZHZpZXcxNTU1MjMiIGlua3NjYXBlOmN1cnJlbnQtbGF5ZXI9InN2ZzE1NTUyMSIgaW5rc2NhcGU6Y3g9IjE4LjQxNjAxNyIgaW5rc2NhcGU6Y3k9IjIzLjY2MTEzMSIgaW5rc2NhcGU6cGFnZW9wYWNpdHk9IjAiIGlua3NjYXBlOnBhZ2VzaGFkb3c9IjIiIGlua3NjYXBlOndpbmRvdy1oZWlnaHQ9IjEwMTciIGlua3NjYXBlOndpbmRvdy1tYXhpbWl6ZWQ9IjEiIGlua3NjYXBlOndpbmRvdy13aWR0aD0iMTkyMCIgaW5rc2NhcGU6d2luZG93LXg9Ii04IiBpbmtzY2FwZTp3aW5kb3cteT0iLTgiIGlua3NjYXBlOnpvb209IjYuODUwMDQ2MiIgb2JqZWN0dG9sZXJhbmNlPSIxMCIgcGFnZWNvbG9yPSIjZmZmZmZmIiBzaG93Z3JpZD0iZmFsc2UiPiYjeGE7CTwvc29kaXBvZGk6bmFtZWR2aWV3PiYjeGE7JiN4YTs8cGF0aCBpZD0icGF0aDE1NTQ4MiIgaW5rc2NhcGU6Y29ubmVjdG9yLWN1cnZhdHVyZT0iMCIgc3R5bGU9ImZpbGw6IzNmNTc2NSIgZD0iTSAyNi44MSw2MS42OCBIIDQuNjggViAzOS43MiBoIDQuMzYgYyAtMC40OCwtMS4yOSAtMC44LC0yLjc0IC0wLjgsLTQuMzYgMCwwIDAsLTAuMTYgMCwtMC4zMiBIIDAgViA2Ni4yMSBIIDMxLjMzIFYgNDcuOCBoIC00LjUyIHoiLz4mI3hhOyYjeGE7PHBhdGggaWQ9InBhdGgxNTU0OTAiIGlua3NjYXBlOmNvbm5lY3Rvci1jdXJ2YXR1cmU9IjAiIHN0eWxlPSJmaWxsOiMzZjU3NjUiIGQ9Im0gNTcuNjUsMzkuNzIgaCA0LjA0IFYgNjEuNjggSCAzOS41NiBWIDQ3LjggSCAzNS4wNCBWIDY2LjIxIEggNjYuMzcgViAzNS4wNCBoIC05Ljg1IGMgMC44MSwxLjI5IDEuMTMsMi43NCAxLjEzLDQuMzYgMCwwLjE2IDAsMC4xNiAwLDAuMzIgeiIvPiYjeGE7JiN4YTs8cGF0aCBpZD0icGF0aDE1NTQ5OCIgaW5rc2NhcGU6Y29ubmVjdG9yLWN1cnZhdHVyZT0iMCIgc3R5bGU9ImZpbGw6IzNmNTc2NSIgZD0iTSA0LjY4LDI2LjY0IFYgNC42OCBoIDIyLjEzIHYgMTIuNzYgYyAxLjQ1LC0wLjk3IDIuOSwtMS43OCA0LjUyLC0yLjI2IFYgMC4xNiBIIDAuMTYgViAzMS4zMyBIIDkuMiBjIDAuNjUsLTEuNzggMS42MiwtMy4yMyAyLjkxLC00LjUzIHoiLz4mI3hhOyYjeGE7PHBhdGggaWQ9InBhdGgxNTU1MDYiIGlua3NjYXBlOmNvbm5lY3Rvci1jdXJ2YXR1cmU9IjAiIHN0eWxlPSJmaWxsOiMzZjU3NjUiIGQ9Ik0gMzkuNTYsMTQuODYgViA0LjY4IGggMjIuMTMgdiAyMS45NiBoIC05LjUzIGMgMC4zMiwxLjQ2IDAuNjQsMi45MSAwLjY0LDQuMzYgdiAwLjE3IEggNjYuMzcgViAwIEggMzUuMDQgdiAxNC4zNyBjIDAuMzIsMCAwLjgxLDAgMS4xMywwIDEuMTMsMCAyLjI2LDAuMTYgMy4zOSwwLjQ5IHoiLz4mI3hhOyYjeGE7PHBhdGggaWQ9InBhdGgxNTU1MTUiIGlua3NjYXBlOmNvbm5lY3Rvci1jdXJ2YXR1cmU9IjAiIHN0eWxlPSJmaWxsOiMzZjU3NjUiIGQ9Im0gNTQuMjYsMzkuNCBjIDAsLTIuNzQgLTIuMjYsLTUgLTQuODUsLTUgLTAuMTYsMCAtMC4zMiwwIC0wLjY0LDAgMC4zMiwtMS4xMyAwLjQ4LC0yLjI3IDAuNDgsLTMuNTYgMCwtNy4yNiAtNS44MSwtMTMuMjQgLTEzLjA4LC0xMy4yNCAtNS44MSwwIC0xMC42NiwzLjcyIC0xMi40Myw5LjA0IC0wLjk3LC0wLjMyIC0xLjk0LC0wLjQ4IC0yLjkxLC0wLjQ4IC01LDAgLTguODgsNC4wNCAtOC44OCw5LjA0IDAsNS4wMSA0LjA0LDkuMDUgOC44OCw5LjA1IEggNDkuOSBjIDIuNDIsLTAuMTcgNC4zNiwtMi4yNiA0LjM2LC00Ljg1IHoiLz4mI3hhOzwvc3ZnPg==;" parent="W8AcoZy5W2Z0syqtu2D5-118" vertex="1">
          <mxGeometry x="30" y="64" width="50" height="50" as="geometry" />
        </mxCell>
        <mxCell id="W8AcoZy5W2Z0syqtu2D5-48" value="" style="image;aspect=fixed;html=1;points=[];align=center;fontSize=12;image=img/lib/azure2/preview/Static_Apps.svg;" parent="W8AcoZy5W2Z0syqtu2D5-118" vertex="1">
          <mxGeometry x="111.01999999999998" y="64" width="62.96" height="50" as="geometry" />
        </mxCell>
        <mxCell id="W8AcoZy5W2Z0syqtu2D5-49" value="&lt;b&gt;Website&lt;/b&gt;" style="text;html=1;align=center;verticalAlign=middle;whiteSpace=wrap;rounded=0;" parent="W8AcoZy5W2Z0syqtu2D5-118" vertex="1">
          <mxGeometry x="22.5" y="20" width="240" height="20" as="geometry" />
        </mxCell>
        <mxCell id="W8AcoZy5W2Z0syqtu2D5-50" value="" style="image;aspect=fixed;html=1;points=[];align=center;fontSize=12;image=img/lib/azure2/databases/Azure_Database_PostgreSQL_Server.svg;" parent="W8AcoZy5W2Z0syqtu2D5-118" vertex="1">
          <mxGeometry x="203" y="57" width="48" height="64" as="geometry" />
        </mxCell>
        <mxCell id="W8AcoZy5W2Z0syqtu2D5-119" value="" style="group" parent="1" vertex="1" connectable="0">
          <mxGeometry x="-1580" y="540" width="250" height="160" as="geometry" />
        </mxCell>
        <mxCell id="W8AcoZy5W2Z0syqtu2D5-125" value="" style="group" parent="W8AcoZy5W2Z0syqtu2D5-119" vertex="1" connectable="0">
          <mxGeometry x="0.001724137931031322" y="-40" width="206.8965517241379" height="130" as="geometry" />
        </mxCell>
        <mxCell id="W8AcoZy5W2Z0syqtu2D5-120" value="" style="rounded=0;whiteSpace=wrap;html=1;align=left;" parent="W8AcoZy5W2Z0syqtu2D5-125" vertex="1">
          <mxGeometry x="8.448275862068968" width="190" height="130" as="geometry" />
        </mxCell>
        <mxCell id="W8AcoZy5W2Z0syqtu2D5-121" value="&lt;b&gt;Finance SAP Applications&lt;/b&gt;" style="text;html=1;align=center;verticalAlign=middle;whiteSpace=wrap;rounded=0;" parent="W8AcoZy5W2Z0syqtu2D5-125" vertex="1">
          <mxGeometry y="8.421052631578947" width="206.8965517241379" height="25.263157894736842" as="geometry" />
        </mxCell>
        <mxCell id="W8AcoZy5W2Z0syqtu2D5-122" value="" style="sketch=0;aspect=fixed;pointerEvents=1;shadow=0;dashed=0;html=1;strokeColor=none;labelPosition=center;verticalLabelPosition=bottom;verticalAlign=top;align=center;fillColor=#00188D;shape=mxgraph.azure.virtual_machine_feature" parent="W8AcoZy5W2Z0syqtu2D5-125" vertex="1">
          <mxGeometry x="56.03" y="45.001578947368415" width="42.10526315789473" height="37.89473684210526" as="geometry" />
        </mxCell>
        <mxCell id="W8AcoZy5W2Z0syqtu2D5-123" value="" style="sketch=0;aspect=fixed;pointerEvents=1;shadow=0;dashed=0;html=1;strokeColor=none;labelPosition=center;verticalLabelPosition=bottom;verticalAlign=top;align=center;fillColor=#00188D;shape=mxgraph.azure.virtual_machine_feature" parent="W8AcoZy5W2Z0syqtu2D5-125" vertex="1">
          <mxGeometry x="108.75448275862068" y="45.003684210526316" width="42.10526315789473" height="37.89473684210526" as="geometry" />
        </mxCell>
        <mxCell id="W8AcoZy5W2Z0syqtu2D5-124" value="ProxMox Virtual Machines" style="text;html=1;align=center;verticalAlign=middle;whiteSpace=wrap;rounded=0;" parent="W8AcoZy5W2Z0syqtu2D5-125" vertex="1">
          <mxGeometry x="56.03" y="99.9957894736842" width="94.82758620689654" height="25.263157894736842" as="geometry" />
        </mxCell>
        <mxCell id="W8AcoZy5W2Z0syqtu2D5-126" value="" style="group" parent="1" vertex="1" connectable="0">
          <mxGeometry x="-1359.998275862069" y="500" width="206.8965517241379" height="130" as="geometry" />
        </mxCell>
        <mxCell id="W8AcoZy5W2Z0syqtu2D5-133" value="" style="group" parent="W8AcoZy5W2Z0syqtu2D5-126" vertex="1" connectable="0">
          <mxGeometry width="206.8965517241379" height="130" as="geometry" />
        </mxCell>
        <mxCell id="W8AcoZy5W2Z0syqtu2D5-127" value="" style="rounded=0;whiteSpace=wrap;html=1;align=left;" parent="W8AcoZy5W2Z0syqtu2D5-133" vertex="1">
          <mxGeometry x="8.448275862068968" width="190" height="130" as="geometry" />
        </mxCell>
        <mxCell id="W8AcoZy5W2Z0syqtu2D5-128" value="&lt;b&gt;Finance Legacy Application&lt;/b&gt;" style="text;html=1;align=center;verticalAlign=middle;whiteSpace=wrap;rounded=0;" parent="W8AcoZy5W2Z0syqtu2D5-133" vertex="1">
          <mxGeometry y="8.421052631578947" width="206.8965517241379" height="25.263157894736842" as="geometry" />
        </mxCell>
        <mxCell id="W8AcoZy5W2Z0syqtu2D5-129" value="" style="sketch=0;aspect=fixed;pointerEvents=1;shadow=0;dashed=0;html=1;strokeColor=none;labelPosition=center;verticalLabelPosition=bottom;verticalAlign=top;align=center;fillColor=#00188D;shape=mxgraph.azure.virtual_machine_feature" parent="W8AcoZy5W2Z0syqtu2D5-133" vertex="1">
          <mxGeometry x="56.03" y="45.001578947368415" width="42.10526315789473" height="37.89473684210526" as="geometry" />
        </mxCell>
        <mxCell id="W8AcoZy5W2Z0syqtu2D5-130" value="" style="sketch=0;aspect=fixed;pointerEvents=1;shadow=0;dashed=0;html=1;strokeColor=none;labelPosition=center;verticalLabelPosition=bottom;verticalAlign=top;align=center;fillColor=#00188D;shape=mxgraph.azure.virtual_machine_feature" parent="W8AcoZy5W2Z0syqtu2D5-133" vertex="1">
          <mxGeometry x="108.75448275862068" y="45.003684210526316" width="42.10526315789473" height="37.89473684210526" as="geometry" />
        </mxCell>
        <mxCell id="W8AcoZy5W2Z0syqtu2D5-131" value="ProxMox Virtual Machines" style="text;html=1;align=center;verticalAlign=middle;whiteSpace=wrap;rounded=0;" parent="W8AcoZy5W2Z0syqtu2D5-133" vertex="1">
          <mxGeometry x="56.03" y="99.9957894736842" width="94.82758620689654" height="25.263157894736842" as="geometry" />
        </mxCell>
        <mxCell id="W8AcoZy5W2Z0syqtu2D5-135" value="" style="group" parent="1" vertex="1" connectable="0">
          <mxGeometry x="-1359.998275862069" y="680" width="206.8965517241379" height="130" as="geometry" />
        </mxCell>
        <mxCell id="W8AcoZy5W2Z0syqtu2D5-136" value="" style="group" parent="W8AcoZy5W2Z0syqtu2D5-135" vertex="1" connectable="0">
          <mxGeometry width="206.8965517241379" height="130" as="geometry" />
        </mxCell>
        <mxCell id="W8AcoZy5W2Z0syqtu2D5-137" value="" style="rounded=0;whiteSpace=wrap;html=1;align=left;" parent="W8AcoZy5W2Z0syqtu2D5-136" vertex="1">
          <mxGeometry x="8.448275862068968" width="190" height="130" as="geometry" />
        </mxCell>
        <mxCell id="W8AcoZy5W2Z0syqtu2D5-138" value="&lt;b&gt;Warehouse Deliforce&lt;/b&gt;" style="text;html=1;align=center;verticalAlign=middle;whiteSpace=wrap;rounded=0;" parent="W8AcoZy5W2Z0syqtu2D5-136" vertex="1">
          <mxGeometry y="8.421052631578947" width="206.8965517241379" height="25.263157894736842" as="geometry" />
        </mxCell>
        <mxCell id="W8AcoZy5W2Z0syqtu2D5-139" value="" style="sketch=0;aspect=fixed;pointerEvents=1;shadow=0;dashed=0;html=1;strokeColor=none;labelPosition=center;verticalLabelPosition=bottom;verticalAlign=top;align=center;fillColor=#00188D;shape=mxgraph.azure.virtual_machine_feature" parent="W8AcoZy5W2Z0syqtu2D5-136" vertex="1">
          <mxGeometry x="56.03" y="45.001578947368415" width="42.10526315789473" height="37.89473684210526" as="geometry" />
        </mxCell>
        <mxCell id="W8AcoZy5W2Z0syqtu2D5-140" value="" style="sketch=0;aspect=fixed;pointerEvents=1;shadow=0;dashed=0;html=1;strokeColor=none;labelPosition=center;verticalLabelPosition=bottom;verticalAlign=top;align=center;fillColor=#00188D;shape=mxgraph.azure.virtual_machine_feature" parent="W8AcoZy5W2Z0syqtu2D5-136" vertex="1">
          <mxGeometry x="108.75448275862068" y="45.003684210526316" width="42.10526315789473" height="37.89473684210526" as="geometry" />
        </mxCell>
        <mxCell id="W8AcoZy5W2Z0syqtu2D5-141" value="ProxMox Virtual Machines" style="text;html=1;align=center;verticalAlign=middle;whiteSpace=wrap;rounded=0;" parent="W8AcoZy5W2Z0syqtu2D5-136" vertex="1">
          <mxGeometry x="56.03" y="99.9957894736842" width="94.82758620689654" height="25.263157894736842" as="geometry" />
        </mxCell>
        <mxCell id="W8AcoZy5W2Z0syqtu2D5-142" value="" style="group" parent="1" vertex="1" connectable="0">
          <mxGeometry x="-1579.998275862069" y="680" width="206.8965517241379" height="130" as="geometry" />
        </mxCell>
        <mxCell id="W8AcoZy5W2Z0syqtu2D5-143" value="" style="group" parent="W8AcoZy5W2Z0syqtu2D5-142" vertex="1" connectable="0">
          <mxGeometry width="206.8965517241379" height="130" as="geometry" />
        </mxCell>
        <mxCell id="W8AcoZy5W2Z0syqtu2D5-144" value="" style="rounded=0;whiteSpace=wrap;html=1;align=left;" parent="W8AcoZy5W2Z0syqtu2D5-143" vertex="1">
          <mxGeometry x="8.448275862068968" width="190" height="130" as="geometry" />
        </mxCell>
        <mxCell id="W8AcoZy5W2Z0syqtu2D5-145" value="&lt;b&gt;Lead Management&lt;/b&gt;" style="text;html=1;align=center;verticalAlign=middle;whiteSpace=wrap;rounded=0;" parent="W8AcoZy5W2Z0syqtu2D5-143" vertex="1">
          <mxGeometry y="8.421052631578947" width="206.8965517241379" height="25.263157894736842" as="geometry" />
        </mxCell>
        <mxCell id="W8AcoZy5W2Z0syqtu2D5-146" value="" style="sketch=0;aspect=fixed;pointerEvents=1;shadow=0;dashed=0;html=1;strokeColor=none;labelPosition=center;verticalLabelPosition=bottom;verticalAlign=top;align=center;fillColor=#00188D;shape=mxgraph.azure.virtual_machine_feature" parent="W8AcoZy5W2Z0syqtu2D5-143" vertex="1">
          <mxGeometry x="56.03" y="45.001578947368415" width="42.10526315789473" height="37.89473684210526" as="geometry" />
        </mxCell>
        <mxCell id="W8AcoZy5W2Z0syqtu2D5-147" value="" style="sketch=0;aspect=fixed;pointerEvents=1;shadow=0;dashed=0;html=1;strokeColor=none;labelPosition=center;verticalLabelPosition=bottom;verticalAlign=top;align=center;fillColor=#00188D;shape=mxgraph.azure.virtual_machine_feature" parent="W8AcoZy5W2Z0syqtu2D5-143" vertex="1">
          <mxGeometry x="108.75448275862068" y="45.003684210526316" width="42.10526315789473" height="37.89473684210526" as="geometry" />
        </mxCell>
        <mxCell id="W8AcoZy5W2Z0syqtu2D5-148" value="ProxMox Virtual Machines" style="text;html=1;align=center;verticalAlign=middle;whiteSpace=wrap;rounded=0;" parent="W8AcoZy5W2Z0syqtu2D5-143" vertex="1">
          <mxGeometry x="56.03" y="99.9957894736842" width="94.82758620689654" height="25.263157894736842" as="geometry" />
        </mxCell>
        <mxCell id="W8AcoZy5W2Z0syqtu2D5-149" value="" style="group" parent="1" vertex="1" connectable="0">
          <mxGeometry x="-1579.998275862069" y="860" width="206.8965517241379" height="130" as="geometry" />
        </mxCell>
        <mxCell id="W8AcoZy5W2Z0syqtu2D5-150" value="" style="group" parent="W8AcoZy5W2Z0syqtu2D5-149" vertex="1" connectable="0">
          <mxGeometry width="206.8965517241379" height="130" as="geometry" />
        </mxCell>
        <mxCell id="W8AcoZy5W2Z0syqtu2D5-151" value="" style="rounded=0;whiteSpace=wrap;html=1;align=left;" parent="W8AcoZy5W2Z0syqtu2D5-150" vertex="1">
          <mxGeometry x="8.448275862068968" width="190" height="130" as="geometry" />
        </mxCell>
        <mxCell id="W8AcoZy5W2Z0syqtu2D5-152" value="&lt;b&gt;Facility Management Software&lt;/b&gt;" style="text;html=1;align=center;verticalAlign=middle;whiteSpace=wrap;rounded=0;" parent="W8AcoZy5W2Z0syqtu2D5-150" vertex="1">
          <mxGeometry y="8.421052631578947" width="206.8965517241379" height="25.263157894736842" as="geometry" />
        </mxCell>
        <mxCell id="W8AcoZy5W2Z0syqtu2D5-153" value="" style="sketch=0;aspect=fixed;pointerEvents=1;shadow=0;dashed=0;html=1;strokeColor=none;labelPosition=center;verticalLabelPosition=bottom;verticalAlign=top;align=center;fillColor=#00188D;shape=mxgraph.azure.virtual_machine_feature" parent="W8AcoZy5W2Z0syqtu2D5-150" vertex="1">
          <mxGeometry x="56.03" y="45.001578947368415" width="42.10526315789473" height="37.89473684210526" as="geometry" />
        </mxCell>
        <mxCell id="W8AcoZy5W2Z0syqtu2D5-154" value="" style="sketch=0;aspect=fixed;pointerEvents=1;shadow=0;dashed=0;html=1;strokeColor=none;labelPosition=center;verticalLabelPosition=bottom;verticalAlign=top;align=center;fillColor=#00188D;shape=mxgraph.azure.virtual_machine_feature" parent="W8AcoZy5W2Z0syqtu2D5-150" vertex="1">
          <mxGeometry x="108.75448275862068" y="45.003684210526316" width="42.10526315789473" height="37.89473684210526" as="geometry" />
        </mxCell>
        <mxCell id="W8AcoZy5W2Z0syqtu2D5-155" value="ProxMox Virtual Machines" style="text;html=1;align=center;verticalAlign=middle;whiteSpace=wrap;rounded=0;" parent="W8AcoZy5W2Z0syqtu2D5-150" vertex="1">
          <mxGeometry x="56.03" y="99.9957894736842" width="94.82758620689654" height="25.263157894736842" as="geometry" />
        </mxCell>
        <mxCell id="W8AcoZy5W2Z0syqtu2D5-156" style="edgeStyle=orthogonalEdgeStyle;rounded=0;orthogonalLoop=1;jettySize=auto;html=1;exitX=0;exitY=0.5;exitDx=0;exitDy=0;entryX=1;entryY=0.75;entryDx=0;entryDy=0;" parent="1" source="W8AcoZy5W2Z0syqtu2D5-19" target="W8AcoZy5W2Z0syqtu2D5-36" edge="1">
          <mxGeometry relative="1" as="geometry" />
        </mxCell>
        <mxCell id="W8AcoZy5W2Z0syqtu2D5-157" style="edgeStyle=orthogonalEdgeStyle;rounded=0;orthogonalLoop=1;jettySize=auto;html=1;entryX=0.908;entryY=0.989;entryDx=0;entryDy=0;entryPerimeter=0;" parent="1" source="W8AcoZy5W2Z0syqtu2D5-69" target="W8AcoZy5W2Z0syqtu2D5-36" edge="1">
          <mxGeometry relative="1" as="geometry">
            <Array as="points">
              <mxPoint x="-272" y="1010" />
            </Array>
          </mxGeometry>
        </mxCell>
        <mxCell id="W8AcoZy5W2Z0syqtu2D5-158" style="edgeStyle=orthogonalEdgeStyle;rounded=0;orthogonalLoop=1;jettySize=auto;html=1;entryX=0.75;entryY=0;entryDx=0;entryDy=0;" parent="1" source="W8AcoZy5W2Z0syqtu2D5-76" target="W8AcoZy5W2Z0syqtu2D5-36" edge="1">
          <mxGeometry relative="1" as="geometry" />
        </mxCell>
        <mxCell id="W8AcoZy5W2Z0syqtu2D5-159" style="edgeStyle=orthogonalEdgeStyle;rounded=0;orthogonalLoop=1;jettySize=auto;html=1;entryX=0.5;entryY=0;entryDx=0;entryDy=0;" parent="1" source="W8AcoZy5W2Z0syqtu2D5-83" target="W8AcoZy5W2Z0syqtu2D5-36" edge="1">
          <mxGeometry relative="1" as="geometry" />
        </mxCell>
        <mxCell id="W8AcoZy5W2Z0syqtu2D5-162" style="edgeStyle=orthogonalEdgeStyle;rounded=0;orthogonalLoop=1;jettySize=auto;html=1;entryX=0.983;entryY=0.496;entryDx=0;entryDy=0;entryPerimeter=0;" parent="1" source="W8AcoZy5W2Z0syqtu2D5-85" target="yIlqXNv4PA9Dnh1hxRCn-24" edge="1">
          <mxGeometry relative="1" as="geometry" />
        </mxCell>
        <mxCell id="W8AcoZy5W2Z0syqtu2D5-167" style="edgeStyle=orthogonalEdgeStyle;rounded=0;orthogonalLoop=1;jettySize=auto;html=1;entryX=0.606;entryY=0.213;entryDx=0;entryDy=0;entryPerimeter=0;" parent="1" target="yIlqXNv4PA9Dnh1hxRCn-23" edge="1">
          <mxGeometry relative="1" as="geometry">
            <mxPoint x="-870" y="505" as="sourcePoint" />
          </mxGeometry>
        </mxCell>
        <mxCell id="W8AcoZy5W2Z0syqtu2D5-179" style="edgeStyle=orthogonalEdgeStyle;rounded=0;orthogonalLoop=1;jettySize=auto;html=1;entryX=0.5;entryY=1;entryDx=0;entryDy=0;" parent="1" source="W8AcoZy5W2Z0syqtu2D5-169" target="W8AcoZy5W2Z0syqtu2D5-46" edge="1">
          <mxGeometry relative="1" as="geometry" />
        </mxCell>
        <mxCell id="W8AcoZy5W2Z0syqtu2D5-169" value="Website Users" style="outlineConnect=0;dashed=0;verticalLabelPosition=bottom;verticalAlign=top;align=center;html=1;shape=mxgraph.aws3.users;fillColor=#D2D3D3;gradientColor=none;" parent="1" vertex="1">
          <mxGeometry x="-750" y="1260" width="126.5" height="110" as="geometry" />
        </mxCell>
        <mxCell id="W8AcoZy5W2Z0syqtu2D5-171" style="edgeStyle=orthogonalEdgeStyle;rounded=0;orthogonalLoop=1;jettySize=auto;html=1;entryX=0.25;entryY=1;entryDx=0;entryDy=0;" parent="1" source="W8AcoZy5W2Z0syqtu2D5-46" target="W8AcoZy5W2Z0syqtu2D5-83" edge="1">
          <mxGeometry relative="1" as="geometry">
            <Array as="points">
              <mxPoint x="-622" y="910" />
              <mxPoint x="-622" y="910" />
            </Array>
          </mxGeometry>
        </mxCell>
        <mxCell id="W8AcoZy5W2Z0syqtu2D5-172" style="edgeStyle=orthogonalEdgeStyle;rounded=0;orthogonalLoop=1;jettySize=auto;html=1;entryX=0.087;entryY=0.922;entryDx=0;entryDy=0;entryPerimeter=0;" parent="1" target="yIlqXNv4PA9Dnh1hxRCn-23" edge="1">
          <mxGeometry relative="1" as="geometry">
            <mxPoint x="-1160" y="734" as="sourcePoint" />
            <Array as="points">
              <mxPoint x="-1080" y="735" />
              <mxPoint x="-1080" y="530" />
            </Array>
          </mxGeometry>
        </mxCell>
        <mxCell id="W8AcoZy5W2Z0syqtu2D5-174" style="edgeStyle=orthogonalEdgeStyle;rounded=0;orthogonalLoop=1;jettySize=auto;html=1;" parent="1" source="W8AcoZy5W2Z0syqtu2D5-173" edge="1">
          <mxGeometry relative="1" as="geometry">
            <mxPoint x="-980" y="780" as="targetPoint" />
          </mxGeometry>
        </mxCell>
        <mxCell id="W8AcoZy5W2Z0syqtu2D5-177" style="edgeStyle=orthogonalEdgeStyle;rounded=0;orthogonalLoop=1;jettySize=auto;html=1;entryX=0.5;entryY=1;entryDx=0;entryDy=0;" parent="1" source="W8AcoZy5W2Z0syqtu2D5-173" target="W8AcoZy5W2Z0syqtu2D5-1" edge="1">
          <mxGeometry relative="1" as="geometry" />
        </mxCell>
        <mxCell id="W8AcoZy5W2Z0syqtu2D5-173" value="On Premise Users" style="outlineConnect=0;dashed=0;verticalLabelPosition=bottom;verticalAlign=top;align=center;html=1;shape=mxgraph.aws3.users;fillColor=#D2D3D3;gradientColor=none;" parent="1" vertex="1">
          <mxGeometry x="-1383.25" y="1150" width="126.5" height="110" as="geometry" />
        </mxCell>
        <mxCell id="W8AcoZy5W2Z0syqtu2D5-185" style="edgeStyle=orthogonalEdgeStyle;rounded=0;orthogonalLoop=1;jettySize=auto;html=1;entryX=0.5;entryY=1;entryDx=0;entryDy=0;" parent="1" source="W8AcoZy5W2Z0syqtu2D5-46" target="W8AcoZy5W2Z0syqtu2D5-183" edge="1">
          <mxGeometry relative="1" as="geometry" />
        </mxCell>
        <mxCell id="W8AcoZy5W2Z0syqtu2D5-186" value="" style="group" parent="1" vertex="1" connectable="0">
          <mxGeometry x="-858.42" y="650" width="178.42" height="270" as="geometry" />
        </mxCell>
        <mxCell id="W8AcoZy5W2Z0syqtu2D5-183" value="" style="rounded=0;whiteSpace=wrap;html=1;" parent="W8AcoZy5W2Z0syqtu2D5-186" vertex="1">
          <mxGeometry width="178.42" height="270" as="geometry" />
        </mxCell>
        <mxCell id="W8AcoZy5W2Z0syqtu2D5-180" value="" style="image;aspect=fixed;html=1;points=[];align=center;fontSize=12;image=img/lib/azure2/general/Storage_Azure_Files.svg;" parent="W8AcoZy5W2Z0syqtu2D5-186" vertex="1">
          <mxGeometry x="44.82327978723395" y="52.34275862068968" width="87.08896551724138" height="70.75862068965517" as="geometry" />
        </mxCell>
        <mxCell id="W8AcoZy5W2Z0syqtu2D5-181" value="" style="shape=image;verticalLabelPosition=bottom;labelBackgroundColor=#ffffff;verticalAlign=top;aspect=fixed;imageAspect=0;image=data:image/svg+xml,PHN2ZyB4bWxuczpjYz0iaHR0cDovL2NyZWF0aXZlY29tbW9ucy5vcmcvbnMjIiB4bWxuczpkYz0iaHR0cDovL3B1cmwub3JnL2RjL2VsZW1lbnRzLzEuMS8iIHhtbG5zOmlua3NjYXBlPSJodHRwOi8vd3d3Lmlua3NjYXBlLm9yZy9uYW1lc3BhY2VzL2lua3NjYXBlIiB4bWxuczpyZGY9Imh0dHA6Ly93d3cudzMub3JnLzE5OTkvMDIvMjItcmRmLXN5bnRheC1ucyMiIHhtbG5zOnNvZGlwb2RpPSJodHRwOi8vc29kaXBvZGkuc291cmNlZm9yZ2UubmV0L0RURC9zb2RpcG9kaS0wLmR0ZCIgeG1sbnM6c3ZnPSJodHRwOi8vd3d3LnczLm9yZy8yMDAwL3N2ZyIgeG1sbnM9Imh0dHA6Ly93d3cudzMub3JnLzIwMDAvc3ZnIiB4bWxuczp4bGluaz0iaHR0cDovL3d3dy53My5vcmcvMTk5OS94bGluayIgdmVyc2lvbj0iMS4xIiBpZD0ic3ZnMTA5Mjk0IiBpbmtzY2FwZTp2ZXJzaW9uPSIwLjkyLjMgKDI0MDU1NDYsIDIwMTgtMDMtMTEpIiBzb2RpcG9kaTpkb2NuYW1lPSJhenVyZV9ibG9iX3N0b3JhZ2Uuc3ZnIiB4PSIwcHgiIHk9IjBweCIgdmlld0JveD0iMCAwIDc2LjQyIDY2LjMiIHN0eWxlPSJlbmFibGUtYmFja2dyb3VuZDpuZXcgMCAwIDc2LjQyIDY2LjM7IiB4bWw6c3BhY2U9InByZXNlcnZlIj4mI3hhOzxzb2RpcG9kaTpuYW1lZHZpZXcgYm9yZGVyY29sb3I9IiM2NjY2NjYiIGJvcmRlcm9wYWNpdHk9IjEiIGZpdC1tYXJnaW4tYm90dG9tPSIwIiBmaXQtbWFyZ2luLWxlZnQ9IjAiIGZpdC1tYXJnaW4tcmlnaHQ9IjAiIGZpdC1tYXJnaW4tdG9wPSIwIiBncmlkdG9sZXJhbmNlPSIxMCIgZ3VpZGV0b2xlcmFuY2U9IjEwIiBpZD0ibmFtZWR2aWV3MTA5Mjk2IiBpbmtzY2FwZTpjdXJyZW50LWxheWVyPSJzdmcxMDkyOTQiIGlua3NjYXBlOmN4PSI1MC45NDUxOTMiIGlua3NjYXBlOmN5PSI0NC4xOTk1NTEiIGlua3NjYXBlOnBhZ2VvcGFjaXR5PSIwIiBpbmtzY2FwZTpwYWdlc2hhZG93PSIyIiBpbmtzY2FwZTp3aW5kb3ctaGVpZ2h0PSIxMDE3IiBpbmtzY2FwZTp3aW5kb3ctbWF4aW1pemVkPSIxIiBpbmtzY2FwZTp3aW5kb3ctd2lkdGg9IjE5MjAiIGlua3NjYXBlOndpbmRvdy14PSItOCIgaW5rc2NhcGU6d2luZG93LXk9Ii04IiBpbmtzY2FwZTp6b29tPSI4Ljc0NjA0MTEiIG9iamVjdHRvbGVyYW5jZT0iMTAiIHBhZ2Vjb2xvcj0iI2ZmZmZmZiIgc2hvd2dyaWQ9ImZhbHNlIj4mI3hhOwk8L3NvZGlwb2RpOm5hbWVkdmlldz4mI3hhOzxnIGlkPSJnMTA5MjkyIiB0cmFuc2Zvcm09InRyYW5zbGF0ZSgtNC4wMjYzMiwtNC4wMjM4NzY1KSI+JiN4YTsJPHRpdGxlIGlkPSJ0aXRsZTEwOTI2NCI+UGFnZS0xPC90aXRsZT4mI3hhOwk8ZyBpZD0iZ3JvdXAyNjQtMSIgdHJhbnNmb3JtPSJ0cmFuc2xhdGUoNC4wMjYzMiwtNC4wMjYzMikiPiYjeGE7CQk8dGl0bGUgaWQ9InRpdGxlMTA5MjY2Ij5BenVyZSBCbG9iIFN0b3JhZ2UgKERlcHJlY2F0ZWQpPC90aXRsZT4mI3hhOwkJPGcgaWQ9Imdyb3VwMjY1LTIiPiYjeGE7CQkJPHRpdGxlIGlkPSJ0aXRsZTEwOTI2OCI+U2hlZXQuMjY1PC90aXRsZT4mI3hhOwkJCTxnIGlkPSJzaGFwZTI2Ni0zIj4mI3hhOwkJCQk8dGl0bGUgaWQ9InRpdGxlMTA5MjcwIj5TaGVldC4yNjY8L3RpdGxlPiYjeGE7CQkJCTxwYXRoIGlkPSJwYXRoMTA5MjcyIiBpbmtzY2FwZTpjb25uZWN0b3ItY3VydmF0dXJlPSIwIiBzdHlsZT0iZmlsbDojMDA3OEQ3OyIgZD0iTTU3LjM2LDguMDVIMTkuMDVMMCw0MS4ybDE5LjA1LDMzLjE1aDM4LjMxICAgICAgTDc2LjQyLDQxLjJMNTcuMzYsOC4wNXogTTU3LjU2LDU2LjA5YzAsMi43OC0yLjM4LDUuMTYtNS4xNiw1LjE2SDI0LjIyYy0yLjc4LDAtNS4xNy0yLjM4LTUuMTctNS4xNlYyNi41MSAgICAgIGMwLTIuNzgsMi4zOS01LjE2LDUuMTctNS4xNmgyMC44NGMxLjk4LDAsMy45NywwLDMuOTcsMGgwLjU5bDcuOTQsNy45NHY0LjE3TDU3LjU2LDU2LjA5eiIvPiYjeGE7CQkJPC9nPiYjeGE7CQkJPGcgaWQ9InNoYXBlMjY3LTUiIHRyYW5zZm9ybT0idHJhbnNsYXRlKDMyLjE1NTEsLTIxLjQzNjgpIj4mI3hhOwkJCQk8dGl0bGUgaWQ9InRpdGxlMTA5Mjc1Ij5TaGVldC4yNjc8L3RpdGxlPiYjeGE7CQkJCTxwYXRoIGlkPSJwYXRoMTA5Mjc3IiBpbmtzY2FwZTpjb25uZWN0b3ItY3VydmF0dXJlPSIwIiBzdHlsZT0iZmlsbDojMDA3OEQ3OyIgZD0iTTMuMTgsNjhjMC0wLjQtMC4yLTAuNi0wLjItMC44ICAgICAgYzAtMC4yLTAuMi0wLjM5LTAuNC0wLjU5cy0wLjItMC4yLTAuNC0wLjJzLTAuMzksMC0wLjU5LDBjLTAuNCwwLTAuNiwwLTAuOCwwLjJDMC42LDY2LjgxLDAuNCw2NywwLjIsNjcuNFMwLDY4LjE5LDAsNjguNTkgICAgICBjMCwwLjQsMCwwLjk5LDAsMS43OWMwLDAuNzksMCwxLjM5LDAsMS45OGMwLDAuNiwwLjIsMSwwLjQsMS4xOWMwLjIsMC40LDAuMzksMC42LDAuNTksMC42YzAuMiwwLjIsMC40LDAuMiwwLjgsMC4yICAgICAgYzAuMTksMCwwLjM5LDAsMC41OS0wLjJjMC4yLDAsMC40LTAuMiwwLjQtMC40YzAuMi0wLjIsMC4yLTAuMzksMC40LTAuNTljMC0wLjIsMC4xOS0wLjQsMC4xOS0wLjhjMC0wLjIsMC0wLjU5LDAuMi0wLjk5ICAgICAgYzAtMC40LDAtMC43OSwwLTEuMTljMC0wLjYsMC0wLjk5LDAtMS4zOUMzLjE4LDY4LjU5LDMuMTgsNjguMzksMy4xOCw2OHoiLz4mI3hhOwkJCTwvZz4mI3hhOwkJCTxnIGlkPSJzaGFwZTI2OC03IiB0cmFuc2Zvcm09InRyYW5zbGF0ZSg0MS4wODcxLC0zNi45MTg5KSI+JiN4YTsJCQkJPHRpdGxlIGlkPSJ0aXRsZTEwOTI4MCI+U2hlZXQuMjY4PC90aXRsZT4mI3hhOwkJCQk8cGF0aCBpZD0icGF0aDEwOTI4MiIgaW5rc2NhcGU6Y29ubmVjdG9yLWN1cnZhdHVyZT0iMCIgc3R5bGU9ImZpbGw6IzAwNzhENzsiIGQ9Ik0zLjE4LDY4YzAtMC40LTAuMi0wLjYtMC4yLTAuOCAgICAgIGMwLTAuMi0wLjItMC4zOS0wLjQtMC41OXMtMC4yLTAuMi0wLjQtMC4ycy0wLjM5LDAtMC41OSwwYy0wLjQsMC0wLjYsMC0wLjgsMC4yQzAuNiw2Ni44MSwwLjQsNjcsMC4yLDY3LjRTMCw2OC4xOSwwLDY4LjU5ICAgICAgYzAsMC40LDAsMC45OSwwLDEuNzljMCwwLjc5LDAsMS4zOSwwLDEuOThjMCwwLjYsMC4yLDEsMC40LDEuMTljMC4yLDAuNCwwLjM5LDAuNiwwLjU5LDAuNmMwLjIsMC4yLDAuNCwwLjIsMC44LDAuMiAgICAgIGMwLjE5LDAsMC4zOSwwLDAuNTktMC4yYzAuMiwwLDAuNC0wLjIsMC40LTAuNGMwLjItMC4yLDAuMi0wLjM5LDAuNC0wLjU5YzAtMC4yLDAuMTktMC40LDAuMTktMC44YzAtMC4yLDAtMC41OSwwLjItMC45OSAgICAgIGMwLTAuNCwwLTAuNzksMC0xLjE5YzAtMC42LDAtMC45OSwwLTEuMzlDMy4zNyw2OC43OSwzLjM3LDY4LjM5LDMuMTgsNjh6Ii8+JiN4YTsJCQk8L2c+JiN4YTsJCQk8ZyBpZD0ic2hhcGUyNjktOSIgdHJhbnNmb3JtPSJ0cmFuc2xhdGUoMjEuODMzNywtMTUuODc5MSkiPiYjeGE7CQkJCTx0aXRsZSBpZD0idGl0bGUxMDkyODUiPlNoZWV0LjI2OTwvdGl0bGU+JiN4YTsJCQkJPHBhdGggaWQ9InBhdGgxMDkyODciIGlua3NjYXBlOmNvbm5lY3Rvci1jdXJ2YXR1cmU9IjAiIHN0eWxlPSJmaWxsOiMwMDc4RDc7IiBkPSJNMjYuNCw0MC4wMWMtMC43OSwwLTEuOTksMC0zLjE4LDBIMi4zOCAgICAgIEMwLjk5LDQwLjAxLDAsNDEsMCw0Mi4zOXYyOS41OGMwLDEuMzksMC45OSwyLjM4LDIuMzgsMi4zOGgyOC4xOWMxLjE5LDAsMi4zOC0wLjk5LDIuMzgtMi4zOFY0Ni41NkgyNi42di02LjU1SDI2LjR6ICAgICAgIE04LjczLDQ1Ljk2di0wLjE5di0wLjJjMCwwLDAsMCwwLjItMC4ybDIuMzgtMS41OWMwLDAsMCwwLDAuMiwwaDAuMmgwLjJjMC4yLDAsMC4yLDAsMC40LDBjMC4xOSwwLDAuMzksMCwwLjU5LDBzMC4yLDAsMC40LDAgICAgICBoMC4yYzAsMCwwLDAsMCwwLjJ2OS4zM2gxLjc4aDAuMmMwLDAsMCwwLDAuMiwwLjJjMC4yLDAuMTksMCwwLjE5LDAsMC4xOWMwLDAuMiwwLDAuMiwwLDAuNHMwLDAuNCwwLDAuNGMwLDAuMiwwLDAuMiwwLDAuMiAgICAgIHMwLDAuMi0wLjIsMC4yYzAsMCwwLDAtMC4yLDBIOS4xM2MwLDAsMCwwLTAuMiwwYzAsMCwwLDAtMC4yLTAuMnYtMC4yYzAtMC4yLDAtMC4yLDAtMC40czAtMC40LDAtMC40YzAtMC4xOSwwLTAuMTksMC0wLjE5ICAgICAgczAtMC4yLDAuMi0wLjJjMCwwLDAsMCwwLjIsMGgyLjE4di03LjM1bC0xLjc4LDFjLTAuMiwwLTAuMiwwLjE5LTAuNCwwLjE5aC0wLjJjMCwwLDAtMC4xOS0wLjItMC4xOWMwLTAuMiwwLTAuMiwwLTAuNiAgICAgIEM4LjczLDQ2LjE2LDguNzMsNDUuOTYsOC43Myw0NS45NnogTTE1LjY4LDY3LjJjLTAuMiwwLjgtMC40LDEuMzktMC43OSwxLjc5Yy0wLjQsMC41OS0wLjgsMC45OS0xLjE5LDEuMTkgICAgICBjLTAuNiwwLjItMS4yLDAuNC0xLjk5LDAuNHMtMS4zOS0wLjItMS45OC0wLjRjLTAuNi0wLjItMS0wLjYtMS4xOS0xLjE5Yy0wLjItMC42LTAuNi0xLjE5LTAuNi0xLjc5ICAgICAgYy0wLjItMC43OS0wLjItMS41OS0wLjItMi4zOGMwLTAuOTksMC0xLjc5LDAuMi0yLjM4YzAuMi0wLjgsMC40LTEuMzksMC43OS0xLjc5YzAuNC0wLjM5LDAuOC0wLjk5LDEuMTktMS4xOSAgICAgIGMwLjYtMC4yLDEuMi0wLjQsMS45OS0wLjRzMS4zOSwwLjIsMS45OCwwLjRjMC42LDAuMiwxLDAuNiwxLjIsMS4xOWMwLjE5LDAuNiwwLjU5LDEuMTksMC41OSwxLjc5YzAuMiwwLjc5LDAuMiwxLjU5LDAuMiwyLjM4ICAgICAgQzE1Ljg4LDY1LjgxLDE1Ljg4LDY2LjYxLDE1LjY4LDY3LjJ6IE0yNC42MSw2OS45OGMwLDAuMiwwLDAuMiwwLDAuMnMwLDAuMi0wLjIsMC4yYzAsMCwwLDAtMC4xOSwwaC02LjE2YzAsMCwwLDAtMC4yLDAgICAgICBjMCwwLDAsMC0wLjE5LTAuMnYtMC4yYzAtMC4yLDAtMC4yLDAtMC40YzAtMC4xOSwwLTAuMzksMC0wLjM5YzAtMC4yLDAtMC4yLDAtMC4yczAtMC4yLDAuMTktMC4yYzAsMCwwLDAsMC4yLDBoMi4xOXYtNy4zNCAgICAgIGwtMS43OSwwLjk5Yy0wLjIsMC0wLjIsMC4yLTAuNCwwLjJoLTAuMmMwLDAsMC0wLjItMC4xOS0wLjJjMC0wLjIsMC0wLjIsMC0wLjZjMC0wLjIsMC0wLjIsMC0wLjM5di0wLjJ2LTAuMmMwLDAsMCwwLDAuMTktMC4yICAgICAgbDIuMzktMS41OWMwLDAsMCwwLDAuMTksMGgwLjJoMC4yYzAuMiwwLDAuMiwwLDAuNCwwYzAuMiwwLDAuNCwwLDAuNTksMGMwLjIsMCwwLjIsMCwwLjQsMGgwLjJjMCwwLDAsMCwwLDAuMnY5LjMzaDEuNzloMC4xOSAgICAgIGMwLDAsMCwwLDAuMiwwLjJ2MC4yYzAsMC4yLDAsMC4yLDAsMC4zOUMyNC42MSw2OS43OCwyNC42MSw2OS45OCwyNC42MSw2OS45OHogTTI0LjgxLDUxLjcyYy0wLjIsMC43OS0wLjQsMS4zOS0wLjc5LDEuNzkgICAgICBjLTAuNCwwLjU5LTAuOCwwLjk5LTEuMTksMS4xOWMtMC42LDAuMi0xLjE5LDAuMzktMS45OSwwLjM5Yy0wLjc5LDAtMS4zOS0wLjE5LTEuOTgtMC4zOWMtMC42LTAuMi0xLTAuNi0xLjE5LTEuMTkgICAgICBjLTAuMi0wLjQtMC42LTEuMTktMC42LTEuNzljMC0wLjYtMC4yLTEuNTktMC4yLTIuMzhjMC0wLjk5LDAtMS43OSwwLjItMi4zOGMwLjItMC44LDAuNC0xLjM5LDAuNzktMS43OSAgICAgIGMwLjQtMC42LDAuOC0wLjk5LDEuMTktMS4xOWMwLjYtMC4yLDEuMi0wLjQsMS45OS0wLjRjMC43OSwwLDEuMzksMC4yLDEuOTgsMC40YzAuNiwwLjIsMSwwLjU5LDEuMiwxLjE5ICAgICAgYzAuMTksMC42LDAuNTksMS4xOSwwLjU5LDEuNzljMC4yLDAuNzksMC4yLDEuNTgsMC4yLDIuMzhDMjUuMDEsNTAuMzMsMjQuODEsNTEuMTIsMjQuODEsNTEuNzJ6Ii8+JiN4YTsJCQk8L2c+JiN4YTsJCTwvZz4mI3hhOwk8L2c+JiN4YTs8L2c+JiN4YTs8L3N2Zz4=;" parent="W8AcoZy5W2Z0syqtu2D5-186" vertex="1">
          <mxGeometry x="42.21341276595736" y="148.9655172413793" width="92.2003448275862" height="80.06896551724138" as="geometry" />
        </mxCell>
        <mxCell id="W8AcoZy5W2Z0syqtu2D5-184" value="&lt;b&gt;Backup Services&lt;/b&gt;" style="text;html=1;align=center;verticalAlign=middle;whiteSpace=wrap;rounded=0;" parent="W8AcoZy5W2Z0syqtu2D5-186" vertex="1">
          <mxGeometry width="113.88510638297872" height="27.93103448275862" as="geometry" />
        </mxCell>
        <mxCell id="W8AcoZy5W2Z0syqtu2D5-187" style="edgeStyle=orthogonalEdgeStyle;rounded=0;orthogonalLoop=1;jettySize=auto;html=1;entryX=0.994;entryY=0.959;entryDx=0;entryDy=0;entryPerimeter=0;" parent="1" source="W8AcoZy5W2Z0syqtu2D5-183" target="yIlqXNv4PA9Dnh1hxRCn-23" edge="1">
          <mxGeometry relative="1" as="geometry" />
        </mxCell>
        <mxCell id="W8AcoZy5W2Z0syqtu2D5-195" value="" style="group" parent="1" vertex="1" connectable="0">
          <mxGeometry x="-1470" y="1350" width="310" height="121" as="geometry" />
        </mxCell>
        <mxCell id="W8AcoZy5W2Z0syqtu2D5-196" style="edgeStyle=orthogonalEdgeStyle;rounded=0;orthogonalLoop=1;jettySize=auto;html=1;" parent="W8AcoZy5W2Z0syqtu2D5-195" source="W8AcoZy5W2Z0syqtu2D5-193" edge="1">
          <mxGeometry relative="1" as="geometry">
            <mxPoint x="155" y="-60" as="targetPoint" />
          </mxGeometry>
        </mxCell>
        <mxCell id="W8AcoZy5W2Z0syqtu2D5-193" value="" style="rounded=0;whiteSpace=wrap;html=1;" parent="W8AcoZy5W2Z0syqtu2D5-195" vertex="1">
          <mxGeometry y="1" width="310" height="120" as="geometry" />
        </mxCell>
        <mxCell id="W8AcoZy5W2Z0syqtu2D5-188" value="" style="sketch=0;pointerEvents=1;shadow=0;dashed=0;html=1;strokeColor=none;fillColor=#505050;labelPosition=center;verticalLabelPosition=bottom;outlineConnect=0;verticalAlign=top;align=center;shape=mxgraph.office.clouds.office_365;" parent="W8AcoZy5W2Z0syqtu2D5-195" vertex="1">
          <mxGeometry x="19" y="29.5" width="101" height="61" as="geometry" />
        </mxCell>
        <mxCell id="W8AcoZy5W2Z0syqtu2D5-190" value="" style="shape=image;verticalLabelPosition=bottom;labelBackgroundColor=default;verticalAlign=top;aspect=fixed;imageAspect=0;image=data:image/png,iVBORw0KGgoAAAANSUhEUgAAASwAAACoCAMAAABt9SM9AAABAlBMVEX///8pqOsBeNQDZLgTkN8HSrIAP68AnOYARrEAPa4AO64ANawAQa+ms9tMbr4ARLAAM6y4wuHI0Oju8PgAdNLS2uwBedW+yeWer9iRo9MAMKsAXLUAit4AWLQAouoAU7L19/sAbtIAht2Cl87c4fBcesLl6fRrhccAX7YAcdInpemqt9wtW7c+ZbtngsaPrNZ8ksyKntE+ecATZ7nG1/CKseRBitgCbsYAatAel+Ofz/IWULQAKqooWLarwN+gt9tvlsxBesBgjMgnbbxlj8lUis2WueZnnd1nnN0MeMpZpeS00vB1sudprOZ+quGXuebJ4vaJxe9vu+2n0/PU6PgAIqgkY0h/AAAOgUlEQVR4nO2dC3vaNhuGSVZcW3awgbgcEsBNwDACKSxt15Y2aZd1W9tt35J2//+vfH7lk2TLB0COTMdz7doSDFi69R4lt6tU9trrP6Gm2bq+eQa6uW4Mm6KHU1qZN+9vB73eSajeYPDh/bUtemBl0/Dmw6B3MvkhpsnkpNf75XpvYr7sZz8wQYXETgY/XVuih1kGXf80OEkBFfL6xRQ9VNF6dpKDlMerd9sSPVyRepbHqAj1rv6zuG5666HCuG4booctQubt+qhAg4+W6KE/uN4PNkLlaDK4Fj34h9Xwh83MylXvgyV6Ag+oZxublWdcvf9OGfGxtx0rR4NnoifxMLJu06r1vOr9KnoeDyE7tbPJr5OfRM+keA23d0FPk1tL9GQKlrllaKdoXVmip1OobG52hWndip5PkWpyZeXQ+p7jFl9Ujk5+ET2lwvSBTx4k1fte663lNi1Okgbf5y5Eg2MiJNSzRE+sAFmcg7uv7y7IW/bQ/Dj5uRhavRvR0+Ml6/lvv396Cjp+Ajo8/Jk7s8F3cVBmvjh79fTH40NKQIwvsMkH0RPdWvaLH2OgCGKHHHn1djwjPn/56scEUD4vjriuRE93Gz1/8jSdlGdevHCd7O6u/PBlHlRcrWsies6b6u9XSZGKiYsLrN5umpZ5nBGrYri4GNdORq0Xr9ZDdcgpdO1iQny5pll5uLb3xclH0VNfV83DNaIVjWtr49q1Mt5OrEFz0NoW18ludYh23oIhAdd2ZcRubT7YG4UrGtc2tHbJD63jzX0wxLWFce1SFf+JA6tNfXHi1FlXk905u/hjaycMcK0H6urT2ekjV2evP9992YGn5q+3C+40rvzG9cnn5OvU0Z/PRdNIV3P9uj2NVi5fnNxGSQXEzv4ss3295BKwSFzZRpVAysP1+ZtoJkni6YQ+rlTjukpF5QawzyUtJXgFd4pWsi/GIlUCrjvRXFh6UQSsRF/MNqrAGV+XL3Q1+TuhjytqXJOrfEYVGNcX0XCi+rsYw8K0aF/Mb1QBrd9E04mIa9kQx7VGUGfo9C/ReCjdFGdYLi4wrknOoF52Wk+KZeXo+OeNjMqn9adoQqGGhYV3H9XZ64PpFrAenZanhCiobghQnfYPQP0taJ39IxqSryK98PjJo4NAr7ewLUs0JVdb7iWnojp7fEBqujmuz6IxubouyAuPDx9ND6La2BdPy1Gc/s55v8FD5QR1ph5vSks0J6wiQpYf1Fna0BdLkREt7uU7FdRZ2swXzyzRqPhXWdGgzs0XT0vQJH7hGd+PD0/jQZ2XL5Ygav2PH6zjJwlBnY8vliAhcqvf04I6H18UX2vx2cvKDOosreuL4kM8jzIrsajK0nq+KN4Pt4d1nDOoM7WWLwrfqtkS1lpBnal1fHGnYeUqqrKU3xeFB63NAzyzU95IeX3xVPQh9aZ11sZBnal8vig8wm+2Q7N2UZWlXL54+kYwrOfr94YbFVWZyuGLwk8u1t4o5RLUmcr2RdGwKmvB4hfUWco8AhJ+gvhyHf/jGdRZyvBF4bByd9LcgzpTqb4o3A2f54JVTFBnKcUXxW8t59lX5ltUZSnRF4WXDtlBK/f2Jz8l+KLwojSrLC0+qLPE3uoS3u6k+2FxRVWWWCX9mWhUjv5I2HgotqjKVNy4XosmVUnqeB42qLMUy4vCKwcQ41D6YYqqLNG+eFqKP6USDfFigjpTpC+WIWQ5ooKWuKDOEpEXhTc7rr4EUUtwUGepXyovrASFqfigzpRX0ouG5Mt+VZqgzhL4Ygl6HV8vnj5Yp7yR+mV4LiRQmYI6S/3yGFal0iyrC3qaigZE6UupafVL8yS8q7sS05rei6YT1X3ZKqxQ5XJCrNLS6ovfyIqrpLT64ndIWbovY9wqVdVAqoRRvi/8TCdRX8tWnZaYVaXybVqqwNX/KhpIukrkitNS5kFK3w5Kgqt/b4lmkUNf+yXwxWlJS4a43vQFW9f0cZkje1RfDwSa17R/Z4kGsJ6+3U2F8Jr2D0qeA9n69ua+3+8/WDUxnfb7j/96U76/2yi37H/e3N07qelxwXKs+P7ua+lrhb322muvvfbaa6/dk9UoYzXatG1L9Bjiuuii7kj0IEhZrfM5MlRHxmp8wf/v4zWPCF3UG2b+W9hvq9Uq6nAf0qYyLw2kyVVPumLUeP/PbtqGJEmKBP9SnH8QUlGtY+b66JHijEmucR7QprJrql6lJavzIdd7HEnVqGQNoUWOYFRHsIAl8cN210UlS86CI0Xyfuu2ed6EAQukdS+z/VHTqvLbfFZYtC4RHrai1jp102zUOyMVYY9ULzneBcNSDE+qirw1qerGRdZnmyN9Xo7/B1YNL7lUJYdcn2GACkfTB1hKy//NshtHY+SuSVUd87tNsbqE6FntLiMvXxjwMjrndh8Mq06/1hgZMu9FKVIXKl7beECwcXI0WozPbCQWrEplOMNrhaJrVUo1u5gVK/E1sXsqvO7EhlWpLPBqdcsRvtNVgyhrsEdqAkiNlyMmwap0cHhccbpNgTIhMklJPrAE2+pafG6VCKtyqYEjMi+VSiOcvhMvQzyROLUZybAqAEt+x+c2xcnqpq9px5mg7LMcthqNFi4grXYNObXSasysferjFVRSswV9NQXWhULEzSbcBpf1w/P5ajaClxvwGtzY+W8jnnLg5Rbx8nA5V50RyKMjK3Fq6wuPUk++3jSITLnsIoTL6POuV0/q6rtYs9JBSPd7mSo5rxRYFYmw4MZbhHDvMO46+VhW4TvmKkL/wkXZ6TDexmjVnY8YQa1mzlWvy5UVY5EOYB2NnC/V0rL23HmD5HU9HcdbkFlproi+RY5kMXulkL2MQVSbabDOtbBRbjjxXjqqVGbubRCgqTnDUOFi23lRj/UVcNnwE/qiKxMjkHRuHS5kbZSWtAGQPAp/RqYl61UNGUhV3ckYZGdn4hrTvazIdLWZBgsAVY3wZwfWyLmbLmk6DQvHDSPyabB/ee79UsM7FIrTThkIx0KV07ahDbDUtHfgWXh+imEN57KOlrBazbYM/qbPw3cPDTy6c8DfrONyM9yFSoNlYXe3g1tKFw21quiLTmfcpWDhjBT9ljbxzbh3Q/O65fxsLvB45Jw0MtRCxJIwhXEaFv7ZtTJdm1v+1blOF/8wUG0WmNoSPtz1FzYNVgWsELkJAcOqz2TD8374fAgLhqxHdrbeOVeR++M5LK4adLlD+F6JT9yC8evpTSyx5B1s1dRIYSx6MBaol0hDw3VasA2VCgtoeBcBln6pU31WCKuCYqXf0FkTzR0ELqPJEruJ14vLtu9Sy4jvrrF4Uc2DRV7F2dQ3c1zg0ja/ImaWCusSvMs1CNfzFaq6I2BBLlCoPR14xas7IB8h6iJssvKpFMd6mOsSVI3AihRlamh4OJwgOq0DTH9mqbAWEViR7oeABXZEhw4teMFU47vPiFcrhWEdpb5lJtOwIkUZ1B5erIFEFS3DIU/5mX4tWLTtkLDwiAwiw8H7vbfDfKL7J/CawcMPc8Aa0JalRYJlJyRQVxhftgo7gFRY4wgsL6f4ImFhx2rTHyXiWbR3u5CC5dxOGFa6Q+t0gI/OFhNyJwnGEatpwDW9sigVFlERACx5Rl8mYeEyYxBeM4IlJCJ9KJxceRwm4ACfvgWDg5JrxV4FT6kVDgXcQ7WalCyA4H08FdZMpkoHPTJlEhYGG27AwXJ5v+GVa0eGAF+XkcTyCao5OXVH11LDijkDlrvjGpEedsipsKJFacTcKVh4+h3ikm+HHdxiRkaAqnH2GwkXpckbNI5MuJcXtTNgGdUE5YA1xH2X+7PfG5KiYFXIbSXY6fWzAdQQTGXUkvmEx5iaKiD3+7cqENYRYeLZsCB6+EkPnMO/sogeFHOFhV0n0TVARLGYC5auxdXNhgXFpOIByoZlG2GodVqdwMkwLJkxAsQFFsTK1KBFFp05YKVVfymwhmRTkg3L3TgKPhlUVmBxXKoEtiB/pLVOdSJk5Qnw3ZR7pcCCNQt6yBywIDi4VBw+YSEMLillnm5vLnx+k5wr3hF7f7lKh5T4lwwLN5VB+5sDFiyM63waiQeWnkuVkKAFJJBu0vZYnSqmM2CN460hpURYFm6jgmCQBxa+l/fe8PUhozXkKXzGmnSwYuHDnaBozYBFJk6WEmHN9Cppk3lgQccMC+NAI2soHAms5CFsqyUGwn5aBu/toeDXDFi2Ee/pSCXAst7hY97wQh5YsBkCDToZ3itu7ON1csfUCm9SsiyiptGzyICFc1SKabFhtSR8f6LnygULinUD7k55BYymiqzEIWwtGz/sINWit7DfASuJmHwWrBauM6LZKHg6lQXLrOEmCZEpJhcs2PtBplOy03s5eOc2uk/e5JggW5iWTt/VWuJzGokMl1mwsGlVDWqe9uhfChaZAMzOSsWnVgbVy+eCBffS2s6/6FfrwJ44JAC13/JMkHVMq6oo5w33LsOLUVerRlllw7LdR7pqwXsal11ZJWHJowXWeFxbuSdVcFJLm1s+WE6ilp0QFXX7Ed76VtqWP6S2rPCNYqZ3hqwhtbtaIUNV8O9y5Dg3E5ZnpDLSLpftzqKmInKXEj8mKeue/INQ3RhZ9FfmgwWxXWY8V4ZTa1Uy5ued9vKyCoebGt+Qb41Uf/Dhaa6iR4qmbFiVhvckr65JknuErgX5kfW0stQdxY54c8JyG8F40TN3H5CVYQR4STg/RwwjnBvhU/AwWxTfXewgWY6uZEuVZUS8056Tz4g7MBaWf+nI+XggXdcUZMzbjIq/AV8ZhaXJcqSVMg3naxAjdncMclU0dVZAtzhczgx4rFuSnFnIY0YpfjSv1aLPxjfgNWrEjZGqut+iGjXyKZa689ZAo/H5RcJjAyZ8ZSRrjp2PRJMcfA0dyj1ZHSceehNZLYp6otAy6xdHR+16Y8vDELMOf+CkxffPHKylZsuZyFF9jT/xstdexej/duWxi4T5iIQAAAAASUVORK5CYII=;" parent="W8AcoZy5W2Z0syqtu2D5-195" vertex="1">
          <mxGeometry x="157.6099999999999" y="21" width="139.29" height="78" as="geometry" />
        </mxCell>
        <mxCell id="W8AcoZy5W2Z0syqtu2D5-194" value="SaaS Offerings" style="text;html=1;align=center;verticalAlign=middle;whiteSpace=wrap;rounded=0;fontStyle=1" parent="W8AcoZy5W2Z0syqtu2D5-195" vertex="1">
          <mxGeometry x="7" width="93" height="30" as="geometry" />
        </mxCell>
      </root>
    </mxGraphModel>
  </diagram>
</mxfile>
